M48
; DRILL file {KiCad 9.0.4} date 2025-10-21T11:21:38+0200
; FORMAT={-:-/ absolute / metric / decimal}
; #@! TF.CreationDate,2025-10-21T11:21:38+02:00
; #@! TF.GenerationSoftware,Kicad,Pcbnew,9.0.4
; #@! TF.FileFunction,Plated,1,2,PTH
FMAT,2
METRIC
; #@! TA.AperFunction,Plated,PTH,ViaDrill
T1C0.300
; #@! TA.AperFunction,Plated,PTH,ComponentDrill
T2C0.700
; #@! TA.AperFunction,Plated,PTH,ComponentDrill
T3C0.864
; #@! TA.AperFunction,Plated,PTH,ComponentDrill
T4C1.000
%
G90
G05
T1
X103.37Y-98.901
X113.87Y-103.2
X113.87Y-106.339
X114.495Y-102.7
X115.12Y-98.9
X115.37Y-85.0
X115.37Y-106.25
X115.87Y-102.0
X116.12Y-95.5
X117.209Y-100.997
X117.224Y-99.741
X117.225Y-117.077
X118.04Y-95.0
X118.073Y-99.704
X118.12Y-113.0
X118.12Y-116.301
X118.62Y-101.5
X119.639Y-102.32
X119.679Y-100.721
X120.382Y-117.066
X121.229Y-96.45
X121.763Y-95.788
X123.765Y-96.45
X130.87Y-111.25
X131.62Y-83.899
X132.62Y-111.75
X132.87Y-104.5
X132.87Y-106.25
X134.167Y-105.889
X134.437Y-99.15
X134.509Y-103.15
X134.62Y-110.0
X134.62Y-112.75
X135.041Y-115.719
X135.985Y-102.8
X136.37Y-105.889
X136.812Y-117.49
X136.939Y-99.854
X136.97Y-101.551
X136.99Y-95.75
X137.721Y-100.022
X137.764Y-94.951
X137.89Y-101.57
X138.182Y-107.15
X138.69Y-99.073
X139.12Y-102.0
X140.077Y-83.333
X140.12Y-105.0
X140.12Y-110.0
X140.12Y-116.25
T2
X92.5Y-85.69
X92.5Y-93.31
X93.12Y-107.82
X93.12Y-115.44
X94.87Y-85.69
X94.87Y-93.31
X95.37Y-107.88
X95.37Y-115.5
T3
X133.0Y-79.739
X133.0Y-82.279
X133.0Y-117.839
X133.0Y-120.379
X135.54Y-79.739
X135.54Y-82.279
X135.54Y-117.839
X135.54Y-120.379
X138.08Y-79.739
X138.08Y-82.279
X138.08Y-117.839
X138.08Y-120.379
X140.62Y-79.739
X140.62Y-82.279
X140.62Y-117.839
X140.62Y-120.379
X143.16Y-79.739
X143.16Y-82.279
X143.16Y-117.839
X143.16Y-120.379
X145.7Y-79.739
X145.7Y-82.279
X145.7Y-117.839
X145.7Y-120.379
X148.24Y-79.739
X148.24Y-82.279
X148.24Y-117.839
X148.24Y-120.379
X150.78Y-79.739
X150.78Y-82.279
X150.78Y-117.839
X150.78Y-120.379
X153.32Y-79.739
X153.32Y-82.279
X153.32Y-117.839
X153.32Y-120.379
X155.86Y-79.739
X155.86Y-82.279
X155.86Y-117.839
X155.86Y-120.379
T4
X98.8Y-87.97
X98.8Y-90.51
X98.8Y-95.47
X98.8Y-98.01
X98.8Y-102.695
X98.8Y-105.235
X98.8Y-110.235
X98.8Y-112.775
X102.94Y-80.0
X102.94Y-82.54
X102.94Y-118.5
X102.94Y-121.04
X105.48Y-80.0
X105.48Y-82.54
X105.48Y-118.5
X105.48Y-121.04
X108.02Y-80.0
X108.02Y-82.54
X108.02Y-118.5
X108.02Y-121.04
X108.52Y-86.5
X108.56Y-114.5
X108.7Y-93.0
X108.7Y-108.24
X110.56Y-80.0
X110.56Y-82.54
X110.56Y-118.5
X110.56Y-121.04
X111.06Y-86.5
X111.1Y-114.5
X111.24Y-93.0
X111.24Y-108.24
X113.1Y-80.0
X113.1Y-82.54
X113.1Y-118.5
X113.1Y-121.04
X113.6Y-86.5
X113.64Y-114.5
X113.78Y-93.0
X113.78Y-108.24
X115.64Y-80.0
X115.64Y-82.54
X115.64Y-118.5
X115.64Y-121.04
X116.14Y-86.5
X116.18Y-114.5
X116.32Y-93.0
X116.32Y-108.24
X118.18Y-80.0
X118.18Y-82.54
X118.18Y-118.5
X118.18Y-121.04
X118.68Y-86.5
X118.72Y-114.5
X118.86Y-93.0
X118.86Y-108.24
X120.72Y-80.0
X120.72Y-82.54
X120.72Y-118.5
X120.72Y-121.04
X121.22Y-86.5
X121.26Y-114.5
X121.4Y-93.0
X121.4Y-108.24
X123.26Y-80.0
X123.26Y-82.54
X123.26Y-118.5
X123.26Y-121.04
X123.76Y-86.5
X123.8Y-114.5
X123.94Y-93.0
X123.94Y-108.24
X125.8Y-80.0
X125.8Y-82.54
X125.8Y-118.5
X125.8Y-121.04
X126.3Y-86.5
X126.34Y-114.5
X126.48Y-93.0
X126.48Y-108.24
X128.84Y-86.5
X128.88Y-114.5
X129.02Y-93.0
X129.02Y-108.24
X131.38Y-86.5
X131.42Y-114.5
X131.56Y-93.0
X131.56Y-108.24
X133.92Y-86.5
X133.96Y-114.5
X134.1Y-93.0
X134.1Y-108.24
X136.46Y-86.5
X136.5Y-114.5
X136.64Y-93.0
X136.64Y-108.24
X139.0Y-86.5
X139.04Y-114.5
X139.18Y-93.0
X139.18Y-108.24
X141.54Y-86.5
X141.58Y-114.5
X141.72Y-93.0
X141.72Y-108.24
X144.08Y-86.5
X144.12Y-114.5
X144.26Y-93.0
X144.26Y-108.24
X146.62Y-86.5
X146.66Y-114.5
X146.8Y-93.0
X146.8Y-108.24
M30
