%TF.GenerationSoftware,KiCad,Pcbnew,9.0.4*%
%TF.CreationDate,2025-10-21T11:21:35+02:00*%
%TF.ProjectId,GlasgowICAdapter,476c6173-676f-4774-9943-416461707465,rev?*%
%TF.SameCoordinates,Original*%
%TF.FileFunction,Legend,Top*%
%TF.FilePolarity,Positive*%
%FSLAX46Y46*%
G04 Gerber Fmt 4.6, Leading zero omitted, Abs format (unit mm)*
G04 Created by KiCad (PCBNEW 9.0.4) date 2025-10-21 11:21:35*
%MOMM*%
%LPD*%
G01*
G04 APERTURE LIST*
%ADD10C,0.010000*%
%ADD11C,0.120000*%
%ADD12C,0.508000*%
%ADD13O,1.440000X2.000000*%
%ADD14R,1.440000X2.000000*%
%ADD15R,1.700000X1.700000*%
%ADD16C,1.700000*%
%ADD17C,1.400000*%
%ADD18C,1.371600*%
G04 APERTURE END LIST*
D10*
%TO.C,REF\u002A\u002A*%
X89511475Y-104185932D02*
X89615149Y-104190479D01*
X89691892Y-104199999D01*
X89747754Y-104216081D01*
X89788788Y-104240313D01*
X89821046Y-104274286D01*
X89843560Y-104307833D01*
X89873524Y-104388499D01*
X89880282Y-104482381D01*
X89863218Y-104570807D01*
X89853012Y-104594161D01*
X89808866Y-104649902D01*
X89745033Y-104697569D01*
X89676913Y-104727048D01*
X89643330Y-104731846D01*
X89596444Y-104715760D01*
X89571635Y-104680475D01*
X89556613Y-104642644D01*
X89553845Y-104625321D01*
X89573934Y-104616886D01*
X89617649Y-104600230D01*
X89637402Y-104592923D01*
X89705729Y-104551948D01*
X89739809Y-104492622D01*
X89738761Y-104416552D01*
X89737419Y-104410918D01*
X89718164Y-104370305D01*
X89680625Y-104340448D01*
X89620191Y-104320055D01*
X89532249Y-104307836D01*
X89412187Y-104302500D01*
X89348302Y-104302000D01*
X89247597Y-104301752D01*
X89178946Y-104300126D01*
X89135327Y-104295801D01*
X89109718Y-104287454D01*
X89095097Y-104273765D01*
X89084442Y-104253411D01*
X89083905Y-104252234D01*
X89067333Y-104213038D01*
X89061231Y-104193619D01*
X89079681Y-104190635D01*
X89130677Y-104188081D01*
X89207692Y-104186140D01*
X89304195Y-104184997D01*
X89374816Y-104184769D01*
X89511475Y-104185932D01*
G36*
X89511475Y-104185932D02*
G01*
X89615149Y-104190479D01*
X89691892Y-104199999D01*
X89747754Y-104216081D01*
X89788788Y-104240313D01*
X89821046Y-104274286D01*
X89843560Y-104307833D01*
X89873524Y-104388499D01*
X89880282Y-104482381D01*
X89863218Y-104570807D01*
X89853012Y-104594161D01*
X89808866Y-104649902D01*
X89745033Y-104697569D01*
X89676913Y-104727048D01*
X89643330Y-104731846D01*
X89596444Y-104715760D01*
X89571635Y-104680475D01*
X89556613Y-104642644D01*
X89553845Y-104625321D01*
X89573934Y-104616886D01*
X89617649Y-104600230D01*
X89637402Y-104592923D01*
X89705729Y-104551948D01*
X89739809Y-104492622D01*
X89738761Y-104416552D01*
X89737419Y-104410918D01*
X89718164Y-104370305D01*
X89680625Y-104340448D01*
X89620191Y-104320055D01*
X89532249Y-104307836D01*
X89412187Y-104302500D01*
X89348302Y-104302000D01*
X89247597Y-104301752D01*
X89178946Y-104300126D01*
X89135327Y-104295801D01*
X89109718Y-104287454D01*
X89095097Y-104273765D01*
X89084442Y-104253411D01*
X89083905Y-104252234D01*
X89067333Y-104213038D01*
X89061231Y-104193619D01*
X89079681Y-104190635D01*
X89130677Y-104188081D01*
X89207692Y-104186140D01*
X89304195Y-104184997D01*
X89374816Y-104184769D01*
X89511475Y-104185932D01*
G37*
X89388515Y-98854421D02*
X89513532Y-98856884D01*
X89605918Y-98859767D01*
X89672119Y-98863898D01*
X89718580Y-98870107D01*
X89751744Y-98879226D01*
X89778056Y-98892083D01*
X89801271Y-98907584D01*
X89875431Y-98982371D01*
X89918316Y-99073628D01*
X89928588Y-99172883D01*
X89904911Y-99271664D01*
X89868642Y-99334367D01*
X89832642Y-99377961D01*
X89794925Y-99409845D01*
X89748801Y-99431810D01*
X89687579Y-99445649D01*
X89604569Y-99453153D01*
X89493081Y-99456117D01*
X89412938Y-99456461D01*
X89117935Y-99456461D01*
X89043485Y-99290385D01*
X89366598Y-99280615D01*
X89487271Y-99276579D01*
X89574859Y-99272344D01*
X89635350Y-99267097D01*
X89674732Y-99260025D01*
X89698993Y-99250311D01*
X89714120Y-99237144D01*
X89717394Y-99232919D01*
X89742966Y-99168909D01*
X89732847Y-99104208D01*
X89706000Y-99065692D01*
X89686976Y-99050025D01*
X89662012Y-99039180D01*
X89624166Y-99032288D01*
X89566498Y-99028479D01*
X89482065Y-99026883D01*
X89394072Y-99026615D01*
X89283677Y-99026563D01*
X89205537Y-99024672D01*
X89152835Y-99018345D01*
X89118758Y-99004983D01*
X89096489Y-98981985D01*
X89079213Y-98946754D01*
X89061262Y-98899697D01*
X89041722Y-98848303D01*
X89388515Y-98854421D01*
G36*
X89388515Y-98854421D02*
G01*
X89513532Y-98856884D01*
X89605918Y-98859767D01*
X89672119Y-98863898D01*
X89718580Y-98870107D01*
X89751744Y-98879226D01*
X89778056Y-98892083D01*
X89801271Y-98907584D01*
X89875431Y-98982371D01*
X89918316Y-99073628D01*
X89928588Y-99172883D01*
X89904911Y-99271664D01*
X89868642Y-99334367D01*
X89832642Y-99377961D01*
X89794925Y-99409845D01*
X89748801Y-99431810D01*
X89687579Y-99445649D01*
X89604569Y-99453153D01*
X89493081Y-99456117D01*
X89412938Y-99456461D01*
X89117935Y-99456461D01*
X89043485Y-99290385D01*
X89366598Y-99280615D01*
X89487271Y-99276579D01*
X89574859Y-99272344D01*
X89635350Y-99267097D01*
X89674732Y-99260025D01*
X89698993Y-99250311D01*
X89714120Y-99237144D01*
X89717394Y-99232919D01*
X89742966Y-99168909D01*
X89732847Y-99104208D01*
X89706000Y-99065692D01*
X89686976Y-99050025D01*
X89662012Y-99039180D01*
X89624166Y-99032288D01*
X89566498Y-99028479D01*
X89482065Y-99026883D01*
X89394072Y-99026615D01*
X89283677Y-99026563D01*
X89205537Y-99024672D01*
X89152835Y-99018345D01*
X89118758Y-99004983D01*
X89096489Y-98981985D01*
X89079213Y-98946754D01*
X89061262Y-98899697D01*
X89041722Y-98848303D01*
X89388515Y-98854421D01*
G37*
X89358522Y-101373689D02*
X89378731Y-101374107D01*
X89498267Y-101377058D01*
X89585551Y-101380548D01*
X89647409Y-101385514D01*
X89690664Y-101392893D01*
X89722140Y-101403624D01*
X89748661Y-101418645D01*
X89760025Y-101426502D01*
X89810308Y-101471553D01*
X89849419Y-101521940D01*
X89852833Y-101528108D01*
X89879788Y-101618458D01*
X89875330Y-101713362D01*
X89842579Y-101802117D01*
X89784650Y-101874022D01*
X89743872Y-101902144D01*
X89669046Y-101932802D01*
X89614942Y-101932165D01*
X89578554Y-101899987D01*
X89572367Y-101888081D01*
X89553075Y-101836675D01*
X89558018Y-101810422D01*
X89590413Y-101801530D01*
X89608308Y-101801077D01*
X89674141Y-101784797D01*
X89720193Y-101742365D01*
X89742436Y-101683388D01*
X89736839Y-101617475D01*
X89707771Y-101563895D01*
X89691190Y-101545798D01*
X89671075Y-101532971D01*
X89640668Y-101524306D01*
X89593212Y-101518696D01*
X89521950Y-101515035D01*
X89420125Y-101512215D01*
X89387885Y-101511484D01*
X89277590Y-101508820D01*
X89199964Y-101505792D01*
X89148604Y-101501250D01*
X89117110Y-101494046D01*
X89099080Y-101483033D01*
X89088112Y-101467060D01*
X89083267Y-101456834D01*
X89066699Y-101413406D01*
X89061231Y-101387842D01*
X89079493Y-101379395D01*
X89134704Y-101374239D01*
X89227501Y-101372346D01*
X89358522Y-101373689D01*
G36*
X89358522Y-101373689D02*
G01*
X89378731Y-101374107D01*
X89498267Y-101377058D01*
X89585551Y-101380548D01*
X89647409Y-101385514D01*
X89690664Y-101392893D01*
X89722140Y-101403624D01*
X89748661Y-101418645D01*
X89760025Y-101426502D01*
X89810308Y-101471553D01*
X89849419Y-101521940D01*
X89852833Y-101528108D01*
X89879788Y-101618458D01*
X89875330Y-101713362D01*
X89842579Y-101802117D01*
X89784650Y-101874022D01*
X89743872Y-101902144D01*
X89669046Y-101932802D01*
X89614942Y-101932165D01*
X89578554Y-101899987D01*
X89572367Y-101888081D01*
X89553075Y-101836675D01*
X89558018Y-101810422D01*
X89590413Y-101801530D01*
X89608308Y-101801077D01*
X89674141Y-101784797D01*
X89720193Y-101742365D01*
X89742436Y-101683388D01*
X89736839Y-101617475D01*
X89707771Y-101563895D01*
X89691190Y-101545798D01*
X89671075Y-101532971D01*
X89640668Y-101524306D01*
X89593212Y-101518696D01*
X89521950Y-101515035D01*
X89420125Y-101512215D01*
X89387885Y-101511484D01*
X89277590Y-101508820D01*
X89199964Y-101505792D01*
X89148604Y-101501250D01*
X89117110Y-101494046D01*
X89099080Y-101483033D01*
X89088112Y-101467060D01*
X89083267Y-101456834D01*
X89066699Y-101413406D01*
X89061231Y-101387842D01*
X89079493Y-101379395D01*
X89134704Y-101374239D01*
X89227501Y-101372346D01*
X89358522Y-101373689D01*
G37*
X90171764Y-100150077D02*
X90007880Y-100159846D01*
X89928020Y-100165572D01*
X89880961Y-100172149D01*
X89860434Y-100181262D01*
X89860171Y-100194598D01*
X89862622Y-100198923D01*
X89880364Y-100256444D01*
X89879328Y-100331268D01*
X89861090Y-100407339D01*
X89837495Y-100454918D01*
X89799802Y-100503702D01*
X89757145Y-100539364D01*
X89702943Y-100563845D01*
X89630616Y-100579087D01*
X89533581Y-100587030D01*
X89405258Y-100589616D01*
X89380642Y-100589662D01*
X89104130Y-100589692D01*
X89082680Y-100528161D01*
X89068088Y-100484459D01*
X89061294Y-100460482D01*
X89061231Y-100459777D01*
X89079655Y-100457415D01*
X89130474Y-100455406D01*
X89207007Y-100453901D01*
X89302570Y-100453053D01*
X89360671Y-100452923D01*
X89475229Y-100452651D01*
X89557333Y-100451252D01*
X89613607Y-100447849D01*
X89650674Y-100441567D01*
X89675156Y-100431529D01*
X89693675Y-100416861D01*
X89702594Y-100407702D01*
X89738534Y-100344789D01*
X89741225Y-100276136D01*
X89710830Y-100213848D01*
X89699856Y-100202329D01*
X89679221Y-100185433D01*
X89654744Y-100173714D01*
X89619353Y-100166233D01*
X89565974Y-100162054D01*
X89487534Y-100160237D01*
X89379383Y-100159846D01*
X89104130Y-100159846D01*
X89082680Y-100098315D01*
X89068088Y-100054613D01*
X89061294Y-100030636D01*
X89061231Y-100029930D01*
X89079931Y-100028126D01*
X89132678Y-100026500D01*
X89214443Y-100025117D01*
X89320195Y-100024042D01*
X89444906Y-100023340D01*
X89583545Y-100023077D01*
X90118194Y-100023077D01*
X90171764Y-100150077D01*
G36*
X90171764Y-100150077D02*
G01*
X90007880Y-100159846D01*
X89928020Y-100165572D01*
X89880961Y-100172149D01*
X89860434Y-100181262D01*
X89860171Y-100194598D01*
X89862622Y-100198923D01*
X89880364Y-100256444D01*
X89879328Y-100331268D01*
X89861090Y-100407339D01*
X89837495Y-100454918D01*
X89799802Y-100503702D01*
X89757145Y-100539364D01*
X89702943Y-100563845D01*
X89630616Y-100579087D01*
X89533581Y-100587030D01*
X89405258Y-100589616D01*
X89380642Y-100589662D01*
X89104130Y-100589692D01*
X89082680Y-100528161D01*
X89068088Y-100484459D01*
X89061294Y-100460482D01*
X89061231Y-100459777D01*
X89079655Y-100457415D01*
X89130474Y-100455406D01*
X89207007Y-100453901D01*
X89302570Y-100453053D01*
X89360671Y-100452923D01*
X89475229Y-100452651D01*
X89557333Y-100451252D01*
X89613607Y-100447849D01*
X89650674Y-100441567D01*
X89675156Y-100431529D01*
X89693675Y-100416861D01*
X89702594Y-100407702D01*
X89738534Y-100344789D01*
X89741225Y-100276136D01*
X89710830Y-100213848D01*
X89699856Y-100202329D01*
X89679221Y-100185433D01*
X89654744Y-100173714D01*
X89619353Y-100166233D01*
X89565974Y-100162054D01*
X89487534Y-100160237D01*
X89379383Y-100159846D01*
X89104130Y-100159846D01*
X89082680Y-100098315D01*
X89068088Y-100054613D01*
X89061294Y-100030636D01*
X89061231Y-100029930D01*
X89079931Y-100028126D01*
X89132678Y-100026500D01*
X89214443Y-100025117D01*
X89320195Y-100024042D01*
X89444906Y-100023340D01*
X89583545Y-100023077D01*
X90118194Y-100023077D01*
X90171764Y-100150077D01*
G37*
X89859171Y-102769150D02*
X89875966Y-102812002D01*
X89881846Y-102837073D01*
X89863264Y-102843501D01*
X89811345Y-102849509D01*
X89731828Y-102854697D01*
X89630454Y-102858664D01*
X89544808Y-102860577D01*
X89207769Y-102865923D01*
X89201175Y-102912560D01*
X89205786Y-102954976D01*
X89220713Y-102975760D01*
X89248623Y-102981570D01*
X89308075Y-102986530D01*
X89391534Y-102990246D01*
X89491468Y-102992324D01*
X89542896Y-102992624D01*
X89838946Y-102992923D01*
X89860396Y-103054454D01*
X89874980Y-103098004D01*
X89881781Y-103121694D01*
X89881846Y-103122377D01*
X89863358Y-103124754D01*
X89812094Y-103127366D01*
X89734351Y-103129995D01*
X89636426Y-103132421D01*
X89544808Y-103134115D01*
X89207769Y-103139461D01*
X89207769Y-103256692D01*
X89515254Y-103262072D01*
X89822739Y-103267451D01*
X89852293Y-103324601D01*
X89872587Y-103366797D01*
X89881796Y-103391770D01*
X89881846Y-103392491D01*
X89863338Y-103395929D01*
X89811932Y-103398911D01*
X89733808Y-103401247D01*
X89635143Y-103402749D01*
X89531657Y-103403231D01*
X89181467Y-103403231D01*
X89119637Y-103341401D01*
X89081538Y-103298793D01*
X89066105Y-103261390D01*
X89067082Y-103210270D01*
X89069567Y-103189978D01*
X89076800Y-103126554D01*
X89080945Y-103074095D01*
X89081328Y-103061308D01*
X89078824Y-103018199D01*
X89072538Y-102956544D01*
X89069567Y-102932638D01*
X89064972Y-102873922D01*
X89074954Y-102834464D01*
X89105772Y-102795338D01*
X89119637Y-102781215D01*
X89181467Y-102719385D01*
X89836497Y-102719385D01*
X89859171Y-102769150D01*
G36*
X89859171Y-102769150D02*
G01*
X89875966Y-102812002D01*
X89881846Y-102837073D01*
X89863264Y-102843501D01*
X89811345Y-102849509D01*
X89731828Y-102854697D01*
X89630454Y-102858664D01*
X89544808Y-102860577D01*
X89207769Y-102865923D01*
X89201175Y-102912560D01*
X89205786Y-102954976D01*
X89220713Y-102975760D01*
X89248623Y-102981570D01*
X89308075Y-102986530D01*
X89391534Y-102990246D01*
X89491468Y-102992324D01*
X89542896Y-102992624D01*
X89838946Y-102992923D01*
X89860396Y-103054454D01*
X89874980Y-103098004D01*
X89881781Y-103121694D01*
X89881846Y-103122377D01*
X89863358Y-103124754D01*
X89812094Y-103127366D01*
X89734351Y-103129995D01*
X89636426Y-103132421D01*
X89544808Y-103134115D01*
X89207769Y-103139461D01*
X89207769Y-103256692D01*
X89515254Y-103262072D01*
X89822739Y-103267451D01*
X89852293Y-103324601D01*
X89872587Y-103366797D01*
X89881796Y-103391770D01*
X89881846Y-103392491D01*
X89863338Y-103395929D01*
X89811932Y-103398911D01*
X89733808Y-103401247D01*
X89635143Y-103402749D01*
X89531657Y-103403231D01*
X89181467Y-103403231D01*
X89119637Y-103341401D01*
X89081538Y-103298793D01*
X89066105Y-103261390D01*
X89067082Y-103210270D01*
X89069567Y-103189978D01*
X89076800Y-103126554D01*
X89080945Y-103074095D01*
X89081328Y-103061308D01*
X89078824Y-103018199D01*
X89072538Y-102956544D01*
X89069567Y-102932638D01*
X89064972Y-102873922D01*
X89074954Y-102834464D01*
X89105772Y-102795338D01*
X89119637Y-102781215D01*
X89181467Y-102719385D01*
X89836497Y-102719385D01*
X89859171Y-102769150D01*
G37*
X89497818Y-96603894D02*
X89591751Y-96604574D01*
X89662094Y-96607629D01*
X89710837Y-96614322D01*
X89746712Y-96625960D01*
X89778452Y-96643853D01*
X89784352Y-96647808D01*
X89863896Y-96714267D01*
X89910071Y-96786685D01*
X89928401Y-96874849D01*
X89929297Y-96904787D01*
X89912744Y-97016886D01*
X89864591Y-97108464D01*
X89787095Y-97176049D01*
X89737273Y-97200057D01*
X89662467Y-97218738D01*
X89567948Y-97228301D01*
X89464790Y-97229208D01*
X89364065Y-97221921D01*
X89276847Y-97206903D01*
X89214209Y-97184615D01*
X89203421Y-97177765D01*
X89122895Y-97096632D01*
X89074664Y-97000266D01*
X89060550Y-96895701D01*
X89062746Y-96885058D01*
X89242739Y-96885058D01*
X89244263Y-96930447D01*
X89273248Y-96976340D01*
X89304191Y-97003712D01*
X89349357Y-97019923D01*
X89420580Y-97029026D01*
X89428886Y-97029651D01*
X89557963Y-97031204D01*
X89653828Y-97014965D01*
X89715893Y-96981152D01*
X89743568Y-96929984D01*
X89745077Y-96911720D01*
X89737487Y-96863760D01*
X89711192Y-96830953D01*
X89660905Y-96810895D01*
X89581336Y-96801178D01*
X89497818Y-96799231D01*
X89408651Y-96800368D01*
X89349480Y-96804841D01*
X89311259Y-96814246D01*
X89284947Y-96830176D01*
X89276154Y-96838308D01*
X89242739Y-96885058D01*
X89062746Y-96885058D01*
X89082371Y-96789968D01*
X89095453Y-96760543D01*
X89135769Y-96703241D01*
X89189225Y-96652950D01*
X89196005Y-96648197D01*
X89228679Y-96628878D01*
X89263606Y-96616108D01*
X89309586Y-96608564D01*
X89375416Y-96604924D01*
X89469895Y-96603865D01*
X89491077Y-96603846D01*
X89497818Y-96603894D01*
G36*
X89497818Y-96603894D02*
G01*
X89591751Y-96604574D01*
X89662094Y-96607629D01*
X89710837Y-96614322D01*
X89746712Y-96625960D01*
X89778452Y-96643853D01*
X89784352Y-96647808D01*
X89863896Y-96714267D01*
X89910071Y-96786685D01*
X89928401Y-96874849D01*
X89929297Y-96904787D01*
X89912744Y-97016886D01*
X89864591Y-97108464D01*
X89787095Y-97176049D01*
X89737273Y-97200057D01*
X89662467Y-97218738D01*
X89567948Y-97228301D01*
X89464790Y-97229208D01*
X89364065Y-97221921D01*
X89276847Y-97206903D01*
X89214209Y-97184615D01*
X89203421Y-97177765D01*
X89122895Y-97096632D01*
X89074664Y-97000266D01*
X89060550Y-96895701D01*
X89062746Y-96885058D01*
X89242739Y-96885058D01*
X89244263Y-96930447D01*
X89273248Y-96976340D01*
X89304191Y-97003712D01*
X89349357Y-97019923D01*
X89420580Y-97029026D01*
X89428886Y-97029651D01*
X89557963Y-97031204D01*
X89653828Y-97014965D01*
X89715893Y-96981152D01*
X89743568Y-96929984D01*
X89745077Y-96911720D01*
X89737487Y-96863760D01*
X89711192Y-96830953D01*
X89660905Y-96810895D01*
X89581336Y-96801178D01*
X89497818Y-96799231D01*
X89408651Y-96800368D01*
X89349480Y-96804841D01*
X89311259Y-96814246D01*
X89284947Y-96830176D01*
X89276154Y-96838308D01*
X89242739Y-96885058D01*
X89062746Y-96885058D01*
X89082371Y-96789968D01*
X89095453Y-96760543D01*
X89135769Y-96703241D01*
X89189225Y-96652950D01*
X89196005Y-96648197D01*
X89228679Y-96628878D01*
X89263606Y-96616108D01*
X89309586Y-96608564D01*
X89375416Y-96604924D01*
X89469895Y-96603865D01*
X89491077Y-96603846D01*
X89497818Y-96603894D01*
G37*
X89530052Y-104850501D02*
X89589280Y-104851730D01*
X89679290Y-104861032D01*
X89744833Y-104879460D01*
X89793088Y-104909360D01*
X89831233Y-104953080D01*
X89843560Y-104972141D01*
X89875664Y-105058726D01*
X89877684Y-105153522D01*
X89852162Y-105245224D01*
X89801639Y-105322528D01*
X89756410Y-105359814D01*
X89674337Y-105389353D01*
X89609393Y-105391699D01*
X89522555Y-105386385D01*
X89434897Y-105186115D01*
X89390113Y-105088739D01*
X89354087Y-105025113D01*
X89322883Y-104992029D01*
X89292564Y-104986280D01*
X89259195Y-105004658D01*
X89237077Y-105024923D01*
X89201607Y-105083889D01*
X89199121Y-105148024D01*
X89226765Y-105206926D01*
X89281680Y-105250197D01*
X89301072Y-105257936D01*
X89361636Y-105295006D01*
X89387448Y-105337654D01*
X89409529Y-105396154D01*
X89325816Y-105396154D01*
X89268850Y-105390982D01*
X89220811Y-105370723D01*
X89165654Y-105328262D01*
X89158486Y-105321951D01*
X89109415Y-105274720D01*
X89083080Y-105234121D01*
X89070965Y-105183328D01*
X89066997Y-105141220D01*
X89066009Y-105065902D01*
X89078534Y-105012286D01*
X89097131Y-104978838D01*
X89101479Y-104973249D01*
X89491077Y-104973249D01*
X89498528Y-104995753D01*
X89518247Y-105044182D01*
X89546282Y-105108908D01*
X89552308Y-105122443D01*
X89593904Y-105204244D01*
X89630462Y-105249312D01*
X89664704Y-105259217D01*
X89699352Y-105235526D01*
X89714661Y-105215960D01*
X89745279Y-105145360D01*
X89740220Y-105079280D01*
X89702849Y-105023959D01*
X89636527Y-104985636D01*
X89583884Y-104973349D01*
X89530052Y-104968471D01*
X89496562Y-104969839D01*
X89491077Y-104973249D01*
X89101479Y-104973249D01*
X89138025Y-104926268D01*
X89182252Y-104889879D01*
X89237874Y-104866850D01*
X89312953Y-104854359D01*
X89415551Y-104849587D01*
X89467624Y-104849206D01*
X89530052Y-104850501D01*
G36*
X89530052Y-104850501D02*
G01*
X89589280Y-104851730D01*
X89679290Y-104861032D01*
X89744833Y-104879460D01*
X89793088Y-104909360D01*
X89831233Y-104953080D01*
X89843560Y-104972141D01*
X89875664Y-105058726D01*
X89877684Y-105153522D01*
X89852162Y-105245224D01*
X89801639Y-105322528D01*
X89756410Y-105359814D01*
X89674337Y-105389353D01*
X89609393Y-105391699D01*
X89522555Y-105386385D01*
X89434897Y-105186115D01*
X89390113Y-105088739D01*
X89354087Y-105025113D01*
X89322883Y-104992029D01*
X89292564Y-104986280D01*
X89259195Y-105004658D01*
X89237077Y-105024923D01*
X89201607Y-105083889D01*
X89199121Y-105148024D01*
X89226765Y-105206926D01*
X89281680Y-105250197D01*
X89301072Y-105257936D01*
X89361636Y-105295006D01*
X89387448Y-105337654D01*
X89409529Y-105396154D01*
X89325816Y-105396154D01*
X89268850Y-105390982D01*
X89220811Y-105370723D01*
X89165654Y-105328262D01*
X89158486Y-105321951D01*
X89109415Y-105274720D01*
X89083080Y-105234121D01*
X89070965Y-105183328D01*
X89066997Y-105141220D01*
X89066009Y-105065902D01*
X89078534Y-105012286D01*
X89097131Y-104978838D01*
X89101479Y-104973249D01*
X89491077Y-104973249D01*
X89498528Y-104995753D01*
X89518247Y-105044182D01*
X89546282Y-105108908D01*
X89552308Y-105122443D01*
X89593904Y-105204244D01*
X89630462Y-105249312D01*
X89664704Y-105259217D01*
X89699352Y-105235526D01*
X89714661Y-105215960D01*
X89745279Y-105145360D01*
X89740220Y-105079280D01*
X89702849Y-105023959D01*
X89636527Y-104985636D01*
X89583884Y-104973349D01*
X89530052Y-104968471D01*
X89496562Y-104969839D01*
X89491077Y-104973249D01*
X89101479Y-104973249D01*
X89138025Y-104926268D01*
X89182252Y-104889879D01*
X89237874Y-104866850D01*
X89312953Y-104854359D01*
X89415551Y-104849587D01*
X89467624Y-104849206D01*
X89530052Y-104850501D01*
G37*
X89477014Y-102035809D02*
X89594235Y-102040322D01*
X89686423Y-102056362D01*
X89755731Y-102086528D01*
X89809789Y-102133629D01*
X89837495Y-102170312D01*
X89867428Y-102236990D01*
X89881322Y-102314272D01*
X89877603Y-102386110D01*
X89862600Y-102426308D01*
X89858330Y-102442082D01*
X89874250Y-102452550D01*
X89916911Y-102459856D01*
X89981894Y-102465385D01*
X90054268Y-102471437D01*
X90097813Y-102479844D01*
X90122713Y-102495141D01*
X90139155Y-102521864D01*
X90146436Y-102538654D01*
X90173037Y-102602154D01*
X89719711Y-102602081D01*
X89573680Y-102601833D01*
X89461345Y-102600872D01*
X89377322Y-102598794D01*
X89316231Y-102595193D01*
X89272691Y-102589665D01*
X89241321Y-102581804D01*
X89216738Y-102571207D01*
X89202706Y-102563182D01*
X89126612Y-102496728D01*
X89078916Y-102412470D01*
X89067656Y-102351137D01*
X89202705Y-102351137D01*
X89235975Y-102415179D01*
X89240483Y-102420164D01*
X89263933Y-102441439D01*
X89291834Y-102454779D01*
X89333359Y-102462001D01*
X89397684Y-102464923D01*
X89468800Y-102465385D01*
X89558142Y-102464383D01*
X89617742Y-102460238D01*
X89656911Y-102451236D01*
X89684960Y-102435667D01*
X89699856Y-102422902D01*
X89737425Y-102363600D01*
X89741943Y-102295301D01*
X89713247Y-102230110D01*
X89702594Y-102217528D01*
X89678937Y-102196111D01*
X89650749Y-102182744D01*
X89608755Y-102175566D01*
X89543681Y-102172719D01*
X89477014Y-102172308D01*
X89389645Y-102173141D01*
X89331808Y-102176961D01*
X89293971Y-102185746D01*
X89266602Y-102201474D01*
X89245958Y-102220266D01*
X89206110Y-102283375D01*
X89202705Y-102351137D01*
X89067656Y-102351137D01*
X89061801Y-102319249D01*
X89077454Y-102225900D01*
X89105582Y-102170312D01*
X89154240Y-102111957D01*
X89213667Y-102072186D01*
X89291493Y-102048190D01*
X89395348Y-102037161D01*
X89471538Y-102035599D01*
X89477014Y-102035809D01*
G36*
X89477014Y-102035809D02*
G01*
X89594235Y-102040322D01*
X89686423Y-102056362D01*
X89755731Y-102086528D01*
X89809789Y-102133629D01*
X89837495Y-102170312D01*
X89867428Y-102236990D01*
X89881322Y-102314272D01*
X89877603Y-102386110D01*
X89862600Y-102426308D01*
X89858330Y-102442082D01*
X89874250Y-102452550D01*
X89916911Y-102459856D01*
X89981894Y-102465385D01*
X90054268Y-102471437D01*
X90097813Y-102479844D01*
X90122713Y-102495141D01*
X90139155Y-102521864D01*
X90146436Y-102538654D01*
X90173037Y-102602154D01*
X89719711Y-102602081D01*
X89573680Y-102601833D01*
X89461345Y-102600872D01*
X89377322Y-102598794D01*
X89316231Y-102595193D01*
X89272691Y-102589665D01*
X89241321Y-102581804D01*
X89216738Y-102571207D01*
X89202706Y-102563182D01*
X89126612Y-102496728D01*
X89078916Y-102412470D01*
X89067656Y-102351137D01*
X89202705Y-102351137D01*
X89235975Y-102415179D01*
X89240483Y-102420164D01*
X89263933Y-102441439D01*
X89291834Y-102454779D01*
X89333359Y-102462001D01*
X89397684Y-102464923D01*
X89468800Y-102465385D01*
X89558142Y-102464383D01*
X89617742Y-102460238D01*
X89656911Y-102451236D01*
X89684960Y-102435667D01*
X89699856Y-102422902D01*
X89737425Y-102363600D01*
X89741943Y-102295301D01*
X89713247Y-102230110D01*
X89702594Y-102217528D01*
X89678937Y-102196111D01*
X89650749Y-102182744D01*
X89608755Y-102175566D01*
X89543681Y-102172719D01*
X89477014Y-102172308D01*
X89389645Y-102173141D01*
X89331808Y-102176961D01*
X89293971Y-102185746D01*
X89266602Y-102201474D01*
X89245958Y-102220266D01*
X89206110Y-102283375D01*
X89202705Y-102351137D01*
X89067656Y-102351137D01*
X89061801Y-102319249D01*
X89077454Y-102225900D01*
X89105582Y-102170312D01*
X89154240Y-102111957D01*
X89213667Y-102072186D01*
X89291493Y-102048190D01*
X89395348Y-102037161D01*
X89471538Y-102035599D01*
X89477014Y-102035809D01*
G37*
X89615532Y-98096661D02*
X89664964Y-98101992D01*
X89758945Y-98134778D01*
X89824785Y-98180421D01*
X89891319Y-98262802D01*
X89924324Y-98353546D01*
X89926427Y-98446185D01*
X89900255Y-98534254D01*
X89848433Y-98611286D01*
X89773588Y-98670816D01*
X89678346Y-98706378D01*
X89608244Y-98713571D01*
X89578991Y-98712754D01*
X89556593Y-98705914D01*
X89536526Y-98687112D01*
X89514267Y-98650408D01*
X89485291Y-98589862D01*
X89445073Y-98499534D01*
X89444871Y-98499077D01*
X89406790Y-98415933D01*
X89372975Y-98347753D01*
X89347067Y-98301505D01*
X89345750Y-98299914D01*
X89559874Y-98299914D01*
X89569281Y-98333132D01*
X89591517Y-98385494D01*
X89619390Y-98444024D01*
X89620128Y-98445479D01*
X89646223Y-98495089D01*
X89663637Y-98515000D01*
X89681893Y-98510090D01*
X89705880Y-98489416D01*
X89740594Y-98436819D01*
X89743144Y-98380177D01*
X89717881Y-98329369D01*
X89669153Y-98294276D01*
X89615532Y-98284154D01*
X89572448Y-98286590D01*
X89559874Y-98299914D01*
X89345750Y-98299914D01*
X89332705Y-98284158D01*
X89332589Y-98284154D01*
X89301315Y-98299443D01*
X89266843Y-98335196D01*
X89242010Y-98376242D01*
X89237077Y-98397037D01*
X89254138Y-98453770D01*
X89296867Y-98502627D01*
X89343845Y-98526465D01*
X89378478Y-98549397D01*
X89417919Y-98594318D01*
X89451991Y-98647123D01*
X89470520Y-98693710D01*
X89471538Y-98703452D01*
X89454785Y-98714418D01*
X89411961Y-98715079D01*
X89354219Y-98707020D01*
X89292711Y-98691827D01*
X89238591Y-98671086D01*
X89236490Y-98670038D01*
X89149340Y-98607621D01*
X89090061Y-98526726D01*
X89060966Y-98434856D01*
X89064366Y-98339513D01*
X89102572Y-98248198D01*
X89105259Y-98244138D01*
X89170358Y-98172306D01*
X89255295Y-98125073D01*
X89366979Y-98098934D01*
X89398357Y-98095426D01*
X89546464Y-98089213D01*
X89615532Y-98096661D01*
G36*
X89615532Y-98096661D02*
G01*
X89664964Y-98101992D01*
X89758945Y-98134778D01*
X89824785Y-98180421D01*
X89891319Y-98262802D01*
X89924324Y-98353546D01*
X89926427Y-98446185D01*
X89900255Y-98534254D01*
X89848433Y-98611286D01*
X89773588Y-98670816D01*
X89678346Y-98706378D01*
X89608244Y-98713571D01*
X89578991Y-98712754D01*
X89556593Y-98705914D01*
X89536526Y-98687112D01*
X89514267Y-98650408D01*
X89485291Y-98589862D01*
X89445073Y-98499534D01*
X89444871Y-98499077D01*
X89406790Y-98415933D01*
X89372975Y-98347753D01*
X89347067Y-98301505D01*
X89345750Y-98299914D01*
X89559874Y-98299914D01*
X89569281Y-98333132D01*
X89591517Y-98385494D01*
X89619390Y-98444024D01*
X89620128Y-98445479D01*
X89646223Y-98495089D01*
X89663637Y-98515000D01*
X89681893Y-98510090D01*
X89705880Y-98489416D01*
X89740594Y-98436819D01*
X89743144Y-98380177D01*
X89717881Y-98329369D01*
X89669153Y-98294276D01*
X89615532Y-98284154D01*
X89572448Y-98286590D01*
X89559874Y-98299914D01*
X89345750Y-98299914D01*
X89332705Y-98284158D01*
X89332589Y-98284154D01*
X89301315Y-98299443D01*
X89266843Y-98335196D01*
X89242010Y-98376242D01*
X89237077Y-98397037D01*
X89254138Y-98453770D01*
X89296867Y-98502627D01*
X89343845Y-98526465D01*
X89378478Y-98549397D01*
X89417919Y-98594318D01*
X89451991Y-98647123D01*
X89470520Y-98693710D01*
X89471538Y-98703452D01*
X89454785Y-98714418D01*
X89411961Y-98715079D01*
X89354219Y-98707020D01*
X89292711Y-98691827D01*
X89238591Y-98671086D01*
X89236490Y-98670038D01*
X89149340Y-98607621D01*
X89090061Y-98526726D01*
X89060966Y-98434856D01*
X89064366Y-98339513D01*
X89102572Y-98248198D01*
X89105259Y-98244138D01*
X89170358Y-98172306D01*
X89255295Y-98125073D01*
X89366979Y-98098934D01*
X89398357Y-98095426D01*
X89546464Y-98089213D01*
X89615532Y-98096661D01*
G37*
X89699890Y-100726052D02*
X89791098Y-100782831D01*
X89821611Y-100812378D01*
X89860772Y-100879542D01*
X89878500Y-100964956D01*
X89873697Y-101053501D01*
X89845267Y-101130060D01*
X89844721Y-101130936D01*
X89809873Y-101178285D01*
X89769148Y-101213241D01*
X89716075Y-101237825D01*
X89644186Y-101254062D01*
X89547008Y-101263975D01*
X89418072Y-101269586D01*
X89399702Y-101270077D01*
X89122713Y-101277141D01*
X89091972Y-101217695D01*
X89071198Y-101174681D01*
X89061354Y-101148710D01*
X89061231Y-101147509D01*
X89079394Y-101143014D01*
X89128388Y-101139444D01*
X89199969Y-101137248D01*
X89257932Y-101136769D01*
X89351830Y-101136758D01*
X89410797Y-101132466D01*
X89438921Y-101117503D01*
X89440294Y-101085482D01*
X89419002Y-101030014D01*
X89379864Y-100946269D01*
X89347357Y-100884689D01*
X89319155Y-100853017D01*
X89288418Y-100843706D01*
X89286896Y-100843692D01*
X89233946Y-100859057D01*
X89205340Y-100904547D01*
X89201197Y-100974166D01*
X89201916Y-101024313D01*
X89187473Y-101050754D01*
X89152782Y-101067243D01*
X89108584Y-101076733D01*
X89083507Y-101063057D01*
X89079918Y-101057907D01*
X89065504Y-101009425D01*
X89063463Y-100941531D01*
X89073017Y-100871612D01*
X89090478Y-100822068D01*
X89148636Y-100753570D01*
X89229592Y-100714634D01*
X89292840Y-100706923D01*
X89349889Y-100712807D01*
X89396458Y-100734101D01*
X89437819Y-100776265D01*
X89479245Y-100844759D01*
X89526007Y-100945044D01*
X89528650Y-100951154D01*
X89570383Y-101041490D01*
X89604609Y-101097235D01*
X89635365Y-101121129D01*
X89666689Y-101115913D01*
X89702617Y-101084328D01*
X89710884Y-101074883D01*
X89742942Y-101011617D01*
X89741593Y-100946064D01*
X89710162Y-100888972D01*
X89651976Y-100851093D01*
X89640554Y-100847574D01*
X89585163Y-100813300D01*
X89558482Y-100769809D01*
X89532040Y-100706923D01*
X89600452Y-100706923D01*
X89699890Y-100726052D01*
G36*
X89699890Y-100726052D02*
G01*
X89791098Y-100782831D01*
X89821611Y-100812378D01*
X89860772Y-100879542D01*
X89878500Y-100964956D01*
X89873697Y-101053501D01*
X89845267Y-101130060D01*
X89844721Y-101130936D01*
X89809873Y-101178285D01*
X89769148Y-101213241D01*
X89716075Y-101237825D01*
X89644186Y-101254062D01*
X89547008Y-101263975D01*
X89418072Y-101269586D01*
X89399702Y-101270077D01*
X89122713Y-101277141D01*
X89091972Y-101217695D01*
X89071198Y-101174681D01*
X89061354Y-101148710D01*
X89061231Y-101147509D01*
X89079394Y-101143014D01*
X89128388Y-101139444D01*
X89199969Y-101137248D01*
X89257932Y-101136769D01*
X89351830Y-101136758D01*
X89410797Y-101132466D01*
X89438921Y-101117503D01*
X89440294Y-101085482D01*
X89419002Y-101030014D01*
X89379864Y-100946269D01*
X89347357Y-100884689D01*
X89319155Y-100853017D01*
X89288418Y-100843706D01*
X89286896Y-100843692D01*
X89233946Y-100859057D01*
X89205340Y-100904547D01*
X89201197Y-100974166D01*
X89201916Y-101024313D01*
X89187473Y-101050754D01*
X89152782Y-101067243D01*
X89108584Y-101076733D01*
X89083507Y-101063057D01*
X89079918Y-101057907D01*
X89065504Y-101009425D01*
X89063463Y-100941531D01*
X89073017Y-100871612D01*
X89090478Y-100822068D01*
X89148636Y-100753570D01*
X89229592Y-100714634D01*
X89292840Y-100706923D01*
X89349889Y-100712807D01*
X89396458Y-100734101D01*
X89437819Y-100776265D01*
X89479245Y-100844759D01*
X89526007Y-100945044D01*
X89528650Y-100951154D01*
X89570383Y-101041490D01*
X89604609Y-101097235D01*
X89635365Y-101121129D01*
X89666689Y-101115913D01*
X89702617Y-101084328D01*
X89710884Y-101074883D01*
X89742942Y-101011617D01*
X89741593Y-100946064D01*
X89710162Y-100888972D01*
X89651976Y-100851093D01*
X89640554Y-100847574D01*
X89585163Y-100813300D01*
X89558482Y-100769809D01*
X89532040Y-100706923D01*
X89600452Y-100706923D01*
X89699890Y-100726052D01*
G37*
X89062656Y-97347981D02*
X89208198Y-97349700D01*
X89251731Y-97350237D01*
X89401795Y-97352172D01*
X89499958Y-97353904D01*
X89517940Y-97354222D01*
X89605321Y-97356873D01*
X89669095Y-97360606D01*
X89714418Y-97365907D01*
X89746445Y-97373258D01*
X89770332Y-97383143D01*
X89791236Y-97396046D01*
X89799102Y-97401579D01*
X89873405Y-97474969D01*
X89915533Y-97567760D01*
X89927278Y-97675096D01*
X89915495Y-97768886D01*
X89878273Y-97843539D01*
X89809739Y-97909431D01*
X89784352Y-97927577D01*
X89751134Y-97947345D01*
X89715055Y-97960172D01*
X89666902Y-97967510D01*
X89597464Y-97970813D01*
X89505794Y-97971538D01*
X89380170Y-97968263D01*
X89285846Y-97956877D01*
X89215477Y-97935041D01*
X89161714Y-97900419D01*
X89117212Y-97850670D01*
X89114577Y-97847014D01*
X89087623Y-97797985D01*
X89074288Y-97738945D01*
X89072063Y-97688142D01*
X89242372Y-97688142D01*
X89274951Y-97735867D01*
X89276154Y-97737077D01*
X89301332Y-97756494D01*
X89335553Y-97768307D01*
X89388252Y-97774265D01*
X89468869Y-97776120D01*
X89486729Y-97776154D01*
X89597825Y-97771670D01*
X89674839Y-97757074D01*
X89721853Y-97730650D01*
X89742950Y-97690683D01*
X89745077Y-97667584D01*
X89735100Y-97612762D01*
X89702248Y-97575158D01*
X89642143Y-97552523D01*
X89550402Y-97542606D01*
X89499958Y-97541692D01*
X89416636Y-97542748D01*
X89362120Y-97547438D01*
X89326163Y-97558051D01*
X89298518Y-97576872D01*
X89285035Y-97589650D01*
X89245583Y-97641890D01*
X89242372Y-97688142D01*
X89072063Y-97688142D01*
X89071000Y-97663859D01*
X89071000Y-97541795D01*
X88952503Y-97541744D01*
X88886508Y-97540608D01*
X88847798Y-97533686D01*
X88824581Y-97515598D01*
X88805067Y-97480962D01*
X88801080Y-97472645D01*
X88782397Y-97433720D01*
X88770597Y-97403583D01*
X88769578Y-97381174D01*
X88783239Y-97365433D01*
X88815478Y-97355302D01*
X88870196Y-97349723D01*
X88951289Y-97347635D01*
X89062656Y-97347981D01*
G36*
X89062656Y-97347981D02*
G01*
X89208198Y-97349700D01*
X89251731Y-97350237D01*
X89401795Y-97352172D01*
X89499958Y-97353904D01*
X89517940Y-97354222D01*
X89605321Y-97356873D01*
X89669095Y-97360606D01*
X89714418Y-97365907D01*
X89746445Y-97373258D01*
X89770332Y-97383143D01*
X89791236Y-97396046D01*
X89799102Y-97401579D01*
X89873405Y-97474969D01*
X89915533Y-97567760D01*
X89927278Y-97675096D01*
X89915495Y-97768886D01*
X89878273Y-97843539D01*
X89809739Y-97909431D01*
X89784352Y-97927577D01*
X89751134Y-97947345D01*
X89715055Y-97960172D01*
X89666902Y-97967510D01*
X89597464Y-97970813D01*
X89505794Y-97971538D01*
X89380170Y-97968263D01*
X89285846Y-97956877D01*
X89215477Y-97935041D01*
X89161714Y-97900419D01*
X89117212Y-97850670D01*
X89114577Y-97847014D01*
X89087623Y-97797985D01*
X89074288Y-97738945D01*
X89072063Y-97688142D01*
X89242372Y-97688142D01*
X89274951Y-97735867D01*
X89276154Y-97737077D01*
X89301332Y-97756494D01*
X89335553Y-97768307D01*
X89388252Y-97774265D01*
X89468869Y-97776120D01*
X89486729Y-97776154D01*
X89597825Y-97771670D01*
X89674839Y-97757074D01*
X89721853Y-97730650D01*
X89742950Y-97690683D01*
X89745077Y-97667584D01*
X89735100Y-97612762D01*
X89702248Y-97575158D01*
X89642143Y-97552523D01*
X89550402Y-97542606D01*
X89499958Y-97541692D01*
X89416636Y-97542748D01*
X89362120Y-97547438D01*
X89326163Y-97558051D01*
X89298518Y-97576872D01*
X89285035Y-97589650D01*
X89245583Y-97641890D01*
X89242372Y-97688142D01*
X89072063Y-97688142D01*
X89071000Y-97663859D01*
X89071000Y-97541795D01*
X88952503Y-97541744D01*
X88886508Y-97540608D01*
X88847798Y-97533686D01*
X88824581Y-97515598D01*
X88805067Y-97480962D01*
X88801080Y-97472645D01*
X88782397Y-97433720D01*
X88770597Y-97403583D01*
X88769578Y-97381174D01*
X88783239Y-97365433D01*
X88815478Y-97355302D01*
X88870196Y-97349723D01*
X88951289Y-97347635D01*
X89062656Y-97347981D01*
G37*
X89395833Y-103546424D02*
X89442231Y-103588047D01*
X89468207Y-103629604D01*
X89501093Y-103694922D01*
X89534443Y-103771038D01*
X89539539Y-103783726D01*
X89576435Y-103867333D01*
X89608954Y-103915530D01*
X89641282Y-103931030D01*
X89677606Y-103916550D01*
X89706000Y-103891692D01*
X89740961Y-103832939D01*
X89743583Y-103768293D01*
X89716642Y-103709008D01*
X89662912Y-103666339D01*
X89649050Y-103660739D01*
X89598064Y-103628133D01*
X89560213Y-103580530D01*
X89529150Y-103520461D01*
X89617232Y-103520461D01*
X89671049Y-103523997D01*
X89713466Y-103539156D01*
X89758721Y-103572768D01*
X89793580Y-103605035D01*
X89842938Y-103655209D01*
X89869453Y-103694193D01*
X89880089Y-103736064D01*
X89881846Y-103783460D01*
X89866472Y-103887333D01*
X89840883Y-103943590D01*
X89809876Y-103987747D01*
X89775205Y-104020101D01*
X89730480Y-104042438D01*
X89669308Y-104056546D01*
X89585299Y-104064211D01*
X89472060Y-104067220D01*
X89397491Y-104067538D01*
X89106580Y-104067538D01*
X89083905Y-104017773D01*
X89067333Y-103978576D01*
X89061231Y-103959157D01*
X89079390Y-103955442D01*
X89128352Y-103952495D01*
X89199847Y-103950691D01*
X89256615Y-103950308D01*
X89338629Y-103948661D01*
X89403691Y-103944222D01*
X89443533Y-103937740D01*
X89452000Y-103932590D01*
X89443354Y-103897977D01*
X89421177Y-103843640D01*
X89391114Y-103780722D01*
X89358808Y-103720368D01*
X89329902Y-103673721D01*
X89310039Y-103651926D01*
X89309825Y-103651839D01*
X89273065Y-103653714D01*
X89237974Y-103670525D01*
X89209472Y-103700039D01*
X89199939Y-103743116D01*
X89201050Y-103779932D01*
X89201867Y-103832074D01*
X89189651Y-103859444D01*
X89157376Y-103875882D01*
X89151290Y-103877955D01*
X89105261Y-103885081D01*
X89077313Y-103866024D01*
X89063993Y-103816353D01*
X89061530Y-103762697D01*
X89079790Y-103666142D01*
X89105869Y-103616159D01*
X89167132Y-103554429D01*
X89242330Y-103521690D01*
X89321789Y-103518753D01*
X89395833Y-103546424D01*
G36*
X89395833Y-103546424D02*
G01*
X89442231Y-103588047D01*
X89468207Y-103629604D01*
X89501093Y-103694922D01*
X89534443Y-103771038D01*
X89539539Y-103783726D01*
X89576435Y-103867333D01*
X89608954Y-103915530D01*
X89641282Y-103931030D01*
X89677606Y-103916550D01*
X89706000Y-103891692D01*
X89740961Y-103832939D01*
X89743583Y-103768293D01*
X89716642Y-103709008D01*
X89662912Y-103666339D01*
X89649050Y-103660739D01*
X89598064Y-103628133D01*
X89560213Y-103580530D01*
X89529150Y-103520461D01*
X89617232Y-103520461D01*
X89671049Y-103523997D01*
X89713466Y-103539156D01*
X89758721Y-103572768D01*
X89793580Y-103605035D01*
X89842938Y-103655209D01*
X89869453Y-103694193D01*
X89880089Y-103736064D01*
X89881846Y-103783460D01*
X89866472Y-103887333D01*
X89840883Y-103943590D01*
X89809876Y-103987747D01*
X89775205Y-104020101D01*
X89730480Y-104042438D01*
X89669308Y-104056546D01*
X89585299Y-104064211D01*
X89472060Y-104067220D01*
X89397491Y-104067538D01*
X89106580Y-104067538D01*
X89083905Y-104017773D01*
X89067333Y-103978576D01*
X89061231Y-103959157D01*
X89079390Y-103955442D01*
X89128352Y-103952495D01*
X89199847Y-103950691D01*
X89256615Y-103950308D01*
X89338629Y-103948661D01*
X89403691Y-103944222D01*
X89443533Y-103937740D01*
X89452000Y-103932590D01*
X89443354Y-103897977D01*
X89421177Y-103843640D01*
X89391114Y-103780722D01*
X89358808Y-103720368D01*
X89329902Y-103673721D01*
X89310039Y-103651926D01*
X89309825Y-103651839D01*
X89273065Y-103653714D01*
X89237974Y-103670525D01*
X89209472Y-103700039D01*
X89199939Y-103743116D01*
X89201050Y-103779932D01*
X89201867Y-103832074D01*
X89189651Y-103859444D01*
X89157376Y-103875882D01*
X89151290Y-103877955D01*
X89105261Y-103885081D01*
X89077313Y-103866024D01*
X89063993Y-103816353D01*
X89061530Y-103762697D01*
X89079790Y-103666142D01*
X89105869Y-103616159D01*
X89167132Y-103554429D01*
X89242330Y-103521690D01*
X89321789Y-103518753D01*
X89395833Y-103546424D01*
G37*
X93265754Y-97913153D02*
X93372021Y-97914099D01*
X93448987Y-97916141D01*
X93501540Y-97919662D01*
X93534567Y-97925043D01*
X93552955Y-97932666D01*
X93561592Y-97942912D01*
X93563193Y-97947115D01*
X93568873Y-97972470D01*
X93580205Y-98028484D01*
X93595821Y-98107964D01*
X93614353Y-98203712D01*
X93634431Y-98308533D01*
X93654688Y-98415232D01*
X93673754Y-98516613D01*
X93690261Y-98605479D01*
X93702841Y-98674637D01*
X93710125Y-98716889D01*
X93711384Y-98726290D01*
X93728237Y-98734807D01*
X93773130Y-98753660D01*
X93837570Y-98779324D01*
X93862808Y-98789123D01*
X93960314Y-98828648D01*
X94068041Y-98875192D01*
X94158828Y-98916877D01*
X94228247Y-98947550D01*
X94285290Y-98967956D01*
X94320223Y-98974768D01*
X94324905Y-98973682D01*
X94347009Y-98959285D01*
X94396169Y-98926412D01*
X94467152Y-98878590D01*
X94554722Y-98819348D01*
X94653643Y-98752215D01*
X94673170Y-98738941D01*
X94788860Y-98661046D01*
X94876956Y-98603787D01*
X94941514Y-98564881D01*
X94986589Y-98542044D01*
X95016237Y-98532994D01*
X95034515Y-98535448D01*
X95034631Y-98535511D01*
X95058639Y-98554827D01*
X95105053Y-98597551D01*
X95169063Y-98659051D01*
X95245855Y-98734698D01*
X95330618Y-98819861D01*
X95340078Y-98829465D01*
X95444011Y-98936790D01*
X95520325Y-99019615D01*
X95570429Y-99079605D01*
X95595730Y-99118423D01*
X95598996Y-99135520D01*
X95584750Y-99160473D01*
X95551844Y-99212255D01*
X95503792Y-99285520D01*
X95444110Y-99374920D01*
X95376312Y-99475111D01*
X95360361Y-99498501D01*
X95133580Y-99830593D01*
X95201647Y-99980565D01*
X95241315Y-100071770D01*
X95281209Y-100169669D01*
X95313017Y-100253831D01*
X95314326Y-100257538D01*
X95338424Y-100323369D01*
X95358800Y-100374116D01*
X95371064Y-100398842D01*
X95371099Y-100398884D01*
X95393266Y-100406729D01*
X95447783Y-100420066D01*
X95528520Y-100437570D01*
X95629350Y-100457917D01*
X95744144Y-100479782D01*
X95753822Y-100481571D01*
X95872096Y-100503504D01*
X95979458Y-100523640D01*
X96069083Y-100540680D01*
X96134149Y-100553328D01*
X96167832Y-100560284D01*
X96168346Y-100560406D01*
X96182675Y-100564639D01*
X96193493Y-100572871D01*
X96201294Y-100590033D01*
X96206571Y-100621058D01*
X96209818Y-100670878D01*
X96211528Y-100744424D01*
X96212193Y-100846629D01*
X96212307Y-100982425D01*
X96212308Y-101000000D01*
X96212224Y-101139878D01*
X96211645Y-101245612D01*
X96210078Y-101322132D01*
X96207028Y-101374372D01*
X96202004Y-101407263D01*
X96194511Y-101425737D01*
X96184056Y-101434727D01*
X96170147Y-101439163D01*
X96168346Y-101439594D01*
X96135855Y-101446333D01*
X96071748Y-101458808D01*
X95982849Y-101475719D01*
X95875981Y-101495771D01*
X95757967Y-101517664D01*
X95753822Y-101518429D01*
X95638169Y-101540359D01*
X95535986Y-101560877D01*
X95453402Y-101578659D01*
X95396544Y-101592381D01*
X95371542Y-101600718D01*
X95371099Y-101601116D01*
X95358890Y-101625677D01*
X95338544Y-101676315D01*
X95314455Y-101742095D01*
X95314326Y-101742461D01*
X95283182Y-101825317D01*
X95243509Y-101923000D01*
X95203619Y-102015077D01*
X95201647Y-102019434D01*
X95133580Y-102169407D01*
X95360361Y-102501498D01*
X95429496Y-102603374D01*
X95491303Y-102695657D01*
X95542267Y-102773003D01*
X95578873Y-102830064D01*
X95597606Y-102861495D01*
X95598996Y-102864479D01*
X95592810Y-102887321D01*
X95562965Y-102929982D01*
X95508053Y-102994128D01*
X95426666Y-103081421D01*
X95340078Y-103170535D01*
X95254753Y-103256441D01*
X95176892Y-103333327D01*
X95111303Y-103396564D01*
X95062795Y-103441523D01*
X95036175Y-103463576D01*
X95034805Y-103464396D01*
X95016537Y-103466834D01*
X94986705Y-103457650D01*
X94941279Y-103434574D01*
X94876230Y-103395337D01*
X94787530Y-103337670D01*
X94673343Y-103260795D01*
X94572838Y-103192570D01*
X94482697Y-103131582D01*
X94408151Y-103081356D01*
X94354435Y-103045416D01*
X94326782Y-103027287D01*
X94324905Y-103026146D01*
X94298410Y-103028359D01*
X94246914Y-103045138D01*
X94180149Y-103073142D01*
X94158828Y-103083122D01*
X94063841Y-103126672D01*
X93956063Y-103173134D01*
X93862808Y-103210877D01*
X93793594Y-103238073D01*
X93740994Y-103259675D01*
X93713503Y-103272158D01*
X93711384Y-103273709D01*
X93707876Y-103296668D01*
X93698262Y-103350786D01*
X93683911Y-103428868D01*
X93666193Y-103523719D01*
X93646475Y-103628143D01*
X93626126Y-103734944D01*
X93606514Y-103836926D01*
X93589009Y-103926894D01*
X93574978Y-103997653D01*
X93565791Y-104042006D01*
X93563193Y-104052885D01*
X93556782Y-104064122D01*
X93542303Y-104072605D01*
X93514867Y-104078714D01*
X93469589Y-104082832D01*
X93401580Y-104085341D01*
X93305953Y-104086621D01*
X93177820Y-104087054D01*
X93125299Y-104087077D01*
X92698155Y-104087077D01*
X92677909Y-103984500D01*
X92666930Y-103927431D01*
X92650905Y-103842269D01*
X92631767Y-103739372D01*
X92611449Y-103629096D01*
X92605868Y-103598615D01*
X92586083Y-103496855D01*
X92566627Y-103408205D01*
X92549303Y-103340108D01*
X92535912Y-103300004D01*
X92531921Y-103293323D01*
X92503658Y-103276919D01*
X92448891Y-103253399D01*
X92378412Y-103227316D01*
X92363231Y-103222142D01*
X92269104Y-103187956D01*
X92162899Y-103145523D01*
X92067527Y-103103997D01*
X92067084Y-103103792D01*
X91917475Y-103034640D01*
X91248383Y-103489512D01*
X90955884Y-103197500D01*
X90868830Y-103109180D01*
X90792091Y-103028625D01*
X90729763Y-102960360D01*
X90685944Y-102908908D01*
X90664730Y-102878794D01*
X90663384Y-102874474D01*
X90673984Y-102849111D01*
X90703453Y-102797358D01*
X90748295Y-102724868D01*
X90805016Y-102637294D01*
X90868538Y-102542612D01*
X90933332Y-102446516D01*
X90989713Y-102360837D01*
X91034212Y-102291016D01*
X91063361Y-102242494D01*
X91073692Y-102220782D01*
X91064950Y-102194293D01*
X91041913Y-102144062D01*
X91009369Y-102080451D01*
X91005751Y-102073708D01*
X90962790Y-101988046D01*
X90941721Y-101929306D01*
X90941497Y-101892772D01*
X90961072Y-101873731D01*
X90961346Y-101873620D01*
X90984528Y-101864102D01*
X91039559Y-101841403D01*
X91122178Y-101807282D01*
X91228128Y-101763500D01*
X91353148Y-101711816D01*
X91492980Y-101653992D01*
X91628363Y-101597991D01*
X91777766Y-101536447D01*
X91916168Y-101479939D01*
X92039327Y-101430161D01*
X92142998Y-101388806D01*
X92222941Y-101357568D01*
X92274912Y-101338141D01*
X92294308Y-101332154D01*
X92316557Y-101347168D01*
X92352018Y-101386439D01*
X92391113Y-101438807D01*
X92514755Y-101587941D01*
X92656478Y-101704511D01*
X92813296Y-101787118D01*
X92982225Y-101834366D01*
X93160278Y-101844857D01*
X93242461Y-101837231D01*
X93412969Y-101795682D01*
X93563541Y-101724123D01*
X93692691Y-101626995D01*
X93798936Y-101508734D01*
X93880790Y-101373780D01*
X93936768Y-101226571D01*
X93965385Y-101071544D01*
X93965156Y-100913139D01*
X93934595Y-100755794D01*
X93872218Y-100603946D01*
X93776540Y-100462035D01*
X93722428Y-100402803D01*
X93583480Y-100289203D01*
X93431639Y-100210106D01*
X93271333Y-100164986D01*
X93106988Y-100153316D01*
X92943029Y-100174569D01*
X92783882Y-100228220D01*
X92633975Y-100313740D01*
X92497733Y-100430605D01*
X92391113Y-100561193D01*
X92350358Y-100615588D01*
X92315282Y-100654014D01*
X92294274Y-100667846D01*
X92271365Y-100660603D01*
X92216635Y-100640005D01*
X92134328Y-100607746D01*
X92028685Y-100565521D01*
X91903950Y-100515023D01*
X91764364Y-100457948D01*
X91628330Y-100401854D01*
X91478799Y-100339967D01*
X91340233Y-100282644D01*
X91216893Y-100231644D01*
X91113036Y-100188727D01*
X91032920Y-100155653D01*
X90980805Y-100134181D01*
X90961346Y-100126225D01*
X90941577Y-100107429D01*
X90941635Y-100071074D01*
X90962559Y-100012479D01*
X91005387Y-99926968D01*
X91005751Y-99926292D01*
X91038988Y-99861907D01*
X91063198Y-99809861D01*
X91073596Y-99780512D01*
X91073692Y-99779217D01*
X91063145Y-99757124D01*
X91033816Y-99708348D01*
X90989173Y-99638331D01*
X90932686Y-99552514D01*
X90868538Y-99457388D01*
X90803589Y-99360540D01*
X90747104Y-99273253D01*
X90702579Y-99201181D01*
X90673510Y-99149977D01*
X90663384Y-99125526D01*
X90676693Y-99103010D01*
X90713888Y-99057742D01*
X90770872Y-98994244D01*
X90843551Y-98917039D01*
X90927829Y-98830651D01*
X90955984Y-98802399D01*
X91248584Y-98510287D01*
X91574896Y-98732631D01*
X91675103Y-98800202D01*
X91765037Y-98859507D01*
X91839490Y-98907217D01*
X91893249Y-98940007D01*
X91921106Y-98954548D01*
X91923088Y-98954974D01*
X91949345Y-98947308D01*
X92002163Y-98926689D01*
X92072690Y-98896685D01*
X92119907Y-98875625D01*
X92210306Y-98836248D01*
X92301634Y-98799165D01*
X92378800Y-98770415D01*
X92402308Y-98762605D01*
X92465084Y-98740417D01*
X92513589Y-98718727D01*
X92531921Y-98706813D01*
X92543141Y-98680523D01*
X92559046Y-98623142D01*
X92577833Y-98542118D01*
X92597701Y-98444895D01*
X92605868Y-98401385D01*
X92626171Y-98290896D01*
X92645830Y-98184916D01*
X92662912Y-98093801D01*
X92675482Y-98027908D01*
X92677909Y-98015500D01*
X92698155Y-97912923D01*
X93125299Y-97912923D01*
X93265754Y-97913153D01*
G36*
X93265754Y-97913153D02*
G01*
X93372021Y-97914099D01*
X93448987Y-97916141D01*
X93501540Y-97919662D01*
X93534567Y-97925043D01*
X93552955Y-97932666D01*
X93561592Y-97942912D01*
X93563193Y-97947115D01*
X93568873Y-97972470D01*
X93580205Y-98028484D01*
X93595821Y-98107964D01*
X93614353Y-98203712D01*
X93634431Y-98308533D01*
X93654688Y-98415232D01*
X93673754Y-98516613D01*
X93690261Y-98605479D01*
X93702841Y-98674637D01*
X93710125Y-98716889D01*
X93711384Y-98726290D01*
X93728237Y-98734807D01*
X93773130Y-98753660D01*
X93837570Y-98779324D01*
X93862808Y-98789123D01*
X93960314Y-98828648D01*
X94068041Y-98875192D01*
X94158828Y-98916877D01*
X94228247Y-98947550D01*
X94285290Y-98967956D01*
X94320223Y-98974768D01*
X94324905Y-98973682D01*
X94347009Y-98959285D01*
X94396169Y-98926412D01*
X94467152Y-98878590D01*
X94554722Y-98819348D01*
X94653643Y-98752215D01*
X94673170Y-98738941D01*
X94788860Y-98661046D01*
X94876956Y-98603787D01*
X94941514Y-98564881D01*
X94986589Y-98542044D01*
X95016237Y-98532994D01*
X95034515Y-98535448D01*
X95034631Y-98535511D01*
X95058639Y-98554827D01*
X95105053Y-98597551D01*
X95169063Y-98659051D01*
X95245855Y-98734698D01*
X95330618Y-98819861D01*
X95340078Y-98829465D01*
X95444011Y-98936790D01*
X95520325Y-99019615D01*
X95570429Y-99079605D01*
X95595730Y-99118423D01*
X95598996Y-99135520D01*
X95584750Y-99160473D01*
X95551844Y-99212255D01*
X95503792Y-99285520D01*
X95444110Y-99374920D01*
X95376312Y-99475111D01*
X95360361Y-99498501D01*
X95133580Y-99830593D01*
X95201647Y-99980565D01*
X95241315Y-100071770D01*
X95281209Y-100169669D01*
X95313017Y-100253831D01*
X95314326Y-100257538D01*
X95338424Y-100323369D01*
X95358800Y-100374116D01*
X95371064Y-100398842D01*
X95371099Y-100398884D01*
X95393266Y-100406729D01*
X95447783Y-100420066D01*
X95528520Y-100437570D01*
X95629350Y-100457917D01*
X95744144Y-100479782D01*
X95753822Y-100481571D01*
X95872096Y-100503504D01*
X95979458Y-100523640D01*
X96069083Y-100540680D01*
X96134149Y-100553328D01*
X96167832Y-100560284D01*
X96168346Y-100560406D01*
X96182675Y-100564639D01*
X96193493Y-100572871D01*
X96201294Y-100590033D01*
X96206571Y-100621058D01*
X96209818Y-100670878D01*
X96211528Y-100744424D01*
X96212193Y-100846629D01*
X96212307Y-100982425D01*
X96212308Y-101000000D01*
X96212224Y-101139878D01*
X96211645Y-101245612D01*
X96210078Y-101322132D01*
X96207028Y-101374372D01*
X96202004Y-101407263D01*
X96194511Y-101425737D01*
X96184056Y-101434727D01*
X96170147Y-101439163D01*
X96168346Y-101439594D01*
X96135855Y-101446333D01*
X96071748Y-101458808D01*
X95982849Y-101475719D01*
X95875981Y-101495771D01*
X95757967Y-101517664D01*
X95753822Y-101518429D01*
X95638169Y-101540359D01*
X95535986Y-101560877D01*
X95453402Y-101578659D01*
X95396544Y-101592381D01*
X95371542Y-101600718D01*
X95371099Y-101601116D01*
X95358890Y-101625677D01*
X95338544Y-101676315D01*
X95314455Y-101742095D01*
X95314326Y-101742461D01*
X95283182Y-101825317D01*
X95243509Y-101923000D01*
X95203619Y-102015077D01*
X95201647Y-102019434D01*
X95133580Y-102169407D01*
X95360361Y-102501498D01*
X95429496Y-102603374D01*
X95491303Y-102695657D01*
X95542267Y-102773003D01*
X95578873Y-102830064D01*
X95597606Y-102861495D01*
X95598996Y-102864479D01*
X95592810Y-102887321D01*
X95562965Y-102929982D01*
X95508053Y-102994128D01*
X95426666Y-103081421D01*
X95340078Y-103170535D01*
X95254753Y-103256441D01*
X95176892Y-103333327D01*
X95111303Y-103396564D01*
X95062795Y-103441523D01*
X95036175Y-103463576D01*
X95034805Y-103464396D01*
X95016537Y-103466834D01*
X94986705Y-103457650D01*
X94941279Y-103434574D01*
X94876230Y-103395337D01*
X94787530Y-103337670D01*
X94673343Y-103260795D01*
X94572838Y-103192570D01*
X94482697Y-103131582D01*
X94408151Y-103081356D01*
X94354435Y-103045416D01*
X94326782Y-103027287D01*
X94324905Y-103026146D01*
X94298410Y-103028359D01*
X94246914Y-103045138D01*
X94180149Y-103073142D01*
X94158828Y-103083122D01*
X94063841Y-103126672D01*
X93956063Y-103173134D01*
X93862808Y-103210877D01*
X93793594Y-103238073D01*
X93740994Y-103259675D01*
X93713503Y-103272158D01*
X93711384Y-103273709D01*
X93707876Y-103296668D01*
X93698262Y-103350786D01*
X93683911Y-103428868D01*
X93666193Y-103523719D01*
X93646475Y-103628143D01*
X93626126Y-103734944D01*
X93606514Y-103836926D01*
X93589009Y-103926894D01*
X93574978Y-103997653D01*
X93565791Y-104042006D01*
X93563193Y-104052885D01*
X93556782Y-104064122D01*
X93542303Y-104072605D01*
X93514867Y-104078714D01*
X93469589Y-104082832D01*
X93401580Y-104085341D01*
X93305953Y-104086621D01*
X93177820Y-104087054D01*
X93125299Y-104087077D01*
X92698155Y-104087077D01*
X92677909Y-103984500D01*
X92666930Y-103927431D01*
X92650905Y-103842269D01*
X92631767Y-103739372D01*
X92611449Y-103629096D01*
X92605868Y-103598615D01*
X92586083Y-103496855D01*
X92566627Y-103408205D01*
X92549303Y-103340108D01*
X92535912Y-103300004D01*
X92531921Y-103293323D01*
X92503658Y-103276919D01*
X92448891Y-103253399D01*
X92378412Y-103227316D01*
X92363231Y-103222142D01*
X92269104Y-103187956D01*
X92162899Y-103145523D01*
X92067527Y-103103997D01*
X92067084Y-103103792D01*
X91917475Y-103034640D01*
X91248383Y-103489512D01*
X90955884Y-103197500D01*
X90868830Y-103109180D01*
X90792091Y-103028625D01*
X90729763Y-102960360D01*
X90685944Y-102908908D01*
X90664730Y-102878794D01*
X90663384Y-102874474D01*
X90673984Y-102849111D01*
X90703453Y-102797358D01*
X90748295Y-102724868D01*
X90805016Y-102637294D01*
X90868538Y-102542612D01*
X90933332Y-102446516D01*
X90989713Y-102360837D01*
X91034212Y-102291016D01*
X91063361Y-102242494D01*
X91073692Y-102220782D01*
X91064950Y-102194293D01*
X91041913Y-102144062D01*
X91009369Y-102080451D01*
X91005751Y-102073708D01*
X90962790Y-101988046D01*
X90941721Y-101929306D01*
X90941497Y-101892772D01*
X90961072Y-101873731D01*
X90961346Y-101873620D01*
X90984528Y-101864102D01*
X91039559Y-101841403D01*
X91122178Y-101807282D01*
X91228128Y-101763500D01*
X91353148Y-101711816D01*
X91492980Y-101653992D01*
X91628363Y-101597991D01*
X91777766Y-101536447D01*
X91916168Y-101479939D01*
X92039327Y-101430161D01*
X92142998Y-101388806D01*
X92222941Y-101357568D01*
X92274912Y-101338141D01*
X92294308Y-101332154D01*
X92316557Y-101347168D01*
X92352018Y-101386439D01*
X92391113Y-101438807D01*
X92514755Y-101587941D01*
X92656478Y-101704511D01*
X92813296Y-101787118D01*
X92982225Y-101834366D01*
X93160278Y-101844857D01*
X93242461Y-101837231D01*
X93412969Y-101795682D01*
X93563541Y-101724123D01*
X93692691Y-101626995D01*
X93798936Y-101508734D01*
X93880790Y-101373780D01*
X93936768Y-101226571D01*
X93965385Y-101071544D01*
X93965156Y-100913139D01*
X93934595Y-100755794D01*
X93872218Y-100603946D01*
X93776540Y-100462035D01*
X93722428Y-100402803D01*
X93583480Y-100289203D01*
X93431639Y-100210106D01*
X93271333Y-100164986D01*
X93106988Y-100153316D01*
X92943029Y-100174569D01*
X92783882Y-100228220D01*
X92633975Y-100313740D01*
X92497733Y-100430605D01*
X92391113Y-100561193D01*
X92350358Y-100615588D01*
X92315282Y-100654014D01*
X92294274Y-100667846D01*
X92271365Y-100660603D01*
X92216635Y-100640005D01*
X92134328Y-100607746D01*
X92028685Y-100565521D01*
X91903950Y-100515023D01*
X91764364Y-100457948D01*
X91628330Y-100401854D01*
X91478799Y-100339967D01*
X91340233Y-100282644D01*
X91216893Y-100231644D01*
X91113036Y-100188727D01*
X91032920Y-100155653D01*
X90980805Y-100134181D01*
X90961346Y-100126225D01*
X90941577Y-100107429D01*
X90941635Y-100071074D01*
X90962559Y-100012479D01*
X91005387Y-99926968D01*
X91005751Y-99926292D01*
X91038988Y-99861907D01*
X91063198Y-99809861D01*
X91073596Y-99780512D01*
X91073692Y-99779217D01*
X91063145Y-99757124D01*
X91033816Y-99708348D01*
X90989173Y-99638331D01*
X90932686Y-99552514D01*
X90868538Y-99457388D01*
X90803589Y-99360540D01*
X90747104Y-99273253D01*
X90702579Y-99201181D01*
X90673510Y-99149977D01*
X90663384Y-99125526D01*
X90676693Y-99103010D01*
X90713888Y-99057742D01*
X90770872Y-98994244D01*
X90843551Y-98917039D01*
X90927829Y-98830651D01*
X90955984Y-98802399D01*
X91248584Y-98510287D01*
X91574896Y-98732631D01*
X91675103Y-98800202D01*
X91765037Y-98859507D01*
X91839490Y-98907217D01*
X91893249Y-98940007D01*
X91921106Y-98954548D01*
X91923088Y-98954974D01*
X91949345Y-98947308D01*
X92002163Y-98926689D01*
X92072690Y-98896685D01*
X92119907Y-98875625D01*
X92210306Y-98836248D01*
X92301634Y-98799165D01*
X92378800Y-98770415D01*
X92402308Y-98762605D01*
X92465084Y-98740417D01*
X92513589Y-98718727D01*
X92531921Y-98706813D01*
X92543141Y-98680523D01*
X92559046Y-98623142D01*
X92577833Y-98542118D01*
X92597701Y-98444895D01*
X92605868Y-98401385D01*
X92626171Y-98290896D01*
X92645830Y-98184916D01*
X92662912Y-98093801D01*
X92675482Y-98027908D01*
X92677909Y-98015500D01*
X92698155Y-97912923D01*
X93125299Y-97912923D01*
X93265754Y-97913153D01*
G37*
D11*
%TO.C,J3*%
X155700000Y-89800000D02*
G75*
G02*
X150600000Y-89800000I-2550000J0D01*
G01*
X150600000Y-89800000D02*
G75*
G02*
X155700000Y-89800000I2550000J0D01*
G01*
X154050000Y-89800000D02*
G75*
G02*
X152250000Y-89800000I-900000J0D01*
G01*
X152250000Y-89800000D02*
G75*
G02*
X154050000Y-89800000I900000J0D01*
G01*
X157460000Y-112170000D02*
X157460000Y-89070000D01*
X157460000Y-91350000D02*
X155200000Y-91350000D01*
X157460000Y-89070000D02*
X155600000Y-89070000D01*
X150700000Y-89070000D02*
X101760000Y-89070000D01*
X145530000Y-88050000D02*
X148070000Y-88050000D01*
X101760000Y-112170000D02*
X157460000Y-112170000D01*
X101760000Y-89070000D02*
X101760000Y-112170000D01*
%TO.C,J5*%
X97420000Y-96740000D02*
X97420000Y-94090000D01*
X100180000Y-94090000D02*
X97420000Y-94090000D01*
X100180000Y-96740000D02*
X97420000Y-96740000D01*
X100180000Y-96740000D02*
X100180000Y-94090000D01*
X100180000Y-98010000D02*
X100180000Y-99390000D01*
X100180000Y-99390000D02*
X98800000Y-99390000D01*
%TO.C,R4*%
X95370000Y-108820000D02*
X95370000Y-109770000D01*
X95370000Y-114560000D02*
X95370000Y-113610000D01*
X96290000Y-109770000D02*
X94450000Y-109770000D01*
X94450000Y-113610000D01*
X96290000Y-113610000D01*
X96290000Y-109770000D01*
%TO.C,J11*%
X101560000Y-117120000D02*
X127180000Y-117120000D01*
X101560000Y-119770000D02*
X101560000Y-117120000D01*
X101560000Y-122420000D02*
X101560000Y-121040000D01*
X102940000Y-122420000D02*
X101560000Y-122420000D01*
X104210000Y-119770000D02*
X101560000Y-119770000D01*
X104210000Y-122420000D02*
X104210000Y-119770000D01*
X104210000Y-122420000D02*
X127180000Y-122420000D01*
X127180000Y-122420000D02*
X127180000Y-117120000D01*
%TO.C,J6*%
X107140000Y-85120000D02*
X107140000Y-87880000D01*
X145350000Y-85120000D02*
X107140000Y-85120000D01*
X145350000Y-85120000D02*
X145350000Y-87880000D01*
X145350000Y-87880000D02*
X107140000Y-87880000D01*
X146620000Y-85120000D02*
X148000000Y-85120000D01*
X148000000Y-85120000D02*
X148000000Y-86500000D01*
%TO.C,J7*%
X97420000Y-103965000D02*
X97420000Y-101315000D01*
X100180000Y-101315000D02*
X97420000Y-101315000D01*
X100180000Y-103965000D02*
X97420000Y-103965000D01*
X100180000Y-103965000D02*
X100180000Y-101315000D01*
X100180000Y-105235000D02*
X100180000Y-106615000D01*
X100180000Y-106615000D02*
X98800000Y-106615000D01*
%TO.C,J10*%
X101560000Y-78620000D02*
X127180000Y-78620000D01*
X101560000Y-81270000D02*
X101560000Y-78620000D01*
X101560000Y-83920000D02*
X101560000Y-82540000D01*
X102940000Y-83920000D02*
X101560000Y-83920000D01*
X104210000Y-81270000D02*
X101560000Y-81270000D01*
X104210000Y-83920000D02*
X104210000Y-81270000D01*
X104210000Y-83920000D02*
X127180000Y-83920000D01*
X127180000Y-83920000D02*
X127180000Y-78620000D01*
%TO.C,R3*%
X93120000Y-108760000D02*
X93120000Y-109710000D01*
X93120000Y-114500000D02*
X93120000Y-113550000D01*
X94040000Y-109710000D02*
X92200000Y-109710000D01*
X92200000Y-113550000D01*
X94040000Y-113550000D01*
X94040000Y-109710000D01*
%TO.C,J8*%
X97420000Y-111505000D02*
X97420000Y-108855000D01*
X100180000Y-108855000D02*
X97420000Y-108855000D01*
X100180000Y-111505000D02*
X97420000Y-111505000D01*
X100180000Y-111505000D02*
X100180000Y-108855000D01*
X100180000Y-112775000D02*
X100180000Y-114155000D01*
X100180000Y-114155000D02*
X98800000Y-114155000D01*
%TO.C,R2*%
X92500000Y-86630000D02*
X92500000Y-87580000D01*
X92500000Y-92370000D02*
X92500000Y-91420000D01*
X91580000Y-91420000D02*
X93420000Y-91420000D01*
X93420000Y-87580000D01*
X91580000Y-87580000D01*
X91580000Y-91420000D01*
%TO.C,R1*%
X94870000Y-86630000D02*
X94870000Y-87580000D01*
X94870000Y-92370000D02*
X94870000Y-91420000D01*
X93950000Y-91420000D02*
X95790000Y-91420000D01*
X95790000Y-87580000D01*
X93950000Y-87580000D01*
X93950000Y-91420000D01*
%TO.C,J9*%
X107180000Y-115880000D02*
X107180000Y-114500000D01*
X108560000Y-115880000D02*
X107180000Y-115880000D01*
X109830000Y-113120000D02*
X148040000Y-113120000D01*
X109830000Y-115880000D02*
X109830000Y-113120000D01*
X109830000Y-115880000D02*
X148040000Y-115880000D01*
X148040000Y-115880000D02*
X148040000Y-113120000D01*
%TO.C,J4*%
X97420000Y-89240000D02*
X97420000Y-86590000D01*
X100180000Y-86590000D02*
X97420000Y-86590000D01*
X100180000Y-89240000D02*
X97420000Y-89240000D01*
X100180000Y-89240000D02*
X100180000Y-86590000D01*
X100180000Y-90510000D02*
X100180000Y-91890000D01*
X100180000Y-91890000D02*
X98800000Y-91890000D01*
D12*
%TO.C,J2*%
X128809000Y-120378700D02*
G75*
G02*
X128047000Y-120378700I-381000J0D01*
G01*
X128047000Y-120378700D02*
G75*
G02*
X128809000Y-120378700I381000J0D01*
G01*
%TO.C,J1*%
X128809000Y-82278700D02*
G75*
G02*
X128047000Y-82278700I-381000J0D01*
G01*
X128047000Y-82278700D02*
G75*
G02*
X128809000Y-82278700I381000J0D01*
G01*
%TD*%
%LPC*%
D13*
%TO.C,J3*%
X146800000Y-108240000D03*
X144260000Y-108240000D03*
X141720000Y-108240000D03*
X139180000Y-108240000D03*
X136640000Y-108240000D03*
X134100000Y-108240000D03*
X131560000Y-108240000D03*
X129020000Y-108240000D03*
X126480000Y-108240000D03*
X123940000Y-108240000D03*
X121400000Y-108240000D03*
X118860000Y-108240000D03*
X116320000Y-108240000D03*
X113780000Y-108240000D03*
X111240000Y-108240000D03*
X108700000Y-108240000D03*
X108700000Y-93000000D03*
X111240000Y-93000000D03*
X113780000Y-93000000D03*
X116320000Y-93000000D03*
X118860000Y-93000000D03*
X121400000Y-93000000D03*
X123940000Y-93000000D03*
X126480000Y-93000000D03*
X129020000Y-93000000D03*
X131560000Y-93000000D03*
X134100000Y-93000000D03*
X136640000Y-93000000D03*
X139180000Y-93000000D03*
X141720000Y-93000000D03*
X144260000Y-93000000D03*
D14*
X146800000Y-93000000D03*
%TD*%
D15*
%TO.C,J5*%
X98800000Y-98010000D03*
D16*
X98800000Y-95470000D03*
%TD*%
D17*
%TO.C,R4*%
X95370000Y-107880000D03*
X95370000Y-115500000D03*
%TD*%
D15*
%TO.C,J11*%
X102940000Y-121040000D03*
D16*
X102940000Y-118500000D03*
X105480000Y-121040000D03*
X105480000Y-118500000D03*
X108020000Y-121040000D03*
X108020000Y-118500000D03*
X110560000Y-121040000D03*
X110560000Y-118500000D03*
X113100000Y-121040000D03*
X113100000Y-118500000D03*
X115640000Y-121040000D03*
X115640000Y-118500000D03*
X118180000Y-121040000D03*
X118180000Y-118500000D03*
X120720000Y-121040000D03*
X120720000Y-118500000D03*
X123260000Y-121040000D03*
X123260000Y-118500000D03*
X125800000Y-121040000D03*
X125800000Y-118500000D03*
%TD*%
D15*
%TO.C,J6*%
X146620000Y-86500000D03*
D16*
X144080000Y-86500000D03*
X141540000Y-86500000D03*
X139000000Y-86500000D03*
X136460000Y-86500000D03*
X133920000Y-86500000D03*
X131380000Y-86500000D03*
X128840000Y-86500000D03*
X126300000Y-86500000D03*
X123760000Y-86500000D03*
X121220000Y-86500000D03*
X118680000Y-86500000D03*
X116140000Y-86500000D03*
X113600000Y-86500000D03*
X111060000Y-86500000D03*
X108520000Y-86500000D03*
%TD*%
D15*
%TO.C,J7*%
X98800000Y-105235000D03*
D16*
X98800000Y-102695000D03*
%TD*%
D15*
%TO.C,J10*%
X102940000Y-82540000D03*
D16*
X102940000Y-80000000D03*
X105480000Y-82540000D03*
X105480000Y-80000000D03*
X108020000Y-82540000D03*
X108020000Y-80000000D03*
X110560000Y-82540000D03*
X110560000Y-80000000D03*
X113100000Y-82540000D03*
X113100000Y-80000000D03*
X115640000Y-82540000D03*
X115640000Y-80000000D03*
X118180000Y-82540000D03*
X118180000Y-80000000D03*
X120720000Y-82540000D03*
X120720000Y-80000000D03*
X123260000Y-82540000D03*
X123260000Y-80000000D03*
X125800000Y-82540000D03*
X125800000Y-80000000D03*
%TD*%
D17*
%TO.C,R3*%
X93120000Y-107820000D03*
X93120000Y-115440000D03*
%TD*%
D15*
%TO.C,J8*%
X98800000Y-112775000D03*
D16*
X98800000Y-110235000D03*
%TD*%
D17*
%TO.C,R2*%
X92500000Y-93310000D03*
X92500000Y-85690000D03*
%TD*%
%TO.C,R1*%
X94870000Y-93310000D03*
X94870000Y-85690000D03*
%TD*%
D15*
%TO.C,J9*%
X108560000Y-114500000D03*
D16*
X111100000Y-114500000D03*
X113640000Y-114500000D03*
X116180000Y-114500000D03*
X118720000Y-114500000D03*
X121260000Y-114500000D03*
X123800000Y-114500000D03*
X126340000Y-114500000D03*
X128880000Y-114500000D03*
X131420000Y-114500000D03*
X133960000Y-114500000D03*
X136500000Y-114500000D03*
X139040000Y-114500000D03*
X141580000Y-114500000D03*
X144120000Y-114500000D03*
X146660000Y-114500000D03*
%TD*%
D15*
%TO.C,J4*%
X98800000Y-90510000D03*
D16*
X98800000Y-87970000D03*
%TD*%
D18*
%TO.C,J2*%
X133000000Y-120378700D03*
X133000000Y-117838700D03*
X135540000Y-120378700D03*
X135540000Y-117838700D03*
X138080000Y-120378700D03*
X138080000Y-117838700D03*
X140620000Y-120378700D03*
X140620000Y-117838700D03*
X143160000Y-120378700D03*
X143160000Y-117838700D03*
X145700000Y-120378700D03*
X145700000Y-117838700D03*
X148240000Y-120378700D03*
X148240000Y-117838700D03*
X150780000Y-120378700D03*
X150780000Y-117838700D03*
X153320000Y-120378700D03*
X153320000Y-117838700D03*
X155860000Y-120378700D03*
X155860000Y-117838700D03*
%TD*%
%TO.C,J1*%
X133000000Y-82278700D03*
X133000000Y-79738700D03*
X135540000Y-82278700D03*
X135540000Y-79738700D03*
X138080000Y-82278700D03*
X138080000Y-79738700D03*
X140620000Y-82278700D03*
X140620000Y-79738700D03*
X143160000Y-82278700D03*
X143160000Y-79738700D03*
X145700000Y-82278700D03*
X145700000Y-79738700D03*
X148240000Y-82278700D03*
X148240000Y-79738700D03*
X150780000Y-82278700D03*
X150780000Y-79738700D03*
X153320000Y-82278700D03*
X153320000Y-79738700D03*
X155860000Y-82278700D03*
X155860000Y-79738700D03*
%TD*%
%LPD*%
M02*
