%TF.GenerationSoftware,KiCad,Pcbnew,9.0.4*%
%TF.CreationDate,2025-10-21T11:21:35+02:00*%
%TF.ProjectId,GlasgowICAdapter,476c6173-676f-4774-9943-416461707465,rev?*%
%TF.SameCoordinates,Original*%
%TF.FileFunction,Legend,Bot*%
%TF.FilePolarity,Positive*%
%FSLAX46Y46*%
G04 Gerber Fmt 4.6, Leading zero omitted, Abs format (unit mm)*
G04 Created by KiCad (PCBNEW 9.0.4) date 2025-10-21 11:21:35*
%MOMM*%
%LPD*%
G01*
G04 APERTURE LIST*
%ADD10C,0.300000*%
%ADD11C,0.150000*%
%ADD12C,0.000000*%
%ADD13C,0.152400*%
%ADD14C,0.508000*%
%ADD15C,0.200000*%
%ADD16O,1.440000X2.000000*%
%ADD17R,1.440000X2.000000*%
%ADD18R,1.700000X1.700000*%
%ADD19C,1.700000*%
%ADD20C,1.400000*%
%ADD21C,1.371600*%
%ADD22R,0.700001X0.200000*%
%ADD23R,0.599999X0.200000*%
%ADD24R,0.200000X0.599999*%
G04 APERTURE END LIST*
D10*
X152749757Y-99178572D02*
X152678328Y-99035715D01*
X152678328Y-99035715D02*
X152678328Y-98821429D01*
X152678328Y-98821429D02*
X152749757Y-98607143D01*
X152749757Y-98607143D02*
X152892614Y-98464286D01*
X152892614Y-98464286D02*
X153035471Y-98392857D01*
X153035471Y-98392857D02*
X153321185Y-98321429D01*
X153321185Y-98321429D02*
X153535471Y-98321429D01*
X153535471Y-98321429D02*
X153821185Y-98392857D01*
X153821185Y-98392857D02*
X153964042Y-98464286D01*
X153964042Y-98464286D02*
X154106900Y-98607143D01*
X154106900Y-98607143D02*
X154178328Y-98821429D01*
X154178328Y-98821429D02*
X154178328Y-98964286D01*
X154178328Y-98964286D02*
X154106900Y-99178572D01*
X154106900Y-99178572D02*
X154035471Y-99250000D01*
X154035471Y-99250000D02*
X153535471Y-99250000D01*
X153535471Y-99250000D02*
X153535471Y-98964286D01*
X152678328Y-100107143D02*
X153035471Y-100107143D01*
X152892614Y-99750000D02*
X153035471Y-100107143D01*
X153035471Y-100107143D02*
X152892614Y-100464286D01*
X153321185Y-99892857D02*
X153035471Y-100107143D01*
X153035471Y-100107143D02*
X153321185Y-100321429D01*
X152678328Y-101250000D02*
X153035471Y-101250000D01*
X152892614Y-100892857D02*
X153035471Y-101250000D01*
X153035471Y-101250000D02*
X152892614Y-101607143D01*
X153321185Y-101035714D02*
X153035471Y-101250000D01*
X153035471Y-101250000D02*
X153321185Y-101464286D01*
X152678328Y-102392857D02*
X153035471Y-102392857D01*
X152892614Y-102035714D02*
X153035471Y-102392857D01*
X153035471Y-102392857D02*
X152892614Y-102750000D01*
X153321185Y-102178571D02*
X153035471Y-102392857D01*
X153035471Y-102392857D02*
X153321185Y-102607143D01*
D11*
X144763333Y-118563519D02*
X144763333Y-119277804D01*
X144763333Y-119277804D02*
X144810952Y-119420661D01*
X144810952Y-119420661D02*
X144906190Y-119515900D01*
X144906190Y-119515900D02*
X145049047Y-119563519D01*
X145049047Y-119563519D02*
X145144285Y-119563519D01*
X144334761Y-118658757D02*
X144287142Y-118611138D01*
X144287142Y-118611138D02*
X144191904Y-118563519D01*
X144191904Y-118563519D02*
X143953809Y-118563519D01*
X143953809Y-118563519D02*
X143858571Y-118611138D01*
X143858571Y-118611138D02*
X143810952Y-118658757D01*
X143810952Y-118658757D02*
X143763333Y-118753995D01*
X143763333Y-118753995D02*
X143763333Y-118849233D01*
X143763333Y-118849233D02*
X143810952Y-118992090D01*
X143810952Y-118992090D02*
X144382380Y-119563519D01*
X144382380Y-119563519D02*
X143763333Y-119563519D01*
X119915180Y-104261904D02*
X119105657Y-104261904D01*
X119105657Y-104261904D02*
X119010419Y-104214285D01*
X119010419Y-104214285D02*
X118962800Y-104166666D01*
X118962800Y-104166666D02*
X118915180Y-104071428D01*
X118915180Y-104071428D02*
X118915180Y-103880952D01*
X118915180Y-103880952D02*
X118962800Y-103785714D01*
X118962800Y-103785714D02*
X119010419Y-103738095D01*
X119010419Y-103738095D02*
X119105657Y-103690476D01*
X119105657Y-103690476D02*
X119915180Y-103690476D01*
X119581847Y-102785714D02*
X118915180Y-102785714D01*
X119962800Y-103023809D02*
X119248514Y-103261904D01*
X119248514Y-103261904D02*
X119248514Y-102642857D01*
X139915180Y-104261904D02*
X139105657Y-104261904D01*
X139105657Y-104261904D02*
X139010419Y-104214285D01*
X139010419Y-104214285D02*
X138962800Y-104166666D01*
X138962800Y-104166666D02*
X138915180Y-104071428D01*
X138915180Y-104071428D02*
X138915180Y-103880952D01*
X138915180Y-103880952D02*
X138962800Y-103785714D01*
X138962800Y-103785714D02*
X139010419Y-103738095D01*
X139010419Y-103738095D02*
X139105657Y-103690476D01*
X139105657Y-103690476D02*
X139915180Y-103690476D01*
X139915180Y-102738095D02*
X139915180Y-103214285D01*
X139915180Y-103214285D02*
X139438990Y-103261904D01*
X139438990Y-103261904D02*
X139486609Y-103214285D01*
X139486609Y-103214285D02*
X139534228Y-103119047D01*
X139534228Y-103119047D02*
X139534228Y-102880952D01*
X139534228Y-102880952D02*
X139486609Y-102785714D01*
X139486609Y-102785714D02*
X139438990Y-102738095D01*
X139438990Y-102738095D02*
X139343752Y-102690476D01*
X139343752Y-102690476D02*
X139105657Y-102690476D01*
X139105657Y-102690476D02*
X139010419Y-102738095D01*
X139010419Y-102738095D02*
X138962800Y-102785714D01*
X138962800Y-102785714D02*
X138915180Y-102880952D01*
X138915180Y-102880952D02*
X138915180Y-103119047D01*
X138915180Y-103119047D02*
X138962800Y-103214285D01*
X138962800Y-103214285D02*
X139010419Y-103261904D01*
X139915180Y-98511904D02*
X139105657Y-98511904D01*
X139105657Y-98511904D02*
X139010419Y-98464285D01*
X139010419Y-98464285D02*
X138962800Y-98416666D01*
X138962800Y-98416666D02*
X138915180Y-98321428D01*
X138915180Y-98321428D02*
X138915180Y-98130952D01*
X138915180Y-98130952D02*
X138962800Y-98035714D01*
X138962800Y-98035714D02*
X139010419Y-97988095D01*
X139010419Y-97988095D02*
X139105657Y-97940476D01*
X139105657Y-97940476D02*
X139915180Y-97940476D01*
X138915180Y-96940476D02*
X138915180Y-97511904D01*
X138915180Y-97226190D02*
X139915180Y-97226190D01*
X139915180Y-97226190D02*
X139772323Y-97321428D01*
X139772323Y-97321428D02*
X139677085Y-97416666D01*
X139677085Y-97416666D02*
X139629466Y-97511904D01*
X144763333Y-80463519D02*
X144763333Y-81177804D01*
X144763333Y-81177804D02*
X144810952Y-81320661D01*
X144810952Y-81320661D02*
X144906190Y-81415900D01*
X144906190Y-81415900D02*
X145049047Y-81463519D01*
X145049047Y-81463519D02*
X145144285Y-81463519D01*
X143763333Y-81463519D02*
X144334761Y-81463519D01*
X144049047Y-81463519D02*
X144049047Y-80463519D01*
X144049047Y-80463519D02*
X144144285Y-80606376D01*
X144144285Y-80606376D02*
X144239523Y-80701614D01*
X144239523Y-80701614D02*
X144334761Y-80749233D01*
X119915180Y-98511904D02*
X119105657Y-98511904D01*
X119105657Y-98511904D02*
X119010419Y-98464285D01*
X119010419Y-98464285D02*
X118962800Y-98416666D01*
X118962800Y-98416666D02*
X118915180Y-98321428D01*
X118915180Y-98321428D02*
X118915180Y-98130952D01*
X118915180Y-98130952D02*
X118962800Y-98035714D01*
X118962800Y-98035714D02*
X119010419Y-97988095D01*
X119010419Y-97988095D02*
X119105657Y-97940476D01*
X119105657Y-97940476D02*
X119915180Y-97940476D01*
X119819942Y-97511904D02*
X119867561Y-97464285D01*
X119867561Y-97464285D02*
X119915180Y-97369047D01*
X119915180Y-97369047D02*
X119915180Y-97130952D01*
X119915180Y-97130952D02*
X119867561Y-97035714D01*
X119867561Y-97035714D02*
X119819942Y-96988095D01*
X119819942Y-96988095D02*
X119724704Y-96940476D01*
X119724704Y-96940476D02*
X119629466Y-96940476D01*
X119629466Y-96940476D02*
X119486609Y-96988095D01*
X119486609Y-96988095D02*
X118915180Y-97559523D01*
X118915180Y-97559523D02*
X118915180Y-96940476D01*
D12*
%TO.C,G\u002A\u002A\u002A*%
G36*
X152564001Y-105285896D02*
G01*
X152570977Y-105305151D01*
X152580940Y-105337521D01*
X152592973Y-105379983D01*
X152606160Y-105429512D01*
X152614586Y-105462348D01*
X152626566Y-105509970D01*
X152636274Y-105549720D01*
X152642880Y-105578177D01*
X152645555Y-105591919D01*
X152644929Y-105597924D01*
X152637964Y-105602432D01*
X152620348Y-105602720D01*
X152588168Y-105599292D01*
X152587107Y-105599159D01*
X152519325Y-105590564D01*
X152468098Y-105583859D01*
X152431385Y-105578742D01*
X152407146Y-105574916D01*
X152393341Y-105572082D01*
X152387929Y-105569939D01*
X152387844Y-105569065D01*
X152393183Y-105556632D01*
X152406206Y-105532256D01*
X152425033Y-105499057D01*
X152447784Y-105460156D01*
X152472579Y-105418676D01*
X152497539Y-105377739D01*
X152520784Y-105340464D01*
X152540433Y-105309975D01*
X152554608Y-105289392D01*
X152561427Y-105281838D01*
X152564001Y-105285896D01*
G37*
G36*
X156818762Y-102556892D02*
G01*
X156822240Y-102565310D01*
X156824640Y-102584484D01*
X156826092Y-102616409D01*
X156826724Y-102663083D01*
X156826667Y-102726504D01*
X156826399Y-102769204D01*
X156825751Y-102819510D01*
X156824614Y-102854966D01*
X156822768Y-102877918D01*
X156819991Y-102890712D01*
X156816062Y-102895693D01*
X156810760Y-102895207D01*
X156809326Y-102894637D01*
X156792379Y-102888042D01*
X156762411Y-102876476D01*
X156723198Y-102861394D01*
X156678515Y-102844252D01*
X156655873Y-102835576D01*
X156579393Y-102806169D01*
X156518793Y-102782418D01*
X156472785Y-102763469D01*
X156440082Y-102748468D01*
X156419396Y-102736564D01*
X156409439Y-102726903D01*
X156408923Y-102718631D01*
X156416560Y-102710895D01*
X156431063Y-102702843D01*
X156451144Y-102693620D01*
X156518823Y-102664243D01*
X156594708Y-102633402D01*
X156667102Y-102605983D01*
X156729416Y-102584569D01*
X156740175Y-102581132D01*
X156774740Y-102569981D01*
X156801591Y-102561154D01*
X156815644Y-102556317D01*
X156818762Y-102556892D01*
G37*
G36*
X153366110Y-93338949D02*
G01*
X153366551Y-93356771D01*
X153359720Y-93391363D01*
X153357475Y-93401632D01*
X153350292Y-93448335D01*
X153344268Y-93509230D01*
X153339601Y-93580790D01*
X153336486Y-93659486D01*
X153335119Y-93741791D01*
X153335695Y-93824178D01*
X153336866Y-93869943D01*
X153339811Y-93931694D01*
X153344569Y-93983864D01*
X153351709Y-94032093D01*
X153361803Y-94082022D01*
X153367095Y-94105372D01*
X153377844Y-94152555D01*
X153383662Y-94184859D01*
X153383085Y-94204899D01*
X153374651Y-94215290D01*
X153356897Y-94218646D01*
X153328360Y-94217582D01*
X153287577Y-94214713D01*
X153260130Y-94213138D01*
X153212014Y-94210804D01*
X153168867Y-94209198D01*
X153137559Y-94208600D01*
X153087449Y-94208600D01*
X153087449Y-94127621D01*
X153087617Y-94110708D01*
X153095306Y-94004594D01*
X153113529Y-93892364D01*
X153141013Y-93778126D01*
X153176484Y-93665986D01*
X153218672Y-93560052D01*
X153266302Y-93464431D01*
X153318102Y-93383230D01*
X153341607Y-93353261D01*
X153357946Y-93337808D01*
X153366110Y-93338949D01*
G37*
G36*
X157274759Y-96601340D02*
G01*
X157290272Y-96616625D01*
X157311189Y-96645298D01*
X157336093Y-96684762D01*
X157363567Y-96732419D01*
X157392191Y-96785672D01*
X157420549Y-96841923D01*
X157447223Y-96898575D01*
X157470795Y-96953031D01*
X157489847Y-97002694D01*
X157498935Y-97028932D01*
X157516663Y-97081940D01*
X157533305Y-97133751D01*
X157546193Y-97176153D01*
X157548031Y-97182639D01*
X157557557Y-97221346D01*
X157564720Y-97258813D01*
X157568937Y-97290810D01*
X157569626Y-97313110D01*
X157566204Y-97321483D01*
X157565867Y-97321437D01*
X157554267Y-97318046D01*
X157530160Y-97310339D01*
X157498227Y-97299807D01*
X157459095Y-97287511D01*
X157408508Y-97272952D01*
X157361938Y-97260751D01*
X157290581Y-97243370D01*
X157284574Y-97153505D01*
X157283962Y-97145335D01*
X157276086Y-97082028D01*
X157262524Y-97007375D01*
X157244520Y-96926594D01*
X157223320Y-96844908D01*
X157200170Y-96767538D01*
X157176315Y-96699703D01*
X157169186Y-96679235D01*
X157166075Y-96665944D01*
X157170293Y-96660382D01*
X157186455Y-96647539D01*
X157209792Y-96631631D01*
X157234997Y-96616058D01*
X157256762Y-96604221D01*
X157269777Y-96599519D01*
X157274759Y-96601340D01*
G37*
G36*
X154077113Y-93599200D02*
G01*
X154080332Y-93601213D01*
X154079019Y-93608948D01*
X154072043Y-93626163D01*
X154058275Y-93656618D01*
X154044185Y-93691419D01*
X154024468Y-93751616D01*
X154004576Y-93824303D01*
X153985455Y-93905952D01*
X153968050Y-93993032D01*
X153966906Y-93999324D01*
X153957855Y-94055482D01*
X153953130Y-94103548D01*
X153952176Y-94152407D01*
X153954439Y-94210944D01*
X153956176Y-94253361D01*
X153956415Y-94288570D01*
X153955188Y-94312370D01*
X153952558Y-94321114D01*
X153949506Y-94320683D01*
X153931360Y-94316423D01*
X153901739Y-94308581D01*
X153865264Y-94298360D01*
X153846570Y-94293174D01*
X153804957Y-94282524D01*
X153761574Y-94272334D01*
X153721395Y-94263701D01*
X153689389Y-94257719D01*
X153670528Y-94255481D01*
X153670336Y-94255471D01*
X153667568Y-94246666D01*
X153669826Y-94223981D01*
X153676258Y-94191207D01*
X153686015Y-94152133D01*
X153698246Y-94110549D01*
X153712100Y-94070246D01*
X153715086Y-94062340D01*
X153757005Y-93964692D01*
X153805209Y-93877937D01*
X153863412Y-93796138D01*
X153935328Y-93713355D01*
X153950280Y-93698092D01*
X153979542Y-93670696D01*
X154010485Y-93644020D01*
X154039324Y-93621148D01*
X154062272Y-93605164D01*
X154075545Y-93599150D01*
X154077113Y-93599200D01*
G37*
G36*
X154541397Y-104037285D02*
G01*
X154595981Y-104038748D01*
X154659833Y-104041141D01*
X154730254Y-104044348D01*
X154804544Y-104048249D01*
X154880002Y-104052727D01*
X154953929Y-104057663D01*
X155023624Y-104062941D01*
X155048347Y-104064916D01*
X155106584Y-104069402D01*
X155165281Y-104073739D01*
X155214864Y-104077213D01*
X155216102Y-104077297D01*
X155289248Y-104083433D01*
X155348888Y-104090949D01*
X155393276Y-104099577D01*
X155420665Y-104109045D01*
X155423679Y-104110839D01*
X155442848Y-104126444D01*
X155463292Y-104147831D01*
X155481575Y-104178781D01*
X155487674Y-104217696D01*
X155478066Y-104255534D01*
X155453857Y-104288436D01*
X155416150Y-104312542D01*
X155388896Y-104319725D01*
X155340443Y-104324265D01*
X155275338Y-104324475D01*
X155194447Y-104320358D01*
X155098634Y-104311914D01*
X155093509Y-104311395D01*
X155040856Y-104306676D01*
X154975459Y-104301647D01*
X154902677Y-104296678D01*
X154827872Y-104292135D01*
X154756404Y-104288388D01*
X154705904Y-104285954D01*
X154629396Y-104281924D01*
X154568233Y-104277905D01*
X154520242Y-104273450D01*
X154483247Y-104268113D01*
X154455077Y-104261447D01*
X154433557Y-104253007D01*
X154416514Y-104242345D01*
X154401774Y-104229016D01*
X154387163Y-104212574D01*
X154372257Y-104190732D01*
X154361494Y-104152472D01*
X154369200Y-104114314D01*
X154395284Y-104077765D01*
X154427491Y-104052765D01*
X154463261Y-104038463D01*
X154470834Y-104037623D01*
X154498781Y-104036871D01*
X154541397Y-104037285D01*
G37*
G36*
X152777031Y-104677829D02*
G01*
X152809879Y-104684018D01*
X152852554Y-104693137D01*
X152901833Y-104704557D01*
X152980948Y-104723493D01*
X153062755Y-104742908D01*
X153136809Y-104760261D01*
X153208783Y-104776879D01*
X153284348Y-104794089D01*
X153300676Y-104797791D01*
X153348582Y-104808690D01*
X153394260Y-104819127D01*
X153429678Y-104827268D01*
X153446121Y-104831048D01*
X153487600Y-104840469D01*
X153534889Y-104851100D01*
X153583166Y-104861869D01*
X153627614Y-104871703D01*
X153663413Y-104879528D01*
X153685745Y-104884273D01*
X153707408Y-104888681D01*
X153686035Y-104923521D01*
X153680856Y-104931789D01*
X153664614Y-104957165D01*
X153640824Y-104993972D01*
X153611243Y-105039499D01*
X153577629Y-105091039D01*
X153541739Y-105145883D01*
X153508079Y-105197389D01*
X153463530Y-105265941D01*
X153417340Y-105337379D01*
X153371208Y-105409051D01*
X153326836Y-105478300D01*
X153285923Y-105542472D01*
X153250170Y-105598913D01*
X153221277Y-105644967D01*
X153200944Y-105677980D01*
X153194934Y-105687521D01*
X153181623Y-105705798D01*
X153173413Y-105712980D01*
X153172808Y-105712636D01*
X153166221Y-105701265D01*
X153154829Y-105676212D01*
X153140057Y-105640743D01*
X153123328Y-105598123D01*
X153111494Y-105567687D01*
X153090986Y-105516161D01*
X153065959Y-105454213D01*
X153037979Y-105385692D01*
X153008611Y-105314449D01*
X152979421Y-105244333D01*
X152936182Y-105140827D01*
X152889863Y-105029313D01*
X152850643Y-104934068D01*
X152818317Y-104854580D01*
X152792683Y-104790338D01*
X152773535Y-104740829D01*
X152760669Y-104705540D01*
X152753883Y-104683959D01*
X152752971Y-104675574D01*
X152757234Y-104675196D01*
X152777031Y-104677829D01*
G37*
G36*
X152038639Y-105660074D02*
G01*
X152044955Y-105661063D01*
X152070787Y-105664460D01*
X152110669Y-105669289D01*
X152161451Y-105675203D01*
X152219986Y-105681850D01*
X152283125Y-105688884D01*
X152347720Y-105695954D01*
X152410623Y-105702711D01*
X152468686Y-105708807D01*
X152518759Y-105713892D01*
X152557696Y-105717618D01*
X152558431Y-105717685D01*
X152594034Y-105721064D01*
X152641935Y-105725805D01*
X152695953Y-105731288D01*
X152749907Y-105736893D01*
X152801883Y-105742347D01*
X152864871Y-105748919D01*
X152925224Y-105755184D01*
X152974935Y-105760307D01*
X153004227Y-105763406D01*
X153045687Y-105768120D01*
X153079105Y-105772309D01*
X153099169Y-105775330D01*
X153116920Y-105780086D01*
X153124953Y-105785181D01*
X153124443Y-105786198D01*
X153115276Y-105798033D01*
X153096021Y-105821126D01*
X153068508Y-105853329D01*
X153034568Y-105892495D01*
X152996031Y-105936474D01*
X152994941Y-105937711D01*
X152946927Y-105992254D01*
X152891185Y-106055622D01*
X152832234Y-106122673D01*
X152774596Y-106188265D01*
X152722791Y-106247256D01*
X152679686Y-106296318D01*
X152626565Y-106356590D01*
X152583808Y-106404786D01*
X152550274Y-106442142D01*
X152524822Y-106469898D01*
X152506313Y-106489292D01*
X152493605Y-106501560D01*
X152485559Y-106507942D01*
X152481033Y-106509675D01*
X152474476Y-106503015D01*
X152460023Y-106482425D01*
X152439538Y-106450498D01*
X152414635Y-106409871D01*
X152386929Y-106363184D01*
X152358035Y-106313075D01*
X152329568Y-106262182D01*
X152313396Y-106233478D01*
X152287447Y-106189113D01*
X152263128Y-106149132D01*
X152232261Y-106098721D01*
X152191873Y-106029853D01*
X152151920Y-105958825D01*
X152113990Y-105888647D01*
X152079666Y-105822327D01*
X152050534Y-105762876D01*
X152028180Y-105713301D01*
X152014189Y-105676614D01*
X152013864Y-105675584D01*
X152010994Y-105661517D01*
X152017816Y-105657319D01*
X152038639Y-105660074D01*
G37*
G36*
X152107740Y-104625534D02*
G01*
X152189225Y-104626077D01*
X152270320Y-104627247D01*
X152347353Y-104628951D01*
X152416652Y-104631098D01*
X152474544Y-104633595D01*
X152517357Y-104636350D01*
X152535758Y-104637939D01*
X152586792Y-104643133D01*
X152621209Y-104648220D01*
X152640654Y-104653491D01*
X152646769Y-104659237D01*
X152646275Y-104663413D01*
X152637484Y-104677019D01*
X152633997Y-104680663D01*
X152620477Y-104697761D01*
X152598749Y-104726692D01*
X152570407Y-104765236D01*
X152537047Y-104811173D01*
X152500264Y-104862283D01*
X152461651Y-104916347D01*
X152422804Y-104971146D01*
X152385318Y-105024460D01*
X152350787Y-105074070D01*
X152320806Y-105117755D01*
X152308723Y-105135489D01*
X152273949Y-105186195D01*
X152237076Y-105239600D01*
X152204300Y-105286718D01*
X152175970Y-105327403D01*
X152140904Y-105378042D01*
X152104133Y-105431364D01*
X152070136Y-105480888D01*
X152060049Y-105495550D01*
X152033804Y-105532959D01*
X152011864Y-105563174D01*
X151996285Y-105583405D01*
X151989120Y-105590866D01*
X151988618Y-105590797D01*
X151983180Y-105581360D01*
X151978322Y-105560778D01*
X151977348Y-105555186D01*
X151972492Y-105530227D01*
X151964631Y-105491586D01*
X151954460Y-105442538D01*
X151942668Y-105386357D01*
X151929950Y-105326317D01*
X151916997Y-105265694D01*
X151904502Y-105207762D01*
X151893158Y-105155795D01*
X151883655Y-105113067D01*
X151877193Y-105084112D01*
X151867351Y-105039171D01*
X151859088Y-105000553D01*
X151858047Y-104995613D01*
X151850128Y-104958797D01*
X151840268Y-104913815D01*
X151830354Y-104869287D01*
X151818550Y-104816277D01*
X151803758Y-104747847D01*
X151792984Y-104695111D01*
X151786397Y-104658906D01*
X151784163Y-104640064D01*
X151784753Y-104637516D01*
X151789112Y-104633974D01*
X151799292Y-104631193D01*
X151817140Y-104629085D01*
X151844503Y-104627559D01*
X151883229Y-104626528D01*
X151935164Y-104625901D01*
X152002157Y-104625591D01*
X152086054Y-104625507D01*
X152107740Y-104625534D01*
G37*
G36*
X154524075Y-103499241D02*
G01*
X154569615Y-103501017D01*
X154625306Y-103503675D01*
X154687818Y-103507042D01*
X154753822Y-103510943D01*
X154819987Y-103515205D01*
X154882982Y-103519653D01*
X154886699Y-103519922D01*
X154925973Y-103522242D01*
X154980716Y-103524835D01*
X155048019Y-103527595D01*
X155124969Y-103530414D01*
X155208658Y-103533185D01*
X155296174Y-103535800D01*
X155384606Y-103538151D01*
X155412820Y-103538876D01*
X155495112Y-103541267D01*
X155571719Y-103543892D01*
X155640462Y-103546650D01*
X155699166Y-103549442D01*
X155745653Y-103552166D01*
X155777745Y-103554723D01*
X155793266Y-103557011D01*
X155829648Y-103577301D01*
X155860603Y-103610549D01*
X155879727Y-103650387D01*
X155880346Y-103652712D01*
X155885137Y-103680257D01*
X155885053Y-103701956D01*
X155884654Y-103705115D01*
X155883292Y-103725382D01*
X155881558Y-103760987D01*
X155879552Y-103809459D01*
X155877373Y-103868327D01*
X155875117Y-103935120D01*
X155872885Y-104007367D01*
X155870854Y-104073769D01*
X155868127Y-104149773D01*
X155865121Y-104210576D01*
X155861467Y-104258226D01*
X155856795Y-104294774D01*
X155850736Y-104322267D01*
X155842922Y-104342755D01*
X155832982Y-104358287D01*
X155820548Y-104370911D01*
X155805250Y-104382677D01*
X155794686Y-104389388D01*
X155753963Y-104403483D01*
X155711555Y-104403421D01*
X155671979Y-104390461D01*
X155639752Y-104365861D01*
X155619393Y-104330881D01*
X155619365Y-104330795D01*
X155616381Y-104310045D01*
X155614777Y-104271037D01*
X155614556Y-104214212D01*
X155615718Y-104140010D01*
X155618266Y-104048873D01*
X155618338Y-104046640D01*
X155620415Y-103979962D01*
X155622117Y-103919790D01*
X155623387Y-103868571D01*
X155624170Y-103828753D01*
X155624412Y-103802781D01*
X155624056Y-103793103D01*
X155621332Y-103792759D01*
X155602844Y-103791833D01*
X155568570Y-103790613D01*
X155520466Y-103789155D01*
X155460486Y-103787512D01*
X155390587Y-103785740D01*
X155312723Y-103783894D01*
X155228848Y-103782027D01*
X155186872Y-103781095D01*
X155104931Y-103779108D01*
X155029542Y-103777063D01*
X154962739Y-103775028D01*
X154906555Y-103773071D01*
X154863021Y-103771260D01*
X154834171Y-103769663D01*
X154822037Y-103768350D01*
X154808903Y-103766318D01*
X154780122Y-103763715D01*
X154738983Y-103760798D01*
X154688702Y-103757795D01*
X154632495Y-103754933D01*
X154595283Y-103753125D01*
X154536116Y-103749578D01*
X154491510Y-103745299D01*
X154458705Y-103739490D01*
X154434943Y-103731356D01*
X154417464Y-103720100D01*
X154403510Y-103704926D01*
X154390321Y-103685038D01*
X154380314Y-103664153D01*
X154372414Y-103618312D01*
X154380775Y-103572221D01*
X154393714Y-103551318D01*
X154420249Y-103526293D01*
X154451761Y-103506982D01*
X154481077Y-103498650D01*
X154492018Y-103498522D01*
X154524075Y-103499241D01*
G37*
G36*
X155671771Y-101239308D02*
G01*
X155699416Y-101242776D01*
X155721187Y-101248268D01*
X155739358Y-101255911D01*
X155756204Y-101265831D01*
X155760506Y-101268901D01*
X155785874Y-101295484D01*
X155811017Y-101333917D01*
X155832714Y-101378631D01*
X155847746Y-101424061D01*
X155849486Y-101431681D01*
X155856547Y-101476922D01*
X155860444Y-101533507D01*
X155861204Y-101603226D01*
X155858855Y-101687867D01*
X155853424Y-101789220D01*
X155850976Y-101824884D01*
X155845288Y-101885753D01*
X155837568Y-101938746D01*
X155826650Y-101991110D01*
X155811363Y-102050094D01*
X155806845Y-102066383D01*
X155790897Y-102121671D01*
X155777502Y-102162622D01*
X155765205Y-102192359D01*
X155752552Y-102214006D01*
X155738087Y-102230687D01*
X155720356Y-102245525D01*
X155701529Y-102256393D01*
X155667658Y-102272212D01*
X155622465Y-102291375D01*
X155569258Y-102312600D01*
X155511343Y-102334601D01*
X155452026Y-102356092D01*
X155394614Y-102375789D01*
X155342414Y-102392407D01*
X155225397Y-102424046D01*
X155080879Y-102451586D01*
X154937345Y-102465189D01*
X154789220Y-102465590D01*
X154767382Y-102464660D01*
X154673429Y-102458385D01*
X154595458Y-102448692D01*
X154531345Y-102435027D01*
X154478966Y-102416840D01*
X154436198Y-102393578D01*
X154400916Y-102364690D01*
X154381607Y-102340438D01*
X154358101Y-102302413D01*
X154333631Y-102256343D01*
X154310679Y-102207223D01*
X154291727Y-102160051D01*
X154279259Y-102119822D01*
X154268496Y-102056350D01*
X154263039Y-101973306D01*
X154263154Y-101962705D01*
X154514689Y-101962705D01*
X154522024Y-102034262D01*
X154529754Y-102068159D01*
X154543488Y-102111338D01*
X154559536Y-102149009D01*
X154575996Y-102176859D01*
X154590965Y-102190577D01*
X154604007Y-102194694D01*
X154643953Y-102202494D01*
X154696654Y-102208546D01*
X154758041Y-102212545D01*
X154824044Y-102214182D01*
X154890594Y-102213153D01*
X154940534Y-102210673D01*
X155024356Y-102203206D01*
X155105362Y-102191058D01*
X155187394Y-102173346D01*
X155274295Y-102149186D01*
X155369906Y-102117692D01*
X155478071Y-102077982D01*
X155548095Y-102051289D01*
X155569812Y-101976512D01*
X155573453Y-101963130D01*
X155584318Y-101914220D01*
X155593830Y-101859320D01*
X155600266Y-101807973D01*
X155602551Y-101779751D01*
X155605939Y-101722109D01*
X155608332Y-101660446D01*
X155609318Y-101604041D01*
X155609634Y-101493872D01*
X155518216Y-101494065D01*
X155504934Y-101494130D01*
X155376830Y-101498153D01*
X155242522Y-101507908D01*
X155106964Y-101522770D01*
X154975111Y-101542115D01*
X154851918Y-101565321D01*
X154742340Y-101591762D01*
X154711829Y-101599317D01*
X154669312Y-101608487D01*
X154627061Y-101616483D01*
X154622525Y-101617283D01*
X154589305Y-101624273D01*
X154564477Y-101631407D01*
X154553122Y-101637256D01*
X154552359Y-101638675D01*
X154546562Y-101657724D01*
X154539851Y-101690706D01*
X154532851Y-101733501D01*
X154526187Y-101781988D01*
X154520484Y-101832046D01*
X154516367Y-101879556D01*
X154514689Y-101962705D01*
X154263154Y-101962705D01*
X154264044Y-101880691D01*
X154271199Y-101782601D01*
X154284194Y-101683136D01*
X154302719Y-101586391D01*
X154326464Y-101496464D01*
X154337289Y-101467397D01*
X154363922Y-101425046D01*
X154398331Y-101399372D01*
X154440128Y-101390734D01*
X154446189Y-101390664D01*
X154464224Y-101389580D01*
X154486319Y-101386774D01*
X154515309Y-101381721D01*
X154554031Y-101373897D01*
X154605322Y-101362776D01*
X154672019Y-101347835D01*
X154760568Y-101328190D01*
X154858293Y-101307804D01*
X154946261Y-101291372D01*
X155029067Y-101278252D01*
X155111311Y-101267801D01*
X155197587Y-101259377D01*
X155292493Y-101252338D01*
X155400627Y-101246041D01*
X155456955Y-101243144D01*
X155530844Y-101239782D01*
X155589760Y-101237938D01*
X155609634Y-101237852D01*
X155635977Y-101237737D01*
X155671771Y-101239308D01*
G37*
G36*
X155810967Y-104580830D02*
G01*
X155854054Y-104581155D01*
X155883018Y-104581693D01*
X155895547Y-104582461D01*
X155909058Y-104587981D01*
X155936398Y-104606613D01*
X155963454Y-104631957D01*
X155983619Y-104658323D01*
X155984605Y-104660152D01*
X155990574Y-104685223D01*
X155989566Y-104715999D01*
X155982579Y-104744468D01*
X155970613Y-104762622D01*
X155962234Y-104770436D01*
X155957315Y-104781704D01*
X155955631Y-104789089D01*
X155940303Y-104801369D01*
X155913070Y-104812856D01*
X155878091Y-104821949D01*
X155839521Y-104827050D01*
X155839349Y-104827061D01*
X155815400Y-104828031D01*
X155775276Y-104828971D01*
X155721525Y-104829848D01*
X155656697Y-104830632D01*
X155583340Y-104831293D01*
X155504001Y-104831798D01*
X155421229Y-104832118D01*
X155408693Y-104832153D01*
X155329959Y-104832465D01*
X155257744Y-104832909D01*
X155194087Y-104833463D01*
X155141027Y-104834102D01*
X155100603Y-104834802D01*
X155074853Y-104835540D01*
X155065817Y-104836290D01*
X155071590Y-104840532D01*
X155090893Y-104852021D01*
X155120554Y-104868735D01*
X155157234Y-104888758D01*
X155269769Y-104950884D01*
X155393967Y-105023912D01*
X155513343Y-105099596D01*
X155633729Y-105181657D01*
X155760959Y-105273816D01*
X155806016Y-105307765D01*
X155850415Y-105342911D01*
X155882126Y-105370605D01*
X155902865Y-105392367D01*
X155914347Y-105409716D01*
X155918847Y-105420435D01*
X155926175Y-105465051D01*
X155916690Y-105508096D01*
X155891759Y-105545910D01*
X155852747Y-105574828D01*
X155833172Y-105581458D01*
X155797877Y-105586905D01*
X155748408Y-105589910D01*
X155684029Y-105590465D01*
X155604006Y-105588560D01*
X155507603Y-105584187D01*
X155394085Y-105577337D01*
X155262716Y-105568003D01*
X155259430Y-105567788D01*
X155234615Y-105566746D01*
X155193972Y-105565532D01*
X155139865Y-105564198D01*
X155074660Y-105562796D01*
X155000721Y-105561377D01*
X154920413Y-105559993D01*
X154836101Y-105558695D01*
X154812734Y-105558341D01*
X154730431Y-105556831D01*
X154653524Y-105555028D01*
X154584241Y-105553009D01*
X154524806Y-105550852D01*
X154477445Y-105548637D01*
X154444384Y-105546440D01*
X154427849Y-105544341D01*
X154422502Y-105542655D01*
X154393162Y-105527561D01*
X154366904Y-105506437D01*
X154356932Y-105495403D01*
X154345496Y-105477263D01*
X154340477Y-105455142D01*
X154339496Y-105421691D01*
X154339953Y-105400601D01*
X154343267Y-105374754D01*
X154351932Y-105356086D01*
X154368450Y-105337299D01*
X154369116Y-105336639D01*
X154405855Y-105311480D01*
X154450019Y-105297254D01*
X154493297Y-105296666D01*
X154497373Y-105297128D01*
X154519469Y-105298333D01*
X154556779Y-105299600D01*
X154606794Y-105300868D01*
X154667005Y-105302079D01*
X154734901Y-105303174D01*
X154807973Y-105304093D01*
X154834594Y-105304398D01*
X154948670Y-105306099D01*
X155051872Y-105308297D01*
X155142887Y-105310942D01*
X155220402Y-105313984D01*
X155283105Y-105317373D01*
X155329683Y-105321060D01*
X155358822Y-105324994D01*
X155376701Y-105326079D01*
X155384606Y-105320445D01*
X155384359Y-105319545D01*
X155373722Y-105309580D01*
X155348906Y-105292346D01*
X155312010Y-105269013D01*
X155265134Y-105240751D01*
X155210380Y-105208729D01*
X155149846Y-105174118D01*
X155085633Y-105138087D01*
X155019840Y-105101806D01*
X154954569Y-105066445D01*
X154891918Y-105033174D01*
X154833988Y-105003163D01*
X154782879Y-104977581D01*
X154740690Y-104957598D01*
X154709523Y-104944384D01*
X154676255Y-104930828D01*
X154626984Y-104907789D01*
X154580380Y-104882956D01*
X154541436Y-104859043D01*
X154515145Y-104838763D01*
X154506529Y-104829872D01*
X154480146Y-104788960D01*
X154469700Y-104745720D01*
X154473870Y-104703364D01*
X154491338Y-104665107D01*
X154520782Y-104634161D01*
X154560883Y-104613741D01*
X154610321Y-104607059D01*
X154612818Y-104607080D01*
X154633842Y-104606631D01*
X154668942Y-104605432D01*
X154714470Y-104603648D01*
X154766783Y-104601443D01*
X154822232Y-104598983D01*
X154877174Y-104596431D01*
X154927960Y-104593952D01*
X154970947Y-104591711D01*
X155002488Y-104589873D01*
X155018936Y-104588603D01*
X155034746Y-104587665D01*
X155066794Y-104586695D01*
X155112490Y-104585744D01*
X155169520Y-104584828D01*
X155235569Y-104583962D01*
X155308324Y-104583165D01*
X155385470Y-104582451D01*
X155464693Y-104581836D01*
X155543679Y-104581338D01*
X155620114Y-104580972D01*
X155691682Y-104580755D01*
X155756071Y-104580702D01*
X155810967Y-104580830D01*
G37*
G36*
X152761400Y-104855926D02*
G01*
X152763662Y-104861370D01*
X152787451Y-104918949D01*
X152815707Y-104987804D01*
X152846175Y-105062416D01*
X152876601Y-105137264D01*
X152904730Y-105206828D01*
X152916946Y-105237108D01*
X152940155Y-105294451D01*
X152961097Y-105345957D01*
X152978591Y-105388736D01*
X152991457Y-105419895D01*
X152998514Y-105436544D01*
X152999971Y-105439838D01*
X153009772Y-105462413D01*
X153024689Y-105497124D01*
X153042965Y-105539873D01*
X153062843Y-105586563D01*
X153069413Y-105602082D01*
X153087252Y-105644840D01*
X153101709Y-105680402D01*
X153111441Y-105705425D01*
X153115104Y-105716565D01*
X153111289Y-105719293D01*
X153093622Y-105720746D01*
X153066352Y-105718928D01*
X152987814Y-105709722D01*
X152888341Y-105697967D01*
X152793414Y-105686646D01*
X152705850Y-105676100D01*
X152628465Y-105666668D01*
X152564077Y-105658690D01*
X152515503Y-105652506D01*
X152503669Y-105650993D01*
X152449978Y-105644571D01*
X152386438Y-105637487D01*
X152320010Y-105630500D01*
X152257659Y-105624371D01*
X152227110Y-105621500D01*
X152176396Y-105616724D01*
X152132762Y-105612606D01*
X152100074Y-105609509D01*
X152082193Y-105607797D01*
X152056745Y-105605315D01*
X152068340Y-105588732D01*
X152350464Y-105588732D01*
X152360859Y-105592322D01*
X152386296Y-105597925D01*
X152422807Y-105604789D01*
X152466535Y-105612299D01*
X152513626Y-105619838D01*
X152560222Y-105626791D01*
X152602469Y-105632540D01*
X152636510Y-105636469D01*
X152658490Y-105637963D01*
X152660667Y-105637960D01*
X152684797Y-105634849D01*
X152692562Y-105626411D01*
X152692550Y-105626283D01*
X152688827Y-105604473D01*
X152681012Y-105570220D01*
X152669984Y-105526585D01*
X152656625Y-105476626D01*
X152641815Y-105423403D01*
X152626435Y-105369974D01*
X152611365Y-105319400D01*
X152597486Y-105274739D01*
X152585678Y-105239050D01*
X152576821Y-105215394D01*
X152571797Y-105206828D01*
X152567395Y-105211239D01*
X152554815Y-105229380D01*
X152536022Y-105259013D01*
X152512612Y-105297383D01*
X152486178Y-105341741D01*
X152458317Y-105389334D01*
X152430622Y-105437411D01*
X152404688Y-105483219D01*
X152382111Y-105524007D01*
X152364485Y-105557023D01*
X152353404Y-105579515D01*
X152350464Y-105588732D01*
X152068340Y-105588732D01*
X152112471Y-105525618D01*
X152115590Y-105521163D01*
X152143834Y-105481124D01*
X152178453Y-105432441D01*
X152215351Y-105380858D01*
X152230799Y-105359397D01*
X152338399Y-105359397D01*
X152342703Y-105395712D01*
X152351952Y-105420394D01*
X152355923Y-105425861D01*
X152366859Y-105437663D01*
X152377719Y-105442171D01*
X152389676Y-105438017D01*
X152403906Y-105423828D01*
X152421582Y-105398232D01*
X152443880Y-105359860D01*
X152471973Y-105307338D01*
X152507036Y-105239296D01*
X152511492Y-105230584D01*
X152538161Y-105179070D01*
X152562438Y-105133189D01*
X152571797Y-105115981D01*
X152582816Y-105095721D01*
X152597785Y-105069446D01*
X152605838Y-105057145D01*
X152613067Y-105050786D01*
X152617595Y-105054466D01*
X152618641Y-105074089D01*
X152618737Y-105079062D01*
X152621657Y-105110791D01*
X152627379Y-105144076D01*
X152632195Y-105166652D01*
X152639964Y-105205061D01*
X152647548Y-105244333D01*
X152648573Y-105249709D01*
X152660477Y-105301462D01*
X152673492Y-105341172D01*
X152686743Y-105366623D01*
X152699356Y-105375599D01*
X152706831Y-105369225D01*
X152712085Y-105351882D01*
X152712813Y-105331930D01*
X152707781Y-105317846D01*
X152703862Y-105308360D01*
X152697509Y-105281649D01*
X152689099Y-105237617D01*
X152678552Y-105175835D01*
X152665786Y-105095873D01*
X152658100Y-105050045D01*
X152648217Y-105003248D01*
X152638607Y-104973151D01*
X152628869Y-104958586D01*
X152618602Y-104958385D01*
X152618369Y-104958563D01*
X152611057Y-104969192D01*
X152596689Y-104993394D01*
X152576806Y-105028360D01*
X152552943Y-105071282D01*
X152526639Y-105119352D01*
X152499432Y-105169759D01*
X152472859Y-105219696D01*
X152448459Y-105266354D01*
X152427769Y-105306924D01*
X152423568Y-105315215D01*
X152406880Y-105346272D01*
X152392960Y-105369415D01*
X152384471Y-105380143D01*
X152383101Y-105380622D01*
X152378048Y-105373027D01*
X152375488Y-105352584D01*
X152375470Y-105324047D01*
X152378045Y-105292166D01*
X152383259Y-105261694D01*
X152386510Y-105239352D01*
X152384541Y-105217998D01*
X152376974Y-105207941D01*
X152365146Y-105212793D01*
X152363186Y-105214975D01*
X152351433Y-105239237D01*
X152343136Y-105275301D01*
X152338668Y-105317307D01*
X152338399Y-105359397D01*
X152230799Y-105359397D01*
X152250433Y-105332120D01*
X152251926Y-105330053D01*
X152279996Y-105291127D01*
X152316477Y-105240429D01*
X152359025Y-105181223D01*
X152405296Y-105116774D01*
X152452945Y-105050345D01*
X152499626Y-104985202D01*
X152514925Y-104963841D01*
X152556476Y-104905831D01*
X152594608Y-104852602D01*
X152618602Y-104819112D01*
X152627821Y-104806245D01*
X152654615Y-104768855D01*
X152673491Y-104742525D01*
X152682948Y-104729348D01*
X152699312Y-104706610D01*
X152761400Y-104855926D01*
G37*
G36*
X155845869Y-102414662D02*
G01*
X155885904Y-102434396D01*
X155914611Y-102467991D01*
X155915126Y-102468945D01*
X155920321Y-102482725D01*
X155923397Y-102502349D01*
X155924486Y-102531027D01*
X155923723Y-102571969D01*
X155921238Y-102628386D01*
X155920079Y-102656279D01*
X155918563Y-102714096D01*
X155917541Y-102783285D01*
X155917055Y-102859277D01*
X155917143Y-102937503D01*
X155917847Y-103013392D01*
X155918638Y-103098618D01*
X155918128Y-103186964D01*
X155915739Y-103259817D01*
X155911195Y-103318941D01*
X155904221Y-103366099D01*
X155894542Y-103403054D01*
X155881883Y-103431570D01*
X155865968Y-103453409D01*
X155846523Y-103470335D01*
X155835740Y-103477631D01*
X155817238Y-103487570D01*
X155797643Y-103493098D01*
X155774177Y-103493948D01*
X155744063Y-103489850D01*
X155704523Y-103480537D01*
X155652778Y-103465740D01*
X155586051Y-103445192D01*
X155534669Y-103429395D01*
X155466821Y-103409224D01*
X155400083Y-103390048D01*
X155340031Y-103373464D01*
X155292240Y-103361068D01*
X155176434Y-103332643D01*
X155153558Y-103355518D01*
X155150615Y-103358412D01*
X155132569Y-103373792D01*
X155111606Y-103386833D01*
X155085477Y-103398126D01*
X155051932Y-103408267D01*
X155008721Y-103417848D01*
X154953594Y-103427463D01*
X154884303Y-103437706D01*
X154798597Y-103449170D01*
X154773012Y-103452206D01*
X154686014Y-103457234D01*
X154613279Y-103451858D01*
X154553555Y-103435780D01*
X154505588Y-103408701D01*
X154468127Y-103370321D01*
X154460692Y-103357897D01*
X154446209Y-103327235D01*
X154428753Y-103285291D01*
X154409787Y-103236024D01*
X154390771Y-103183394D01*
X154373166Y-103131362D01*
X154358436Y-103083887D01*
X154348040Y-103044929D01*
X154335484Y-102987174D01*
X154324026Y-102927268D01*
X154317037Y-102884864D01*
X154554585Y-102884864D01*
X154570672Y-102956287D01*
X154586202Y-103016738D01*
X154602766Y-103071674D01*
X154622192Y-103127666D01*
X154655620Y-103219084D01*
X154693008Y-103219084D01*
X154715420Y-103217960D01*
X154752237Y-103214671D01*
X154797454Y-103209738D01*
X154845856Y-103203687D01*
X154886138Y-103198200D01*
X154921554Y-103192689D01*
X154944167Y-103187602D01*
X154957186Y-103181905D01*
X154963819Y-103174563D01*
X154967276Y-103164541D01*
X154967469Y-103163683D01*
X154969515Y-103145491D01*
X154971645Y-103112198D01*
X154973703Y-103067124D01*
X154975538Y-103013589D01*
X154975945Y-102997204D01*
X155222008Y-102997204D01*
X155222682Y-103035651D01*
X155224297Y-103059895D01*
X155229900Y-103101882D01*
X155366677Y-103135766D01*
X155378508Y-103138720D01*
X155435016Y-103153355D01*
X155490981Y-103168601D01*
X155540501Y-103182818D01*
X155577672Y-103194367D01*
X155588151Y-103197804D01*
X155623580Y-103208647D01*
X155652080Y-103216230D01*
X155668267Y-103219084D01*
X155673633Y-103218363D01*
X155679285Y-103212866D01*
X155682269Y-103199001D01*
X155683153Y-103173315D01*
X155682504Y-103132354D01*
X155681711Y-103096271D01*
X155680729Y-103045231D01*
X155679665Y-102984794D01*
X155678600Y-102919708D01*
X155677619Y-102854716D01*
X155674872Y-102663807D01*
X155653973Y-102669459D01*
X155640696Y-102672068D01*
X155610917Y-102676834D01*
X155568810Y-102683050D01*
X155517732Y-102690250D01*
X155461040Y-102697973D01*
X155402090Y-102705753D01*
X155344240Y-102713128D01*
X155290845Y-102719633D01*
X155229900Y-102726836D01*
X155224297Y-102872372D01*
X155223485Y-102895804D01*
X155222276Y-102949080D01*
X155222008Y-102997204D01*
X154975945Y-102997204D01*
X154976994Y-102954911D01*
X154977826Y-102910665D01*
X154978482Y-102857665D01*
X154978292Y-102819533D01*
X154977123Y-102793937D01*
X154974841Y-102778543D01*
X154971315Y-102771018D01*
X154966410Y-102769029D01*
X154959598Y-102769921D01*
X154936283Y-102774344D01*
X154900338Y-102781793D01*
X154855156Y-102791506D01*
X154804130Y-102802723D01*
X154750652Y-102814683D01*
X154698116Y-102826626D01*
X154649914Y-102837789D01*
X154609439Y-102847413D01*
X154580084Y-102854735D01*
X154565242Y-102858997D01*
X154556931Y-102865491D01*
X154554585Y-102884864D01*
X154317037Y-102884864D01*
X154314883Y-102871792D01*
X154308809Y-102825330D01*
X154306556Y-102792469D01*
X154313862Y-102750694D01*
X154334569Y-102710503D01*
X154364796Y-102680729D01*
X154376152Y-102674270D01*
X154411038Y-102659619D01*
X154461961Y-102642952D01*
X154529424Y-102624133D01*
X154613933Y-102603025D01*
X154715990Y-102579493D01*
X154814623Y-102558065D01*
X155665891Y-102558065D01*
X155670579Y-102562753D01*
X155674872Y-102558460D01*
X155675267Y-102558065D01*
X155670579Y-102553377D01*
X155665891Y-102558065D01*
X154814623Y-102558065D01*
X154836101Y-102553399D01*
X154874053Y-102545784D01*
X154941245Y-102533550D01*
X154966410Y-102529323D01*
X155018212Y-102520623D01*
X155099710Y-102507816D01*
X155180498Y-102495947D01*
X155255333Y-102485829D01*
X155318973Y-102478280D01*
X155347648Y-102474929D01*
X155400240Y-102467990D01*
X155461960Y-102459189D01*
X155527333Y-102449313D01*
X155590882Y-102439150D01*
X155643000Y-102430815D01*
X155670579Y-102426701D01*
X155698098Y-102422596D01*
X155746290Y-102416016D01*
X155783721Y-102411597D01*
X155806533Y-102409865D01*
X155845869Y-102414662D01*
G37*
G36*
X155436573Y-99947992D02*
G01*
X155498209Y-99949996D01*
X155551269Y-99953099D01*
X155592371Y-99957261D01*
X155618130Y-99962443D01*
X155664745Y-99982838D01*
X155711041Y-100018679D01*
X155744441Y-100066934D01*
X155747739Y-100073644D01*
X155761600Y-100106070D01*
X155772425Y-100140867D01*
X155780780Y-100181312D01*
X155787229Y-100230680D01*
X155792341Y-100292247D01*
X155796679Y-100369290D01*
X155798753Y-100417932D01*
X155801321Y-100512201D01*
X155802032Y-100603774D01*
X155800918Y-100688657D01*
X155798005Y-100762857D01*
X155793326Y-100822379D01*
X155782782Y-100890247D01*
X155760279Y-100966121D01*
X155726867Y-101027852D01*
X155681345Y-101076647D01*
X155622515Y-101113713D01*
X155549176Y-101140256D01*
X155460129Y-101157482D01*
X155453090Y-101158349D01*
X155408568Y-101161653D01*
X155355424Y-101162843D01*
X155297565Y-101162126D01*
X155238902Y-101159707D01*
X155183343Y-101155793D01*
X155134797Y-101150591D01*
X155097173Y-101144305D01*
X155074381Y-101137143D01*
X155065118Y-101133499D01*
X155053614Y-101134154D01*
X155048715Y-101135991D01*
X155029920Y-101133185D01*
X155003868Y-101123627D01*
X154976224Y-101109603D01*
X154952654Y-101093400D01*
X154947597Y-101088837D01*
X154924374Y-101062056D01*
X154905231Y-101032104D01*
X154900337Y-101021986D01*
X154893253Y-101002169D01*
X154889773Y-100979464D01*
X154889327Y-100948613D01*
X154891343Y-100904361D01*
X154892678Y-100884454D01*
X154896664Y-100841747D01*
X154901490Y-100805273D01*
X154906391Y-100781284D01*
X154908997Y-100771609D01*
X154915943Y-100737717D01*
X154920986Y-100702191D01*
X154923012Y-100686679D01*
X154928573Y-100660285D01*
X154934765Y-100645071D01*
X154938363Y-100639668D01*
X154939343Y-100629807D01*
X154937843Y-100618068D01*
X154940746Y-100593081D01*
X154947025Y-100559810D01*
X154955548Y-100523120D01*
X154965181Y-100487878D01*
X154974793Y-100458948D01*
X154983250Y-100441198D01*
X154989283Y-100433860D01*
X155017736Y-100411220D01*
X155052744Y-100394200D01*
X155085396Y-100387486D01*
X155093692Y-100388100D01*
X155127053Y-100399249D01*
X155160518Y-100421051D01*
X155186864Y-100449122D01*
X155193309Y-100459521D01*
X155210363Y-100505750D01*
X155213856Y-100555381D01*
X155203016Y-100601156D01*
X155201534Y-100604733D01*
X155192376Y-100632964D01*
X155181581Y-100673735D01*
X155170272Y-100722039D01*
X155159573Y-100772866D01*
X155150608Y-100821208D01*
X155144500Y-100862057D01*
X155139812Y-100900637D01*
X155194232Y-100906661D01*
X155221460Y-100909403D01*
X155296804Y-100914088D01*
X155365871Y-100914210D01*
X155426227Y-100910007D01*
X155475438Y-100901717D01*
X155511071Y-100889576D01*
X155530692Y-100873823D01*
X155533951Y-100868234D01*
X155537381Y-100859637D01*
X155540228Y-100846106D01*
X155543379Y-100823074D01*
X155547717Y-100785972D01*
X155549184Y-100769523D01*
X155551259Y-100725589D01*
X155552389Y-100668847D01*
X155552638Y-100603194D01*
X155552067Y-100532525D01*
X155550738Y-100460736D01*
X155548711Y-100391725D01*
X155546050Y-100329386D01*
X155542816Y-100277616D01*
X155539070Y-100240311D01*
X155536751Y-100225126D01*
X155530850Y-100207913D01*
X155517899Y-100199654D01*
X155492117Y-100194737D01*
X155483834Y-100194106D01*
X155456465Y-100193759D01*
X155415547Y-100194271D01*
X155364371Y-100195514D01*
X155306229Y-100197359D01*
X155244416Y-100199681D01*
X155182222Y-100202350D01*
X155122940Y-100205240D01*
X155069864Y-100208224D01*
X155026285Y-100211173D01*
X154995496Y-100213961D01*
X154967857Y-100217767D01*
X154909455Y-100228686D01*
X154843933Y-100243799D01*
X154774942Y-100262009D01*
X154706131Y-100282220D01*
X154641149Y-100303335D01*
X154583646Y-100324257D01*
X154537270Y-100343891D01*
X154505671Y-100361140D01*
X154486769Y-100375509D01*
X154465997Y-100400650D01*
X154457505Y-100431586D01*
X154458943Y-100473996D01*
X154461211Y-100495338D01*
X154464972Y-100532590D01*
X154469445Y-100578179D01*
X154474080Y-100626577D01*
X154477566Y-100662504D01*
X154483621Y-100722023D01*
X154489817Y-100780119D01*
X154495246Y-100828165D01*
X154497286Y-100845607D01*
X154504156Y-100910179D01*
X154507622Y-100959541D01*
X154507301Y-100996382D01*
X154502811Y-101023389D01*
X154493768Y-101043250D01*
X154479791Y-101058655D01*
X154460496Y-101072290D01*
X154437158Y-101083396D01*
X154391996Y-101090580D01*
X154347131Y-101082049D01*
X154308255Y-101058326D01*
X154302918Y-101053293D01*
X154288264Y-101036380D01*
X154277486Y-101016071D01*
X154268374Y-100987314D01*
X154258721Y-100945059D01*
X154257001Y-100936563D01*
X154248820Y-100886414D01*
X154242957Y-100834450D01*
X154240587Y-100790660D01*
X154239900Y-100761163D01*
X154232490Y-100666910D01*
X154216960Y-100556256D01*
X154213244Y-100533013D01*
X154207156Y-100487067D01*
X154205062Y-100451044D01*
X154206797Y-100419037D01*
X154212196Y-100385140D01*
X154223778Y-100341451D01*
X154247134Y-100284085D01*
X154276765Y-100232385D01*
X154309367Y-100192893D01*
X154327765Y-100177666D01*
X154359889Y-100155217D01*
X154394128Y-100134584D01*
X154423476Y-100119636D01*
X154458198Y-100103918D01*
X154492301Y-100090043D01*
X154521709Y-100079567D01*
X154542344Y-100074046D01*
X154550129Y-100075037D01*
X154551771Y-100076429D01*
X154561849Y-100070936D01*
X154562423Y-100070500D01*
X154579735Y-100062279D01*
X154611335Y-100051147D01*
X154653453Y-100038111D01*
X154702317Y-100024179D01*
X154754154Y-100010359D01*
X154805193Y-99997659D01*
X154851661Y-99987087D01*
X154889787Y-99979650D01*
X154915799Y-99976358D01*
X154922881Y-99975873D01*
X154946579Y-99973759D01*
X154976744Y-99970715D01*
X154986567Y-99969675D01*
X155022649Y-99965873D01*
X155067170Y-99961200D01*
X155112698Y-99956436D01*
X155118209Y-99955877D01*
X155171960Y-99951779D01*
X155234056Y-99948982D01*
X155301113Y-99947445D01*
X155369747Y-99947129D01*
X155436573Y-99947992D01*
G37*
G36*
X156299522Y-103567569D02*
G01*
X156324406Y-103568166D01*
X156360116Y-103569023D01*
X156424694Y-103571217D01*
X156480012Y-103574579D01*
X156522067Y-103579614D01*
X156553725Y-103587012D01*
X156577852Y-103597461D01*
X156597315Y-103611649D01*
X156614980Y-103630266D01*
X156620200Y-103636869D01*
X156631771Y-103655858D01*
X156641145Y-103679775D01*
X156648704Y-103710922D01*
X156654827Y-103751605D01*
X156659895Y-103804127D01*
X156664287Y-103870794D01*
X156668384Y-103953908D01*
X156669178Y-103971145D01*
X156672285Y-104028568D01*
X156675704Y-104078865D01*
X156679192Y-104119132D01*
X156682506Y-104146466D01*
X156685404Y-104157962D01*
X156686082Y-104158326D01*
X156700281Y-104160510D01*
X156730752Y-104162999D01*
X156775409Y-104165687D01*
X156832165Y-104168471D01*
X156898932Y-104171248D01*
X156973624Y-104173912D01*
X157054154Y-104176359D01*
X157079827Y-104177076D01*
X157167296Y-104179582D01*
X157238530Y-104181808D01*
X157295519Y-104183910D01*
X157340258Y-104186043D01*
X157374736Y-104188361D01*
X157400948Y-104191021D01*
X157420884Y-104194176D01*
X157436538Y-104197982D01*
X157449900Y-104202593D01*
X157462964Y-104208166D01*
X157482321Y-104218103D01*
X157508458Y-104235786D01*
X157523909Y-104251918D01*
X157528460Y-104265207D01*
X157533950Y-104298733D01*
X157538480Y-104348913D01*
X157541914Y-104414543D01*
X157543977Y-104480278D01*
X157545551Y-104555590D01*
X157546477Y-104631077D01*
X157546602Y-104697445D01*
X157546403Y-104728729D01*
X157545786Y-104774699D01*
X157544450Y-104806974D01*
X157541916Y-104828852D01*
X157537710Y-104843631D01*
X157531353Y-104854607D01*
X157522369Y-104865080D01*
X157513182Y-104874822D01*
X157502142Y-104885027D01*
X157489795Y-104893397D01*
X157474396Y-104900114D01*
X157454200Y-104905361D01*
X157427462Y-104909319D01*
X157392439Y-104912169D01*
X157347386Y-104914093D01*
X157290559Y-104915273D01*
X157220212Y-104915891D01*
X157134603Y-104916129D01*
X157031985Y-104916168D01*
X156976707Y-104916220D01*
X156894695Y-104916500D01*
X156819786Y-104916997D01*
X156753921Y-104917686D01*
X156699041Y-104918539D01*
X156657089Y-104919530D01*
X156630005Y-104920633D01*
X156619732Y-104921820D01*
X156618701Y-104932631D01*
X156624397Y-104952292D01*
X156628331Y-104967369D01*
X156633214Y-104998515D01*
X156637721Y-105039345D01*
X156641228Y-105084938D01*
X156644863Y-105134919D01*
X156650472Y-105197987D01*
X156657141Y-105263741D01*
X156664091Y-105324030D01*
X156669009Y-105366063D01*
X156675629Y-105445406D01*
X156675947Y-105509068D01*
X156669158Y-105558667D01*
X156654455Y-105595820D01*
X156631031Y-105622143D01*
X156598079Y-105639254D01*
X156554794Y-105648770D01*
X156500368Y-105652307D01*
X156477414Y-105652617D01*
X156402157Y-105652224D01*
X156330604Y-105649823D01*
X156265760Y-105645643D01*
X156210632Y-105639916D01*
X156168226Y-105632872D01*
X156141546Y-105624743D01*
X156122458Y-105614569D01*
X156098662Y-105596375D01*
X156081814Y-105572867D01*
X156070422Y-105540692D01*
X156062995Y-105496497D01*
X156058043Y-105436928D01*
X156055697Y-105400340D01*
X156051203Y-105334802D01*
X156046271Y-105266981D01*
X156041612Y-105206828D01*
X156039657Y-105181020D01*
X156036961Y-105137305D01*
X156034903Y-105090558D01*
X156033502Y-105039469D01*
X156032778Y-104982730D01*
X156032751Y-104919033D01*
X156033443Y-104847071D01*
X156034871Y-104765534D01*
X156037057Y-104673114D01*
X156039867Y-104573938D01*
X156271699Y-104573938D01*
X156272204Y-104615303D01*
X156273747Y-104679569D01*
X156276144Y-104754092D01*
X156279231Y-104835245D01*
X156282843Y-104919404D01*
X156286812Y-105002944D01*
X156290975Y-105082238D01*
X156295165Y-105153662D01*
X156299217Y-105213590D01*
X156302965Y-105258397D01*
X156305401Y-105283788D01*
X156308961Y-105323368D01*
X156311475Y-105354592D01*
X156312511Y-105372311D01*
X156312608Y-105374838D01*
X156316645Y-105386398D01*
X156329996Y-105392786D01*
X156357382Y-105396548D01*
X156371678Y-105397497D01*
X156396362Y-105397177D01*
X156409502Y-105394129D01*
X156411237Y-105384958D01*
X156410677Y-105360589D01*
X156407670Y-105325217D01*
X156402470Y-105282840D01*
X156398195Y-105249877D01*
X156392836Y-105200678D01*
X156389145Y-105156648D01*
X156387743Y-105124465D01*
X156387076Y-105106092D01*
X156382068Y-105060709D01*
X156373790Y-105019305D01*
X156371816Y-105011085D01*
X156365621Y-104971571D01*
X156361418Y-104921995D01*
X156359837Y-104869141D01*
X156359856Y-104860218D01*
X156362135Y-104802505D01*
X156369096Y-104759553D01*
X156382010Y-104728084D01*
X156402151Y-104704824D01*
X156430791Y-104686495D01*
X156439073Y-104682569D01*
X156449602Y-104678744D01*
X156462837Y-104675616D01*
X156480562Y-104673103D01*
X156504560Y-104671124D01*
X156536612Y-104669598D01*
X156578503Y-104668441D01*
X156632015Y-104667573D01*
X156698930Y-104666911D01*
X156781032Y-104666374D01*
X156880103Y-104665880D01*
X157292653Y-104663974D01*
X157293338Y-104618956D01*
X157293270Y-104590877D01*
X157292302Y-104549154D01*
X157290612Y-104507381D01*
X157287201Y-104440825D01*
X157173597Y-104434716D01*
X157136393Y-104432977D01*
X157070513Y-104430718D01*
X157002371Y-104429162D01*
X156941920Y-104428576D01*
X156907014Y-104428326D01*
X156818583Y-104425565D01*
X156735253Y-104420020D01*
X156660423Y-104412025D01*
X156597491Y-104401915D01*
X156549858Y-104390023D01*
X156533427Y-104384076D01*
X156487888Y-104359640D01*
X156455986Y-104328975D01*
X156440233Y-104294275D01*
X156439195Y-104288605D01*
X156432620Y-104244252D01*
X156426338Y-104189444D01*
X156421016Y-104131328D01*
X156417319Y-104077047D01*
X156415916Y-104033747D01*
X156415257Y-103996211D01*
X156413062Y-103945541D01*
X156409873Y-103901199D01*
X156403895Y-103837910D01*
X156364151Y-103837910D01*
X156324406Y-103837910D01*
X156318404Y-103896511D01*
X156309559Y-103986902D01*
X156300619Y-104086959D01*
X156292505Y-104186709D01*
X156285427Y-104283097D01*
X156279597Y-104373069D01*
X156275226Y-104453570D01*
X156272523Y-104521544D01*
X156271699Y-104573938D01*
X156039867Y-104573938D01*
X156040021Y-104568504D01*
X156043781Y-104450395D01*
X156048360Y-104317479D01*
X156053776Y-104168448D01*
X156060050Y-104001993D01*
X156060889Y-103980527D01*
X156065123Y-103888308D01*
X156070051Y-103812528D01*
X156076142Y-103751276D01*
X156083868Y-103702637D01*
X156093699Y-103664698D01*
X156106106Y-103635547D01*
X156121560Y-103613270D01*
X156140533Y-103595954D01*
X156163493Y-103581685D01*
X156168006Y-103579374D01*
X156181884Y-103573798D01*
X156198844Y-103570031D01*
X156222017Y-103567872D01*
X156254533Y-103567119D01*
X156299522Y-103567569D01*
G37*
G36*
X157554909Y-101766540D02*
G01*
X157576699Y-101770575D01*
X157593456Y-101780442D01*
X157612148Y-101798701D01*
X157636311Y-101832271D01*
X157651569Y-101871366D01*
X157653204Y-101882790D01*
X157655376Y-101914749D01*
X157656671Y-101958731D01*
X157656988Y-102010500D01*
X157656224Y-102065817D01*
X157655928Y-102077605D01*
X157652116Y-102173988D01*
X157645598Y-102253954D01*
X157635439Y-102319540D01*
X157620708Y-102372782D01*
X157600471Y-102415716D01*
X157573797Y-102450378D01*
X157539752Y-102478803D01*
X157497403Y-102503028D01*
X157445818Y-102525088D01*
X157430401Y-102530998D01*
X157357520Y-102559005D01*
X157299973Y-102581354D01*
X157255907Y-102598889D01*
X157223468Y-102612452D01*
X157200804Y-102622886D01*
X157186063Y-102631035D01*
X157177392Y-102637740D01*
X157172939Y-102643845D01*
X157170850Y-102650193D01*
X157166478Y-102670732D01*
X157158547Y-102717062D01*
X157154224Y-102757245D01*
X157153852Y-102787274D01*
X157157774Y-102803140D01*
X157162609Y-102806790D01*
X157182599Y-102818643D01*
X157215424Y-102836645D01*
X157258608Y-102859474D01*
X157309673Y-102885809D01*
X157366143Y-102914328D01*
X157375810Y-102919174D01*
X157440326Y-102952276D01*
X157496112Y-102982230D01*
X157541095Y-103007860D01*
X157573197Y-103027990D01*
X157590346Y-103041444D01*
X157594093Y-103045546D01*
X157604478Y-103058642D01*
X157610906Y-103072727D01*
X157614277Y-103092242D01*
X157615490Y-103121626D01*
X157615446Y-103165319D01*
X157615405Y-103170579D01*
X157614567Y-103215274D01*
X157612496Y-103254240D01*
X157608587Y-103292278D01*
X157602239Y-103334185D01*
X157592848Y-103384759D01*
X157579809Y-103448800D01*
X157576993Y-103462284D01*
X157565179Y-103516841D01*
X157555338Y-103556945D01*
X157546296Y-103585900D01*
X157536876Y-103607008D01*
X157525906Y-103623571D01*
X157512210Y-103638894D01*
X157505764Y-103645262D01*
X157485104Y-103661637D01*
X157462556Y-103671375D01*
X157434953Y-103674575D01*
X157399130Y-103671339D01*
X157351918Y-103661768D01*
X157290153Y-103645962D01*
X157272932Y-103641330D01*
X157211631Y-103624928D01*
X157141940Y-103606382D01*
X157071181Y-103587637D01*
X157006681Y-103570640D01*
X156890617Y-103538871D01*
X156769845Y-103502556D01*
X156649661Y-103462676D01*
X156524423Y-103417353D01*
X156388488Y-103364707D01*
X156381731Y-103362018D01*
X156309554Y-103332994D01*
X156252524Y-103309197D01*
X156208410Y-103289390D01*
X156174978Y-103272338D01*
X156149996Y-103256806D01*
X156131231Y-103241559D01*
X156116451Y-103225360D01*
X156103422Y-103206976D01*
X156094130Y-103188923D01*
X156080067Y-103146072D01*
X156067798Y-103089779D01*
X156057587Y-103023315D01*
X156049697Y-102949954D01*
X156044390Y-102872970D01*
X156041929Y-102795635D01*
X156042283Y-102754964D01*
X156265983Y-102754964D01*
X156266218Y-102772510D01*
X156267759Y-102814795D01*
X156270453Y-102863754D01*
X156273973Y-102915153D01*
X156277988Y-102964757D01*
X156282169Y-103008331D01*
X156286189Y-103041640D01*
X156289717Y-103060449D01*
X156291320Y-103063685D01*
X156296975Y-103069250D01*
X156308022Y-103076171D01*
X156326197Y-103085201D01*
X156353236Y-103097091D01*
X156390875Y-103112595D01*
X156440851Y-103132464D01*
X156504898Y-103157450D01*
X156584754Y-103188307D01*
X156641641Y-103209662D01*
X156725724Y-103239535D01*
X156811314Y-103268229D01*
X156893711Y-103294228D01*
X156968213Y-103316013D01*
X157030121Y-103332068D01*
X157065089Y-103340630D01*
X157118360Y-103354415D01*
X157175873Y-103369911D01*
X157230057Y-103385110D01*
X157235173Y-103386572D01*
X157279196Y-103398314D01*
X157315816Y-103406630D01*
X157341533Y-103410808D01*
X157352843Y-103410133D01*
X157354660Y-103407175D01*
X157361310Y-103388087D01*
X157369165Y-103357466D01*
X157377148Y-103320543D01*
X157384183Y-103282547D01*
X157389194Y-103248708D01*
X157391103Y-103224255D01*
X157391079Y-103219797D01*
X157390061Y-103209196D01*
X157385878Y-103199795D01*
X157376279Y-103189959D01*
X157359015Y-103178056D01*
X157331837Y-103162451D01*
X157292496Y-103141511D01*
X157238741Y-103113603D01*
X157168448Y-103076988D01*
X157099974Y-103040343D01*
X157045450Y-103009374D01*
X157003308Y-102982700D01*
X156971977Y-102958943D01*
X156949891Y-102936722D01*
X156935479Y-102914659D01*
X156927173Y-102891374D01*
X156923404Y-102865487D01*
X156922603Y-102835619D01*
X156923311Y-102811855D01*
X156926675Y-102765690D01*
X156932248Y-102713167D01*
X156939418Y-102658462D01*
X156947569Y-102605750D01*
X156956087Y-102559207D01*
X156964359Y-102523007D01*
X156971770Y-102501325D01*
X156973196Y-102498600D01*
X156982124Y-102482891D01*
X156992234Y-102469095D01*
X157005350Y-102456279D01*
X157023294Y-102443508D01*
X157047890Y-102429849D01*
X157080962Y-102414368D01*
X157124333Y-102396130D01*
X157179826Y-102374201D01*
X157249265Y-102347648D01*
X157334473Y-102315536D01*
X157373665Y-102299953D01*
X157399229Y-102287154D01*
X157413614Y-102275382D01*
X157420268Y-102262506D01*
X157422406Y-102250561D01*
X157424835Y-102223365D01*
X157426534Y-102188101D01*
X157427458Y-102149236D01*
X157427561Y-102111234D01*
X157426796Y-102078561D01*
X157425118Y-102055683D01*
X157422481Y-102047065D01*
X157416492Y-102048511D01*
X157394878Y-102055283D01*
X157360625Y-102066661D01*
X157316698Y-102081613D01*
X157266063Y-102099106D01*
X157211685Y-102118109D01*
X157156530Y-102137589D01*
X157103563Y-102156513D01*
X157055751Y-102173849D01*
X157016057Y-102188564D01*
X157005646Y-102192492D01*
X156938349Y-102218070D01*
X156879080Y-102241052D01*
X156823652Y-102263158D01*
X156767879Y-102286105D01*
X156707575Y-102311612D01*
X156638552Y-102341399D01*
X156556625Y-102377184D01*
X156545693Y-102381977D01*
X156475130Y-102412947D01*
X156419653Y-102437421D01*
X156377415Y-102456289D01*
X156346571Y-102470443D01*
X156325276Y-102480772D01*
X156311684Y-102488167D01*
X156303950Y-102493520D01*
X156300227Y-102497719D01*
X156298671Y-102501656D01*
X156298447Y-102502504D01*
X156289235Y-102545274D01*
X156280435Y-102599256D01*
X156272993Y-102657100D01*
X156267859Y-102711453D01*
X156265983Y-102754964D01*
X156042283Y-102754964D01*
X156042576Y-102721223D01*
X156046594Y-102653007D01*
X156054247Y-102594261D01*
X156054585Y-102592387D01*
X156062049Y-102549384D01*
X156068964Y-102506956D01*
X156073873Y-102474031D01*
X156075602Y-102462343D01*
X156087305Y-102412838D01*
X156106460Y-102370992D01*
X156135247Y-102334506D01*
X156175846Y-102301078D01*
X156230439Y-102268407D01*
X156301205Y-102234195D01*
X156345128Y-102214434D01*
X156394542Y-102192143D01*
X156438927Y-102172065D01*
X156472240Y-102156929D01*
X156512807Y-102138577D01*
X156628426Y-102088117D01*
X156746113Y-102039647D01*
X156869911Y-101991580D01*
X157003862Y-101942332D01*
X157152011Y-101890316D01*
X157178872Y-101880939D01*
X157237655Y-101859674D01*
X157294875Y-101838088D01*
X157345116Y-101818247D01*
X157382965Y-101802216D01*
X157422352Y-101785359D01*
X157422481Y-101785315D01*
X157457609Y-101773345D01*
X157488815Y-101767387D01*
X157522500Y-101765780D01*
X157554909Y-101766540D01*
G37*
G36*
X157454782Y-100062824D02*
G01*
X157511481Y-100071241D01*
X157555787Y-100087443D01*
X157589912Y-100112397D01*
X157616067Y-100147069D01*
X157636465Y-100192424D01*
X157639176Y-100200461D01*
X157644201Y-100219509D01*
X157647853Y-100241809D01*
X157650121Y-100269290D01*
X157650995Y-100303883D01*
X157650466Y-100347518D01*
X157648525Y-100402127D01*
X157645160Y-100469640D01*
X157640362Y-100551988D01*
X157634121Y-100651101D01*
X157630283Y-100716435D01*
X157627749Y-100778920D01*
X157626990Y-100837323D01*
X157628027Y-100897331D01*
X157630881Y-100964628D01*
X157635571Y-101044900D01*
X157639682Y-101118285D01*
X157643367Y-101200925D01*
X157646285Y-101284491D01*
X157648208Y-101362443D01*
X157648908Y-101428239D01*
X157648810Y-101474803D01*
X157647876Y-101530882D01*
X157645271Y-101572897D01*
X157640179Y-101603662D01*
X157631785Y-101625988D01*
X157619272Y-101642688D01*
X157601825Y-101656574D01*
X157578626Y-101670459D01*
X157542198Y-101684945D01*
X157489553Y-101696591D01*
X157426145Y-101704494D01*
X157355885Y-101708639D01*
X157282682Y-101709012D01*
X157210447Y-101705598D01*
X157143091Y-101698383D01*
X157084523Y-101687352D01*
X157038654Y-101672489D01*
X157009658Y-101654823D01*
X156977709Y-101619297D01*
X156972718Y-101611088D01*
X156967485Y-101600923D01*
X156963367Y-101589107D01*
X156960203Y-101573502D01*
X156957834Y-101551970D01*
X156956099Y-101522375D01*
X156954837Y-101482577D01*
X156953888Y-101430441D01*
X156953091Y-101363829D01*
X156952287Y-101280602D01*
X156951813Y-101219538D01*
X156951622Y-101133192D01*
X156952221Y-101061350D01*
X156953684Y-101001384D01*
X156956087Y-100950666D01*
X156959503Y-100906567D01*
X156964007Y-100866457D01*
X156969279Y-100826313D01*
X156975223Y-100778971D01*
X156978020Y-100745997D01*
X156976961Y-100724807D01*
X156971335Y-100712818D01*
X156960432Y-100707445D01*
X156943541Y-100706105D01*
X156919951Y-100706214D01*
X156911042Y-100706301D01*
X156875005Y-100707503D01*
X156827261Y-100709899D01*
X156772976Y-100713211D01*
X156717318Y-100717160D01*
X156573286Y-100728167D01*
X156578203Y-100883647D01*
X156578610Y-100895275D01*
X156582340Y-100966811D01*
X156588130Y-101046342D01*
X156595269Y-101124980D01*
X156603044Y-101193835D01*
X156605649Y-101214656D01*
X156613065Y-101280132D01*
X156619736Y-101347589D01*
X156625016Y-101410178D01*
X156628260Y-101461055D01*
X156629802Y-101495579D01*
X156630835Y-101533180D01*
X156629981Y-101558959D01*
X156626761Y-101577018D01*
X156620697Y-101591460D01*
X156611311Y-101606385D01*
X156605697Y-101614275D01*
X156579001Y-101641814D01*
X156545697Y-101659562D01*
X156501996Y-101668997D01*
X156444112Y-101671595D01*
X156407058Y-101670902D01*
X156343910Y-101667666D01*
X156282056Y-101662236D01*
X156224988Y-101655076D01*
X156176197Y-101646655D01*
X156139174Y-101637440D01*
X156117412Y-101627897D01*
X156112484Y-101624089D01*
X156095524Y-101607476D01*
X156080393Y-101585809D01*
X156066740Y-101557570D01*
X156054212Y-101521243D01*
X156042459Y-101475312D01*
X156031126Y-101418260D01*
X156019864Y-101348569D01*
X156008320Y-101264724D01*
X155996142Y-101165208D01*
X155982978Y-101048504D01*
X155976317Y-100984497D01*
X155971016Y-100924499D01*
X155967142Y-100866627D01*
X155964516Y-100806707D01*
X155962956Y-100740563D01*
X155962279Y-100664023D01*
X155962294Y-100610205D01*
X156211016Y-100610205D01*
X156213183Y-100703898D01*
X156218564Y-100806642D01*
X156226911Y-100913711D01*
X156237974Y-101020376D01*
X156238836Y-101027755D01*
X156243527Y-101068829D01*
X156249383Y-101121190D01*
X156255744Y-101178878D01*
X156261945Y-101235936D01*
X156264551Y-101259275D01*
X156270526Y-101307464D01*
X156276361Y-101348118D01*
X156281500Y-101377528D01*
X156285385Y-101391982D01*
X156298293Y-101402876D01*
X156319615Y-101409904D01*
X156342798Y-101412260D01*
X156361373Y-101409294D01*
X156368872Y-101400358D01*
X156368168Y-101391445D01*
X156365486Y-101365850D01*
X156361162Y-101327599D01*
X156355581Y-101280073D01*
X156349126Y-101226651D01*
X156347800Y-101215511D01*
X156341400Y-101152272D01*
X156335829Y-101081733D01*
X156331171Y-101006780D01*
X156327508Y-100930302D01*
X156324925Y-100855185D01*
X156323504Y-100784318D01*
X156323328Y-100720587D01*
X156324481Y-100666880D01*
X156327045Y-100626083D01*
X156331105Y-100601086D01*
X156338543Y-100581695D01*
X156363002Y-100542548D01*
X156395153Y-100510275D01*
X156429776Y-100490713D01*
X156445906Y-100487162D01*
X156480406Y-100482374D01*
X156528376Y-100477282D01*
X156586911Y-100472064D01*
X156653107Y-100466900D01*
X156724058Y-100461967D01*
X156796858Y-100457444D01*
X156868604Y-100453509D01*
X156936388Y-100450342D01*
X156997307Y-100448121D01*
X157048456Y-100447024D01*
X157086928Y-100447230D01*
X157109818Y-100448917D01*
X157112995Y-100449510D01*
X157155086Y-100463862D01*
X157189978Y-100487120D01*
X157211919Y-100515532D01*
X157215557Y-100526292D01*
X157221469Y-100559583D01*
X157225639Y-100605521D01*
X157228001Y-100660104D01*
X157228487Y-100719328D01*
X157227033Y-100779188D01*
X157223572Y-100835681D01*
X157218036Y-100884803D01*
X157215308Y-100905024D01*
X157210051Y-100960941D01*
X157206400Y-101029846D01*
X157204271Y-101113643D01*
X157203580Y-101214238D01*
X157203580Y-101446991D01*
X157302815Y-101446991D01*
X157402049Y-101446991D01*
X157395938Y-101308693D01*
X157395638Y-101302031D01*
X157392568Y-101242173D01*
X157388822Y-101180257D01*
X157384847Y-101123216D01*
X157381089Y-101077983D01*
X157379851Y-101063849D01*
X157375749Y-100995042D01*
X157373364Y-100914719D01*
X157372698Y-100828655D01*
X157373752Y-100742624D01*
X157376526Y-100662401D01*
X157381021Y-100593761D01*
X157387803Y-100514081D01*
X157393192Y-100443914D01*
X157396521Y-100390380D01*
X157397842Y-100352439D01*
X157397206Y-100329047D01*
X157394666Y-100319164D01*
X157390762Y-100317358D01*
X157371958Y-100315585D01*
X157344902Y-100317085D01*
X157335110Y-100317983D01*
X157304604Y-100320088D01*
X157260431Y-100322661D01*
X157205861Y-100325525D01*
X157144160Y-100328506D01*
X157078598Y-100331426D01*
X157055600Y-100332453D01*
X156982784Y-100336237D01*
X156909700Y-100340740D01*
X156841102Y-100345633D01*
X156781740Y-100350584D01*
X156736368Y-100355262D01*
X156691452Y-100360191D01*
X156630712Y-100366057D01*
X156561881Y-100372107D01*
X156490429Y-100377861D01*
X156421829Y-100382839D01*
X156403660Y-100384088D01*
X156346779Y-100388229D01*
X156297337Y-100392174D01*
X156258153Y-100395675D01*
X156232046Y-100398487D01*
X156221835Y-100400362D01*
X156221367Y-100401481D01*
X156219309Y-100416364D01*
X156216928Y-100445473D01*
X156214484Y-100485254D01*
X156212234Y-100532155D01*
X156211016Y-100610205D01*
X155962294Y-100610205D01*
X155962305Y-100572912D01*
X155962465Y-100533036D01*
X155963180Y-100451027D01*
X155964633Y-100384784D01*
X155967156Y-100332213D01*
X155971079Y-100291214D01*
X155976734Y-100259691D01*
X155984451Y-100235546D01*
X155994561Y-100216683D01*
X156007395Y-100201004D01*
X156023285Y-100186411D01*
X156030404Y-100180726D01*
X156053033Y-100166766D01*
X156080734Y-100156413D01*
X156116927Y-100148879D01*
X156165029Y-100143374D01*
X156228460Y-100139112D01*
X156262758Y-100137211D01*
X156392476Y-100129132D01*
X156513492Y-100120179D01*
X156622457Y-100110618D01*
X156716020Y-100100711D01*
X156758122Y-100096332D01*
X156818136Y-100091154D01*
X156886391Y-100086081D01*
X156957339Y-100081522D01*
X157025433Y-100077887D01*
X157085357Y-100075063D01*
X157157132Y-100071648D01*
X157227227Y-100068281D01*
X157289957Y-100065235D01*
X157339639Y-100062785D01*
X157371958Y-100061637D01*
X157383478Y-100061228D01*
X157454782Y-100062824D01*
G37*
G36*
X152712402Y-104165257D02*
G01*
X152721506Y-104166967D01*
X152737233Y-104173931D01*
X152759400Y-104186867D01*
X152790253Y-104206949D01*
X152832037Y-104235350D01*
X152886999Y-104273244D01*
X152935609Y-104306765D01*
X152998459Y-104349980D01*
X153064833Y-104395504D01*
X153132833Y-104442044D01*
X153200560Y-104488306D01*
X153266117Y-104533000D01*
X153327605Y-104574832D01*
X153383127Y-104612510D01*
X153430784Y-104644741D01*
X153468677Y-104670233D01*
X153494910Y-104687693D01*
X153507583Y-104695828D01*
X153512356Y-104698744D01*
X153532140Y-104711376D01*
X153562829Y-104731294D01*
X153601260Y-104756440D01*
X153644267Y-104784755D01*
X153764737Y-104864305D01*
X153759596Y-104925397D01*
X153758061Y-104944022D01*
X153754964Y-104982356D01*
X153750876Y-105033488D01*
X153746063Y-105094077D01*
X153740790Y-105160784D01*
X153735323Y-105230269D01*
X153731755Y-105275490D01*
X153725817Y-105349818D01*
X153719945Y-105422303D01*
X153714484Y-105488730D01*
X153709778Y-105544888D01*
X153706173Y-105586563D01*
X153703001Y-105623010D01*
X153697541Y-105688415D01*
X153692112Y-105756150D01*
X153687518Y-105816278D01*
X153683539Y-105869983D01*
X153678253Y-105939601D01*
X153673874Y-105993867D01*
X153670165Y-106034827D01*
X153666891Y-106064524D01*
X153663815Y-106085003D01*
X153660701Y-106098309D01*
X153657313Y-106106486D01*
X153653415Y-106111579D01*
X153646937Y-106115841D01*
X153624619Y-106127015D01*
X153590163Y-106142539D01*
X153546812Y-106160970D01*
X153497807Y-106180865D01*
X153465132Y-106193880D01*
X153413658Y-106214467D01*
X153349428Y-106240217D01*
X153274912Y-106270137D01*
X153192579Y-106303235D01*
X153104898Y-106338520D01*
X153014337Y-106374998D01*
X152923366Y-106411679D01*
X152886987Y-106426326D01*
X152785893Y-106466679D01*
X152697544Y-106501393D01*
X152622693Y-106530185D01*
X152562092Y-106552773D01*
X152516493Y-106568874D01*
X152486648Y-106578207D01*
X152473311Y-106580489D01*
X152469162Y-106578499D01*
X152450582Y-106566600D01*
X152419740Y-106545150D01*
X152378153Y-106515301D01*
X152327339Y-106478203D01*
X152268817Y-106435009D01*
X152204105Y-106386870D01*
X152134719Y-106334936D01*
X152062179Y-106280359D01*
X151988003Y-106224291D01*
X151913707Y-106167882D01*
X151840811Y-106112284D01*
X151770832Y-106058648D01*
X151705288Y-106008126D01*
X151645697Y-105961868D01*
X151593577Y-105921026D01*
X151550446Y-105886752D01*
X151517822Y-105860195D01*
X151497223Y-105842509D01*
X151490166Y-105834843D01*
X151490240Y-105834199D01*
X151491701Y-105825780D01*
X151521631Y-105825780D01*
X151521717Y-105827784D01*
X151525252Y-105835031D01*
X151538871Y-105831889D01*
X151566463Y-105822983D01*
X151604215Y-105809662D01*
X151648474Y-105793279D01*
X151695588Y-105775187D01*
X151741905Y-105756739D01*
X151783773Y-105739286D01*
X151826746Y-105720977D01*
X151871916Y-105702026D01*
X151910551Y-105686109D01*
X151937318Y-105675445D01*
X151982647Y-105658083D01*
X152001673Y-105702020D01*
X152031856Y-105769142D01*
X152074422Y-105857615D01*
X152120298Y-105947368D01*
X152166998Y-106033696D01*
X152212034Y-106111895D01*
X152252919Y-106177260D01*
X152255328Y-106180953D01*
X152273025Y-106209744D01*
X152294612Y-106246810D01*
X152315959Y-106285086D01*
X152339318Y-106326884D01*
X152368365Y-106376361D01*
X152397864Y-106424405D01*
X152425890Y-106468031D01*
X152450519Y-106504254D01*
X152469829Y-106530088D01*
X152481894Y-106542550D01*
X152490992Y-106546123D01*
X152504611Y-106541707D01*
X152523070Y-106523706D01*
X152525992Y-106520389D01*
X152545647Y-106497939D01*
X152574648Y-106464666D01*
X152611553Y-106422235D01*
X152654918Y-106372313D01*
X152703303Y-106316565D01*
X152755263Y-106256656D01*
X152809356Y-106194252D01*
X152864139Y-106131019D01*
X152918170Y-106068621D01*
X152970007Y-106008725D01*
X153018205Y-105952997D01*
X153061323Y-105903100D01*
X153097918Y-105860702D01*
X153126548Y-105827468D01*
X153145769Y-105805063D01*
X153154139Y-105795152D01*
X153166216Y-105784069D01*
X153182268Y-105783862D01*
X153187443Y-105787063D01*
X153207184Y-105799587D01*
X153236212Y-105818195D01*
X153270284Y-105840173D01*
X153296916Y-105857402D01*
X153343838Y-105887754D01*
X153394420Y-105920471D01*
X153441526Y-105950938D01*
X153443344Y-105952114D01*
X153480476Y-105975870D01*
X153511516Y-105995281D01*
X153533265Y-106008375D01*
X153542520Y-106013178D01*
X153545819Y-106014382D01*
X153561323Y-106023084D01*
X153583932Y-106037431D01*
X153595101Y-106044201D01*
X153619942Y-106055328D01*
X153637644Y-106058071D01*
X153641253Y-106056350D01*
X153638620Y-106048490D01*
X153621590Y-106033946D01*
X153589073Y-106011676D01*
X153570207Y-105999396D01*
X153526381Y-105970957D01*
X153477230Y-105939155D01*
X153425387Y-105905684D01*
X153373486Y-105872240D01*
X153324160Y-105840516D01*
X153280042Y-105812206D01*
X153243765Y-105789006D01*
X153217962Y-105772609D01*
X153205268Y-105764710D01*
X153202943Y-105763047D01*
X153199913Y-105756908D01*
X153201878Y-105746254D01*
X153209958Y-105728897D01*
X153225276Y-105702644D01*
X153248954Y-105665305D01*
X153282114Y-105614691D01*
X153299359Y-105588403D01*
X153332516Y-105537338D01*
X153372373Y-105475498D01*
X153416957Y-105405960D01*
X153464299Y-105331801D01*
X153512426Y-105256099D01*
X153559367Y-105181929D01*
X153560852Y-105179576D01*
X153602708Y-105113006D01*
X153641178Y-105051341D01*
X153675147Y-104996399D01*
X153703505Y-104950002D01*
X153725138Y-104913969D01*
X153738934Y-104890120D01*
X153743779Y-104880275D01*
X153743637Y-104879309D01*
X153733824Y-104870085D01*
X153713307Y-104861080D01*
X153704017Y-104858383D01*
X153674932Y-104850781D01*
X153633443Y-104840493D01*
X153583365Y-104828425D01*
X153528511Y-104815481D01*
X153472693Y-104802566D01*
X153419725Y-104790585D01*
X153373421Y-104780442D01*
X153362762Y-104778131D01*
X153327119Y-104770225D01*
X153280173Y-104759653D01*
X153226789Y-104747514D01*
X153171834Y-104734907D01*
X153157617Y-104731638D01*
X153090101Y-104716260D01*
X153014500Y-104699225D01*
X152939059Y-104682385D01*
X152872024Y-104667592D01*
X152832533Y-104658890D01*
X152786404Y-104648563D01*
X152749469Y-104640104D01*
X152724771Y-104634212D01*
X152715357Y-104631587D01*
X152715134Y-104629519D01*
X152715118Y-104612551D01*
X152715727Y-104580754D01*
X152716893Y-104536841D01*
X152718547Y-104483525D01*
X152720620Y-104423522D01*
X152722005Y-104384427D01*
X152724000Y-104321255D01*
X152725000Y-104273611D01*
X152724928Y-104239377D01*
X152723708Y-104216438D01*
X152721264Y-104202674D01*
X152717521Y-104195968D01*
X152712402Y-104194204D01*
X152710635Y-104194371D01*
X152705566Y-104197884D01*
X152701486Y-104207553D01*
X152698171Y-104225477D01*
X152695396Y-104253755D01*
X152692936Y-104294486D01*
X152690568Y-104349768D01*
X152688066Y-104421700D01*
X152681525Y-104622027D01*
X152626913Y-104614559D01*
X152617554Y-104613655D01*
X152587253Y-104612009D01*
X152541700Y-104610399D01*
X152483153Y-104608872D01*
X152413869Y-104607478D01*
X152336105Y-104606265D01*
X152252117Y-104605283D01*
X152164164Y-104604578D01*
X152127509Y-104604344D01*
X152034206Y-104603720D01*
X151957556Y-104603327D01*
X151896004Y-104603373D01*
X151847993Y-104604065D01*
X151811965Y-104605610D01*
X151786364Y-104608213D01*
X151769634Y-104612083D01*
X151760217Y-104617425D01*
X151756557Y-104624447D01*
X151757098Y-104633355D01*
X151760282Y-104644357D01*
X151764553Y-104657658D01*
X151768979Y-104674072D01*
X151777942Y-104711220D01*
X151789314Y-104761399D01*
X151802394Y-104821432D01*
X151816482Y-104888145D01*
X151830877Y-104958360D01*
X151835627Y-104981662D01*
X151845028Y-105026692D01*
X151853591Y-105066426D01*
X151859916Y-105094315D01*
X151862466Y-105105324D01*
X151869557Y-105137333D01*
X151879009Y-105181065D01*
X151889896Y-105232227D01*
X151901295Y-105286526D01*
X151905518Y-105306782D01*
X151918474Y-105368895D01*
X151931563Y-105431591D01*
X151943464Y-105488556D01*
X151952861Y-105533476D01*
X151959114Y-105564629D01*
X151965375Y-105599633D01*
X151968849Y-105624308D01*
X151968904Y-105634663D01*
X151961331Y-105638604D01*
X151939059Y-105648501D01*
X151905456Y-105662815D01*
X151863814Y-105680200D01*
X151817425Y-105699308D01*
X151769580Y-105718794D01*
X151723569Y-105737309D01*
X151682684Y-105753508D01*
X151650216Y-105766044D01*
X151629457Y-105773569D01*
X151590944Y-105787251D01*
X151554250Y-105802721D01*
X151530239Y-105816003D01*
X151521631Y-105825780D01*
X151491701Y-105825780D01*
X151492962Y-105818510D01*
X151498738Y-105788877D01*
X151506772Y-105749296D01*
X151516268Y-105703765D01*
X151525927Y-105657830D01*
X151539043Y-105595141D01*
X151554452Y-105521273D01*
X151571389Y-105439911D01*
X151589088Y-105354736D01*
X151606786Y-105269430D01*
X151623719Y-105187677D01*
X151639120Y-105113158D01*
X151652227Y-105049556D01*
X151662273Y-105000553D01*
X151669221Y-104966796D01*
X151680112Y-104914395D01*
X151692969Y-104852898D01*
X151706745Y-104787293D01*
X151720392Y-104722571D01*
X151732862Y-104663720D01*
X151743106Y-104615729D01*
X151752245Y-104597459D01*
X151777915Y-104578937D01*
X151864038Y-104541069D01*
X151962250Y-104497280D01*
X152058513Y-104453791D01*
X152145145Y-104414050D01*
X152148144Y-104412662D01*
X152195041Y-104391191D01*
X152245989Y-104368200D01*
X152290476Y-104348435D01*
X152308685Y-104340413D01*
X152349699Y-104322245D01*
X152400217Y-104299783D01*
X152455501Y-104275135D01*
X152510815Y-104250409D01*
X152549874Y-104232929D01*
X152598370Y-104211245D01*
X152640236Y-104192548D01*
X152671977Y-104178396D01*
X152690100Y-104170351D01*
X152690508Y-104170171D01*
X152700389Y-104166261D01*
X152709974Y-104164801D01*
X152712402Y-104165257D01*
G37*
G36*
X151382126Y-93358153D02*
G01*
X151403886Y-93358196D01*
X151444022Y-93366757D01*
X151498159Y-93383488D01*
X151545051Y-93401323D01*
X151596203Y-93424739D01*
X151647379Y-93451497D01*
X151695700Y-93479809D01*
X151738292Y-93507888D01*
X151772276Y-93533947D01*
X151794776Y-93556198D01*
X151802916Y-93572853D01*
X151802506Y-93574595D01*
X151796289Y-93589988D01*
X151783745Y-93617892D01*
X151766370Y-93655037D01*
X151745657Y-93698152D01*
X151738392Y-93713168D01*
X151719107Y-93753840D01*
X151703980Y-93786949D01*
X151694398Y-93809414D01*
X151691744Y-93818152D01*
X151701429Y-93823219D01*
X151721998Y-93831905D01*
X151743127Y-93839608D01*
X151756005Y-93842930D01*
X151756584Y-93842775D01*
X151766038Y-93833471D01*
X151783272Y-93811880D01*
X151806039Y-93780941D01*
X151832088Y-93743590D01*
X151899708Y-93644249D01*
X151907811Y-93645261D01*
X151950774Y-93650629D01*
X151985142Y-93657158D01*
X152040687Y-93673332D01*
X152102572Y-93696041D01*
X152165874Y-93723141D01*
X152225667Y-93752487D01*
X152277030Y-93781934D01*
X152315038Y-93809336D01*
X152350926Y-93840358D01*
X152296687Y-93944749D01*
X152282196Y-93973022D01*
X152263044Y-94013046D01*
X152252720Y-94040356D01*
X152250745Y-94057151D01*
X152256642Y-94065633D01*
X152269933Y-94068002D01*
X152271797Y-94068145D01*
X152291317Y-94074043D01*
X152323545Y-94087487D01*
X152365447Y-94106949D01*
X152413992Y-94130904D01*
X152466147Y-94157826D01*
X152518881Y-94186189D01*
X152569160Y-94214467D01*
X152613953Y-94241133D01*
X152615883Y-94242325D01*
X152657696Y-94268126D01*
X152696135Y-94291796D01*
X152727008Y-94310758D01*
X152746123Y-94322433D01*
X152754908Y-94327529D01*
X152769797Y-94333698D01*
X152786892Y-94335468D01*
X152811583Y-94333062D01*
X152849261Y-94326703D01*
X152895885Y-94319392D01*
X152950960Y-94312439D01*
X153000764Y-94307651D01*
X153078163Y-94301916D01*
X153093542Y-94337299D01*
X153113840Y-94383392D01*
X153147273Y-94455445D01*
X153178594Y-94516341D01*
X153210378Y-94570314D01*
X153245200Y-94621599D01*
X153270622Y-94654812D01*
X153285636Y-94674428D01*
X153334262Y-94733038D01*
X153355816Y-94758013D01*
X153389080Y-94794483D01*
X153413150Y-94817320D01*
X153429184Y-94827560D01*
X153438340Y-94826241D01*
X153438666Y-94824938D01*
X153437814Y-94810155D01*
X153434368Y-94782883D01*
X153428882Y-94747729D01*
X153426766Y-94734789D01*
X153419189Y-94683272D01*
X153411477Y-94624060D01*
X153404105Y-94561529D01*
X153397545Y-94500053D01*
X153392272Y-94444008D01*
X153388761Y-94397768D01*
X153387486Y-94365709D01*
X153387486Y-94318545D01*
X153478903Y-94324779D01*
X153499335Y-94326233D01*
X153524011Y-94328196D01*
X153543340Y-94329734D01*
X153581679Y-94333245D01*
X153607825Y-94336188D01*
X153645330Y-94341363D01*
X153647730Y-94461904D01*
X153647903Y-94469162D01*
X153650635Y-94523302D01*
X153655703Y-94581919D01*
X153662627Y-94642116D01*
X153670925Y-94700997D01*
X153680118Y-94755666D01*
X153689723Y-94803228D01*
X153699261Y-94840786D01*
X153708249Y-94865444D01*
X153716208Y-94874307D01*
X153721285Y-94868010D01*
X153731299Y-94848505D01*
X153743549Y-94820394D01*
X153761325Y-94778821D01*
X153786101Y-94725200D01*
X153813691Y-94668992D01*
X153842742Y-94612639D01*
X153871901Y-94558584D01*
X153899813Y-94509270D01*
X153925126Y-94467139D01*
X153946485Y-94434634D01*
X153962538Y-94414198D01*
X153971930Y-94408272D01*
X153978393Y-94410596D01*
X154000439Y-94418262D01*
X154033087Y-94429477D01*
X154071945Y-94442727D01*
X154126362Y-94462505D01*
X154209303Y-94497204D01*
X154288324Y-94535409D01*
X154358600Y-94574730D01*
X154415308Y-94612778D01*
X154444941Y-94635621D01*
X154481347Y-94665914D01*
X154504620Y-94689682D01*
X154516401Y-94709152D01*
X154518330Y-94726553D01*
X154512050Y-94744114D01*
X154509105Y-94750392D01*
X154499234Y-94774910D01*
X154485223Y-94812240D01*
X154468255Y-94859025D01*
X154449514Y-94911905D01*
X154430185Y-94967524D01*
X154411451Y-95022523D01*
X154394495Y-95073543D01*
X154380503Y-95117228D01*
X154363126Y-95176390D01*
X154342062Y-95256065D01*
X154321363Y-95342052D01*
X154301875Y-95430310D01*
X154284447Y-95516796D01*
X154269926Y-95597466D01*
X154259161Y-95668280D01*
X154252999Y-95725193D01*
X154247306Y-95802546D01*
X154272526Y-95802546D01*
X154282868Y-95801899D01*
X154311033Y-95798888D01*
X154351479Y-95793846D01*
X154352424Y-95793719D01*
X154400505Y-95787239D01*
X154454410Y-95779536D01*
X154455490Y-95779378D01*
X154579391Y-95761807D01*
X154703213Y-95745407D01*
X154822367Y-95730744D01*
X154932263Y-95718382D01*
X155028312Y-95708885D01*
X155072623Y-95704739D01*
X155126941Y-95699295D01*
X155176359Y-95693985D01*
X155213983Y-95689528D01*
X155215833Y-95689298D01*
X155244832Y-95686602D01*
X155289105Y-95683513D01*
X155315615Y-95681958D01*
X155877115Y-95681958D01*
X155877473Y-95683658D01*
X155886662Y-95696208D01*
X155905957Y-95718615D01*
X155933161Y-95748384D01*
X155966080Y-95783021D01*
X156019784Y-95840559D01*
X156078564Y-95907299D01*
X156136939Y-95976961D01*
X156191646Y-96045549D01*
X156239422Y-96109070D01*
X156277001Y-96163528D01*
X156303588Y-96205831D01*
X156349793Y-96284102D01*
X156397246Y-96369766D01*
X156444863Y-96460472D01*
X156491561Y-96553869D01*
X156536257Y-96647606D01*
X156577868Y-96739331D01*
X156615311Y-96826693D01*
X156647503Y-96907342D01*
X156673360Y-96978925D01*
X156691799Y-97039093D01*
X156701738Y-97085494D01*
X156708404Y-97133960D01*
X156674707Y-97133960D01*
X156669653Y-97134050D01*
X156649273Y-97136716D01*
X156641011Y-97141930D01*
X156641054Y-97142454D01*
X156647640Y-97155720D01*
X156663798Y-97179691D01*
X156687165Y-97211048D01*
X156715384Y-97246474D01*
X156725505Y-97257889D01*
X156735701Y-97263375D01*
X156743936Y-97255850D01*
X156745559Y-97253058D01*
X156751815Y-97225698D01*
X156751028Y-97184213D01*
X156743739Y-97131193D01*
X156730488Y-97069228D01*
X156711817Y-97000909D01*
X156688266Y-96928825D01*
X156660376Y-96855566D01*
X156635315Y-96794877D01*
X156575320Y-96654524D01*
X156518282Y-96529006D01*
X156462905Y-96415964D01*
X156407892Y-96313041D01*
X156351947Y-96217877D01*
X156293773Y-96128114D01*
X156232073Y-96041392D01*
X156165553Y-95955354D01*
X156155178Y-95942537D01*
X156110778Y-95890009D01*
X156065446Y-95839688D01*
X156021027Y-95793323D01*
X155979363Y-95752660D01*
X155964357Y-95739213D01*
X156626659Y-95739213D01*
X156631691Y-95750329D01*
X156646661Y-95772232D01*
X156669494Y-95802055D01*
X156698113Y-95836931D01*
X156699094Y-95838091D01*
X156783015Y-95944666D01*
X156858269Y-96056091D01*
X156926847Y-96175838D01*
X156990737Y-96307380D01*
X157051932Y-96454189D01*
X157091717Y-96558166D01*
X157132336Y-96669468D01*
X157166269Y-96769663D01*
X157194394Y-96861859D01*
X157217590Y-96949164D01*
X157236735Y-97034685D01*
X157252707Y-97121529D01*
X157266385Y-97212805D01*
X157270073Y-97237084D01*
X157275608Y-97257716D01*
X157283883Y-97267649D01*
X157297342Y-97271516D01*
X157316454Y-97275401D01*
X157351553Y-97284455D01*
X157395233Y-97296876D01*
X157442511Y-97311154D01*
X157488404Y-97325775D01*
X157527930Y-97339230D01*
X157556108Y-97350007D01*
X157571187Y-97356366D01*
X157592707Y-97364985D01*
X157602844Y-97368364D01*
X157606876Y-97360023D01*
X157606128Y-97336380D01*
X157601081Y-97300118D01*
X157592296Y-97253921D01*
X157580331Y-97200471D01*
X157565746Y-97142452D01*
X157549099Y-97082547D01*
X157530951Y-97023439D01*
X157510278Y-96965325D01*
X157479198Y-96889906D01*
X157443511Y-96812781D01*
X157405644Y-96738888D01*
X157368021Y-96673165D01*
X157333067Y-96620551D01*
X157294591Y-96568468D01*
X157345191Y-96526014D01*
X157363340Y-96510181D01*
X157396918Y-96479222D01*
X157436683Y-96441225D01*
X157479798Y-96399030D01*
X157523427Y-96355477D01*
X157564733Y-96313405D01*
X157600882Y-96275654D01*
X157629036Y-96245063D01*
X157646359Y-96224473D01*
X157670927Y-96191657D01*
X157694183Y-96215097D01*
X157711818Y-96234298D01*
X157753986Y-96290364D01*
X157797270Y-96360617D01*
X157840252Y-96442062D01*
X157881511Y-96531703D01*
X157919630Y-96626547D01*
X157953187Y-96723597D01*
X157980764Y-96819859D01*
X157989859Y-96855992D01*
X158004506Y-96917273D01*
X158015432Y-96969888D01*
X158023176Y-97018406D01*
X158028280Y-97067395D01*
X158031283Y-97121423D01*
X158032725Y-97185061D01*
X158033147Y-97262875D01*
X158033557Y-97330987D01*
X158034754Y-97390939D01*
X158036702Y-97434300D01*
X158039365Y-97460353D01*
X158042712Y-97468381D01*
X158044728Y-97467000D01*
X158052298Y-97452574D01*
X158058580Y-97428539D01*
X158061167Y-97407435D01*
X158063652Y-97365016D01*
X158064923Y-97311078D01*
X158065052Y-97249793D01*
X158064107Y-97185336D01*
X158062160Y-97121880D01*
X158059280Y-97063599D01*
X158055539Y-97014665D01*
X158051006Y-96979254D01*
X158044799Y-96945908D01*
X158006144Y-96776771D01*
X157957748Y-96621884D01*
X157898828Y-96479307D01*
X157828603Y-96347101D01*
X157746291Y-96223326D01*
X157739389Y-96213892D01*
X157719563Y-96185863D01*
X157705721Y-96164858D01*
X157700516Y-96154852D01*
X157701413Y-96151788D01*
X157709735Y-96136221D01*
X157723957Y-96113974D01*
X157730236Y-96104426D01*
X157742517Y-96083395D01*
X157747397Y-96071130D01*
X157747018Y-96068460D01*
X157739816Y-96069296D01*
X157723874Y-96085586D01*
X157699712Y-96116736D01*
X157667850Y-96162149D01*
X157657034Y-96177814D01*
X157629095Y-96216379D01*
X157602189Y-96251260D01*
X157580899Y-96276431D01*
X157574050Y-96283753D01*
X157530183Y-96328399D01*
X157477002Y-96379708D01*
X157418945Y-96433620D01*
X157360447Y-96486073D01*
X157305943Y-96533006D01*
X157259870Y-96570358D01*
X157221001Y-96599614D01*
X157186819Y-96622886D01*
X157164011Y-96634622D01*
X157151279Y-96635463D01*
X157147323Y-96626053D01*
X157147302Y-96625212D01*
X157142742Y-96604883D01*
X157131047Y-96570669D01*
X157113418Y-96525249D01*
X157091054Y-96471305D01*
X157065158Y-96411516D01*
X157036928Y-96348562D01*
X157007566Y-96285125D01*
X156978273Y-96223884D01*
X156950248Y-96167520D01*
X156924693Y-96118713D01*
X156902807Y-96080143D01*
X156897660Y-96071574D01*
X156880736Y-96041973D01*
X156872735Y-96023703D01*
X156872503Y-96013241D01*
X156878888Y-96007065D01*
X156885023Y-96003491D01*
X156916790Y-95981752D01*
X156952882Y-95952934D01*
X156990952Y-95919416D01*
X157028655Y-95883579D01*
X157063643Y-95847801D01*
X157093572Y-95814462D01*
X157116093Y-95785942D01*
X157128862Y-95764620D01*
X157129531Y-95752876D01*
X157120784Y-95750807D01*
X157099367Y-95752923D01*
X157072079Y-95758828D01*
X157045027Y-95766898D01*
X157024317Y-95775510D01*
X157016057Y-95783040D01*
X157021948Y-95789872D01*
X157039497Y-95797021D01*
X157054989Y-95803053D01*
X157062938Y-95811441D01*
X157062924Y-95811638D01*
X157055658Y-95821903D01*
X157037205Y-95841081D01*
X157010731Y-95866303D01*
X156979399Y-95894697D01*
X156946376Y-95923392D01*
X156914824Y-95949519D01*
X156887909Y-95970207D01*
X156848835Y-95998442D01*
X156810736Y-95940343D01*
X156793231Y-95915503D01*
X156767304Y-95882214D01*
X156737891Y-95846979D01*
X156707517Y-95812571D01*
X156678707Y-95781761D01*
X156653987Y-95757319D01*
X156635882Y-95742017D01*
X156626917Y-95738626D01*
X156626659Y-95739213D01*
X155964357Y-95739213D01*
X155942297Y-95719445D01*
X155911672Y-95695425D01*
X155889330Y-95682347D01*
X155877115Y-95681958D01*
X155315615Y-95681958D01*
X155345483Y-95680206D01*
X155410800Y-95676855D01*
X155481887Y-95673636D01*
X155555577Y-95670722D01*
X155572228Y-95670098D01*
X155641498Y-95667181D01*
X155704570Y-95664022D01*
X155758934Y-95660781D01*
X155802082Y-95657620D01*
X155831504Y-95654698D01*
X155844691Y-95652178D01*
X155858588Y-95647219D01*
X155877115Y-95643222D01*
X155890981Y-95640230D01*
X155935787Y-95633228D01*
X155989380Y-95626605D01*
X156048132Y-95620751D01*
X156108419Y-95616060D01*
X156166611Y-95612922D01*
X156219084Y-95611730D01*
X156284924Y-95612444D01*
X156354372Y-95616141D01*
X156411604Y-95623606D01*
X156460176Y-95635534D01*
X156503644Y-95652620D01*
X156545563Y-95675560D01*
X156563497Y-95686389D01*
X156586314Y-95698798D01*
X156609333Y-95708740D01*
X156626917Y-95714363D01*
X156636209Y-95717335D01*
X156670602Y-95725700D01*
X156716168Y-95734954D01*
X156776567Y-95746217D01*
X156942140Y-95776532D01*
X156995507Y-95757667D01*
X157026234Y-95747312D01*
X157089248Y-95729919D01*
X157140289Y-95721679D01*
X157177382Y-95722968D01*
X157179462Y-95723414D01*
X157214004Y-95732341D01*
X157260695Y-95746268D01*
X157314598Y-95763533D01*
X157370779Y-95782476D01*
X157424299Y-95801436D01*
X157470224Y-95818750D01*
X157503617Y-95832759D01*
X157509303Y-95835392D01*
X157575547Y-95866120D01*
X157627020Y-95890390D01*
X157665785Y-95909574D01*
X157693906Y-95925045D01*
X157713446Y-95938177D01*
X157726466Y-95950342D01*
X157735032Y-95962913D01*
X157741205Y-95977264D01*
X157747049Y-95994767D01*
X157751251Y-96007140D01*
X157758688Y-96023597D01*
X157769460Y-96037036D01*
X157786912Y-96050340D01*
X157814385Y-96066392D01*
X157855223Y-96088076D01*
X157905599Y-96115521D01*
X157969625Y-96152492D01*
X158038051Y-96193730D01*
X158106690Y-96236614D01*
X158171353Y-96278524D01*
X158227852Y-96316839D01*
X158272000Y-96348936D01*
X158357364Y-96416567D01*
X158453220Y-96498392D01*
X158535455Y-96575806D01*
X158603218Y-96647949D01*
X158655656Y-96713960D01*
X158691916Y-96772978D01*
X158692530Y-96774201D01*
X158705842Y-96803293D01*
X158721482Y-96841096D01*
X158737854Y-96883276D01*
X158753364Y-96925498D01*
X158766417Y-96963427D01*
X158775419Y-96992727D01*
X158778774Y-97009065D01*
X158777843Y-97012108D01*
X158768170Y-97009740D01*
X158747561Y-96993728D01*
X158715485Y-96963689D01*
X158693709Y-96942939D01*
X158658402Y-96911367D01*
X158625033Y-96883743D01*
X158596501Y-96862322D01*
X158575709Y-96849360D01*
X158565558Y-96847114D01*
X158566722Y-96851053D01*
X158576813Y-96867068D01*
X158594960Y-96892179D01*
X158618836Y-96923069D01*
X158631333Y-96939117D01*
X158657441Y-96974945D01*
X158684880Y-97016052D01*
X158715451Y-97065292D01*
X158750953Y-97125521D01*
X158793188Y-97199593D01*
X158802621Y-97224799D01*
X158806697Y-97268504D01*
X158801582Y-97325682D01*
X158787184Y-97397237D01*
X158763408Y-97484072D01*
X158762798Y-97485970D01*
X158757766Y-97492389D01*
X158749190Y-97486112D01*
X158734238Y-97465319D01*
X158691250Y-97407188D01*
X158632246Y-97341768D01*
X158571175Y-97287649D01*
X158545156Y-97268402D01*
X158521737Y-97253612D01*
X158511084Y-97250883D01*
X158513671Y-97260281D01*
X158529972Y-97281873D01*
X158545940Y-97302598D01*
X158572798Y-97341805D01*
X158602978Y-97389415D01*
X158633547Y-97440618D01*
X158661573Y-97490607D01*
X158684121Y-97534573D01*
X158716047Y-97601286D01*
X158685420Y-97649014D01*
X158681835Y-97654532D01*
X158657509Y-97687227D01*
X158631117Y-97711815D01*
X158597272Y-97732466D01*
X158550586Y-97753348D01*
X158522781Y-97764237D01*
X158504008Y-97769527D01*
X158493712Y-97768097D01*
X158487346Y-97760460D01*
X158475938Y-97749699D01*
X158450641Y-97731523D01*
X158414064Y-97707572D01*
X158368800Y-97679456D01*
X158317444Y-97648785D01*
X158262589Y-97617172D01*
X158206828Y-97586225D01*
X158200069Y-97582599D01*
X158166281Y-97565483D01*
X158129707Y-97548223D01*
X158094266Y-97532510D01*
X158063877Y-97520035D01*
X158042458Y-97512493D01*
X158033928Y-97511573D01*
X158033831Y-97511850D01*
X158028909Y-97522126D01*
X158019069Y-97541604D01*
X158014928Y-97548563D01*
X157998878Y-97563997D01*
X157974027Y-97574471D01*
X157937950Y-97580470D01*
X157888218Y-97582480D01*
X157822406Y-97580988D01*
X157818638Y-97580824D01*
X157734538Y-97572104D01*
X157662013Y-97553070D01*
X157596106Y-97521949D01*
X157531864Y-97476966D01*
X157495046Y-97447395D01*
X157432432Y-97398105D01*
X157381763Y-97360052D01*
X157341622Y-97332474D01*
X157310593Y-97314609D01*
X157287259Y-97305697D01*
X157270203Y-97304976D01*
X157258009Y-97311684D01*
X157249261Y-97325060D01*
X157248468Y-97326780D01*
X157240895Y-97339310D01*
X157229702Y-97346149D01*
X157209847Y-97348986D01*
X157176291Y-97349511D01*
X157158795Y-97349180D01*
X157115733Y-97346835D01*
X157058721Y-97342148D01*
X156986610Y-97335011D01*
X156898252Y-97325314D01*
X156792497Y-97312947D01*
X156769432Y-97309634D01*
X156736272Y-97301230D01*
X156707998Y-97287119D01*
X156681025Y-97264677D01*
X156651767Y-97231283D01*
X156616642Y-97184316D01*
X156597724Y-97159029D01*
X156578995Y-97138597D01*
X156558396Y-97123612D01*
X156531800Y-97111779D01*
X156495081Y-97100803D01*
X156444112Y-97088390D01*
X156335674Y-97066023D01*
X156186792Y-97043061D01*
X156027436Y-97026151D01*
X155861784Y-97015716D01*
X155694019Y-97012181D01*
X155583337Y-97013543D01*
X155441907Y-97020130D01*
X155316048Y-97032528D01*
X155204322Y-97051124D01*
X155105291Y-97076305D01*
X155017516Y-97108458D01*
X154939559Y-97147969D01*
X154869981Y-97195225D01*
X154807344Y-97250613D01*
X154742930Y-97324333D01*
X154695567Y-97400949D01*
X154666531Y-97479839D01*
X154655609Y-97561860D01*
X154662591Y-97647869D01*
X154687266Y-97738722D01*
X154702550Y-97778883D01*
X154757947Y-97897912D01*
X154829349Y-98020414D01*
X154915546Y-98144241D01*
X154927107Y-98160261D01*
X154937884Y-98177425D01*
X154939641Y-98184089D01*
X154933554Y-98182514D01*
X154912714Y-98175650D01*
X154881111Y-98164593D01*
X154842724Y-98150711D01*
X154804798Y-98136811D01*
X154764090Y-98122004D01*
X154733719Y-98111266D01*
X154709451Y-98103204D01*
X154687051Y-98096431D01*
X154662285Y-98089556D01*
X154630921Y-98081190D01*
X154619792Y-98078286D01*
X154587129Y-98070405D01*
X154563534Y-98065690D01*
X154553503Y-98065075D01*
X154554051Y-98066172D01*
X154566376Y-98073682D01*
X154592554Y-98086948D01*
X154630079Y-98104865D01*
X154676445Y-98126328D01*
X154729146Y-98150229D01*
X154785677Y-98175465D01*
X154843530Y-98200928D01*
X154900199Y-98225512D01*
X154953180Y-98248113D01*
X154999965Y-98267624D01*
X155038048Y-98282939D01*
X155064923Y-98292952D01*
X155078085Y-98296557D01*
X155078549Y-98296400D01*
X155075518Y-98287808D01*
X155063416Y-98268698D01*
X155044502Y-98242690D01*
X155026384Y-98218401D01*
X154991036Y-98168755D01*
X154952433Y-98112300D01*
X154912951Y-98052700D01*
X154874968Y-97993622D01*
X154840862Y-97938730D01*
X154813009Y-97891689D01*
X154793787Y-97856164D01*
X154784472Y-97837119D01*
X154758802Y-97780687D01*
X154741374Y-97733056D01*
X154730784Y-97688800D01*
X154725625Y-97642492D01*
X154724491Y-97588704D01*
X154730089Y-97510082D01*
X154747813Y-97438579D01*
X154779287Y-97375231D01*
X154826156Y-97316777D01*
X154890063Y-97259952D01*
X154910647Y-97244351D01*
X155002584Y-97186265D01*
X155101848Y-97142053D01*
X155210280Y-97111158D01*
X155329723Y-97093023D01*
X155462021Y-97087092D01*
X155497148Y-97087432D01*
X155582935Y-97091478D01*
X155667972Y-97100573D01*
X155754694Y-97115323D01*
X155845535Y-97136334D01*
X155942930Y-97164209D01*
X156049312Y-97199554D01*
X156167118Y-97242974D01*
X156298781Y-97295075D01*
X156366720Y-97323426D01*
X156463636Y-97366209D01*
X156559512Y-97411045D01*
X156651018Y-97456277D01*
X156734827Y-97500245D01*
X156807610Y-97541291D01*
X156866038Y-97577756D01*
X156882922Y-97589236D01*
X156982971Y-97663834D01*
X157076665Y-97744714D01*
X157160062Y-97828258D01*
X157229215Y-97910849D01*
X157232780Y-97915723D01*
X157252537Y-97945744D01*
X157275680Y-97984601D01*
X157300352Y-98028730D01*
X157324699Y-98074569D01*
X157346866Y-98118553D01*
X157364996Y-98157121D01*
X157377235Y-98186707D01*
X157381727Y-98203750D01*
X157381656Y-98206215D01*
X157378979Y-98212774D01*
X157369865Y-98213031D01*
X157350842Y-98206346D01*
X157318438Y-98192076D01*
X157247235Y-98161799D01*
X157166178Y-98133203D01*
X157077002Y-98108268D01*
X157067731Y-98105936D01*
X157031002Y-98096669D01*
X157000914Y-98089041D01*
X156983240Y-98084513D01*
X156977532Y-98083981D01*
X156981320Y-98088183D01*
X156996000Y-98097987D01*
X157022951Y-98114258D01*
X157063555Y-98137861D01*
X157119195Y-98169662D01*
X157125872Y-98173504D01*
X157172988Y-98202408D01*
X157225872Y-98237308D01*
X157280146Y-98275089D01*
X157331429Y-98312640D01*
X157375344Y-98346848D01*
X157407511Y-98374600D01*
X157413992Y-98380776D01*
X157425666Y-98393470D01*
X157432763Y-98406792D01*
X157436423Y-98425272D01*
X157437783Y-98453443D01*
X157437984Y-98495835D01*
X157437911Y-98504943D01*
X157435774Y-98550532D01*
X157431170Y-98597863D01*
X157424760Y-98642840D01*
X157417207Y-98681368D01*
X157409172Y-98709353D01*
X157401318Y-98722700D01*
X157397588Y-98722904D01*
X157381332Y-98716481D01*
X157358747Y-98702962D01*
X157321480Y-98680563D01*
X157261082Y-98651017D01*
X157190575Y-98622096D01*
X157114687Y-98595706D01*
X157038144Y-98573751D01*
X157023912Y-98570213D01*
X156986739Y-98562169D01*
X156967063Y-98560456D01*
X156964719Y-98565202D01*
X156979542Y-98576536D01*
X157011369Y-98594585D01*
X157034631Y-98607355D01*
X157125429Y-98663748D01*
X157213795Y-98728176D01*
X157291724Y-98794918D01*
X157358287Y-98857631D01*
X157331021Y-98910604D01*
X157325495Y-98920966D01*
X157281721Y-98985925D01*
X157228132Y-99042282D01*
X157169428Y-99084964D01*
X157156281Y-99092379D01*
X157131696Y-99104467D01*
X157109822Y-99110436D01*
X157083535Y-99111713D01*
X157045710Y-99109723D01*
X157027346Y-99108134D01*
X156984830Y-99101773D01*
X156939031Y-99090870D01*
X156887311Y-99074543D01*
X156827031Y-99051909D01*
X156755551Y-99022086D01*
X156670233Y-98984192D01*
X156617706Y-98960590D01*
X156499492Y-98909460D01*
X156392861Y-98866669D01*
X156294680Y-98831204D01*
X156201812Y-98802046D01*
X156111122Y-98778179D01*
X156019475Y-98758589D01*
X155923735Y-98742259D01*
X155898110Y-98738351D01*
X155858357Y-98732255D01*
X155826776Y-98727371D01*
X155808553Y-98724498D01*
X155796719Y-98722936D01*
X155791317Y-98724011D01*
X155800762Y-98729372D01*
X155825818Y-98739342D01*
X155867249Y-98754247D01*
X155925817Y-98774413D01*
X155938828Y-98778858D01*
X155988974Y-98796382D01*
X156035380Y-98813166D01*
X156073361Y-98827491D01*
X156098227Y-98837638D01*
X156141453Y-98856959D01*
X156180786Y-98977306D01*
X156205914Y-99059922D01*
X156223501Y-99133154D01*
X156233114Y-99197892D01*
X156235342Y-99258145D01*
X156230773Y-99317924D01*
X156228988Y-99330714D01*
X156209360Y-99411000D01*
X156176118Y-99479773D01*
X156128247Y-99539226D01*
X156123818Y-99543616D01*
X156092281Y-99572041D01*
X156060285Y-99594558D01*
X156025226Y-99611808D01*
X155984498Y-99624435D01*
X155935494Y-99633078D01*
X155875609Y-99638379D01*
X155802237Y-99640981D01*
X155712772Y-99641525D01*
X155710943Y-99641520D01*
X155641656Y-99640719D01*
X155570049Y-99638887D01*
X155501389Y-99636225D01*
X155440944Y-99632938D01*
X155393982Y-99629228D01*
X155347308Y-99624526D01*
X155280449Y-99617733D01*
X155211673Y-99610694D01*
X155150202Y-99604352D01*
X155124945Y-99601892D01*
X155051224Y-99595981D01*
X154965587Y-99590530D01*
X154871861Y-99585673D01*
X154773871Y-99581543D01*
X154675443Y-99578275D01*
X154580402Y-99576002D01*
X154492574Y-99574858D01*
X154415785Y-99574977D01*
X154353860Y-99576492D01*
X154257087Y-99581388D01*
X154161031Y-99588445D01*
X154080159Y-99597244D01*
X154012578Y-99608041D01*
X153956397Y-99621092D01*
X153909725Y-99636653D01*
X153812987Y-99678587D01*
X153662634Y-99756895D01*
X153509270Y-99852007D01*
X153353892Y-99963106D01*
X153197494Y-100089372D01*
X153041074Y-100229986D01*
X152885625Y-100384127D01*
X152732145Y-100550976D01*
X152581628Y-100729715D01*
X152451847Y-100895923D01*
X152300562Y-101105084D01*
X152164038Y-101312326D01*
X152042982Y-101516507D01*
X151938102Y-101716483D01*
X151850107Y-101911110D01*
X151829049Y-101960549D01*
X151812834Y-101995009D01*
X151801811Y-102013283D01*
X151795505Y-102016153D01*
X151793439Y-102004403D01*
X151793430Y-102003563D01*
X151792059Y-101980851D01*
X151788734Y-101944258D01*
X151783966Y-101898215D01*
X151778262Y-101847155D01*
X151772134Y-101795510D01*
X151766090Y-101747714D01*
X151760641Y-101708198D01*
X151756297Y-101681395D01*
X151738477Y-101601793D01*
X151711209Y-101508394D01*
X151678871Y-101420356D01*
X151643131Y-101342144D01*
X151605657Y-101278220D01*
X151571134Y-101230022D01*
X151509095Y-101156062D01*
X151442554Y-101094142D01*
X151366771Y-101040101D01*
X151277007Y-100989778D01*
X151268126Y-100985363D01*
X151168357Y-100945588D01*
X151057499Y-100917299D01*
X150939366Y-100901039D01*
X150817772Y-100897353D01*
X150696529Y-100906788D01*
X150612695Y-100920068D01*
X150501356Y-100945446D01*
X150400250Y-100978963D01*
X150304878Y-101021942D01*
X150164849Y-101102194D01*
X150017075Y-101207005D01*
X149877528Y-101328000D01*
X149747003Y-101464484D01*
X149626294Y-101615762D01*
X149610857Y-101637020D01*
X149578890Y-101682008D01*
X149558565Y-101712590D01*
X149549921Y-101729011D01*
X149552996Y-101731515D01*
X149567827Y-101720344D01*
X149594454Y-101695743D01*
X149632914Y-101657954D01*
X149711820Y-101582383D01*
X149820673Y-101486932D01*
X149933421Y-101397045D01*
X150046614Y-101315311D01*
X150156803Y-101244321D01*
X150260538Y-101186665D01*
X150267716Y-101183190D01*
X150299925Y-101169086D01*
X150343262Y-101151457D01*
X150392719Y-101132226D01*
X150443292Y-101113312D01*
X150489974Y-101096637D01*
X150527759Y-101084122D01*
X150573386Y-101071911D01*
X150659286Y-101056327D01*
X150753889Y-101046627D01*
X150852774Y-101042798D01*
X150951517Y-101044828D01*
X151045698Y-101052705D01*
X151130894Y-101066417D01*
X151202683Y-101085953D01*
X151233747Y-101097790D01*
X151331601Y-101147917D01*
X151419843Y-101213964D01*
X151497963Y-101295502D01*
X151565455Y-101392103D01*
X151572428Y-101403853D01*
X151605916Y-101462911D01*
X151631442Y-101514478D01*
X151651653Y-101565043D01*
X151669200Y-101621093D01*
X151686730Y-101689114D01*
X151690615Y-101705524D01*
X151706230Y-101782260D01*
X151716429Y-101856639D01*
X151721595Y-101933836D01*
X151722109Y-102019026D01*
X151718355Y-102117386D01*
X151714225Y-102187824D01*
X151709919Y-102244966D01*
X151704801Y-102293833D01*
X151698223Y-102339667D01*
X151689537Y-102387711D01*
X151678095Y-102443207D01*
X151677652Y-102445297D01*
X151672170Y-102476209D01*
X151670218Y-102498152D01*
X151672224Y-102506496D01*
X151679219Y-102503226D01*
X151697179Y-102490456D01*
X151720513Y-102471336D01*
X151724391Y-102468034D01*
X151754558Y-102444466D01*
X151797828Y-102413456D01*
X151854964Y-102374482D01*
X151926727Y-102327023D01*
X152013879Y-102270556D01*
X152014580Y-102270106D01*
X152076179Y-102232797D01*
X152148148Y-102192804D01*
X152225293Y-102152741D01*
X152302415Y-102115223D01*
X152374318Y-102082865D01*
X152435806Y-102058281D01*
X152458256Y-102050346D01*
X152553305Y-102020555D01*
X152658469Y-101992678D01*
X152766912Y-101968419D01*
X152871797Y-101949486D01*
X152884031Y-101947639D01*
X153013059Y-101935197D01*
X153139375Y-101935461D01*
X153261024Y-101947917D01*
X153376053Y-101972052D01*
X153482508Y-102007353D01*
X153578436Y-102053307D01*
X153661882Y-102109400D01*
X153730893Y-102175120D01*
X153753389Y-102201793D01*
X153784189Y-102240648D01*
X153812222Y-102278456D01*
X153835145Y-102311905D01*
X153850616Y-102337682D01*
X153856293Y-102352476D01*
X153856179Y-102353276D01*
X153846196Y-102354993D01*
X153820567Y-102347816D01*
X153779965Y-102331925D01*
X153764063Y-102325330D01*
X153732378Y-102312941D01*
X153709664Y-102305122D01*
X153700029Y-102303341D01*
X153699970Y-102303416D01*
X153705404Y-102310772D01*
X153722236Y-102326008D01*
X153746943Y-102345926D01*
X153748005Y-102346748D01*
X153780701Y-102374115D01*
X153817762Y-102408053D01*
X153851368Y-102441414D01*
X153905271Y-102497926D01*
X153901663Y-102595407D01*
X153900238Y-102625449D01*
X153897547Y-102661836D01*
X153894417Y-102687997D01*
X153891272Y-102699670D01*
X153883426Y-102697951D01*
X153866392Y-102685442D01*
X153844608Y-102664668D01*
X153842809Y-102662790D01*
X153809564Y-102630001D01*
X153779966Y-102604054D01*
X153755589Y-102585641D01*
X153738010Y-102575451D01*
X153728803Y-102574175D01*
X153729544Y-102582504D01*
X153741808Y-102601127D01*
X153767171Y-102630735D01*
X153780385Y-102645431D01*
X153810428Y-102680895D01*
X153836401Y-102714166D01*
X153853817Y-102739603D01*
X153854927Y-102741483D01*
X153865581Y-102761465D01*
X153870932Y-102779388D01*
X153870378Y-102799027D01*
X153863318Y-102824155D01*
X153849149Y-102858545D01*
X153827269Y-102905971D01*
X153825881Y-102908918D01*
X153810200Y-102939489D01*
X153795040Y-102959152D01*
X153774397Y-102973791D01*
X153742264Y-102989294D01*
X153733797Y-102992850D01*
X153687013Y-103007521D01*
X153627440Y-103020404D01*
X153559911Y-103030730D01*
X153489254Y-103037728D01*
X153420302Y-103040628D01*
X153419804Y-103040633D01*
X153376909Y-103043332D01*
X153321471Y-103050047D01*
X153258949Y-103059840D01*
X153194804Y-103071777D01*
X153134498Y-103084922D01*
X153083491Y-103098339D01*
X153055582Y-103107157D01*
X152957151Y-103146721D01*
X152857727Y-103200147D01*
X152755899Y-103268354D01*
X152650257Y-103352261D01*
X152539389Y-103452787D01*
X152510306Y-103480688D01*
X152470311Y-103519370D01*
X152440265Y-103549074D01*
X152417832Y-103572242D01*
X152400678Y-103591316D01*
X152386469Y-103608737D01*
X152372871Y-103626947D01*
X152365287Y-103636479D01*
X152343088Y-103661578D01*
X152310957Y-103696090D01*
X152270976Y-103737928D01*
X152225227Y-103785003D01*
X152175791Y-103835229D01*
X152124749Y-103886518D01*
X152074184Y-103936784D01*
X152026177Y-103983939D01*
X151982810Y-104025896D01*
X151946165Y-104060568D01*
X151918323Y-104085867D01*
X151901365Y-104099706D01*
X151900606Y-104100227D01*
X151877825Y-104116130D01*
X151844431Y-104139767D01*
X151804793Y-104168031D01*
X151763282Y-104197818D01*
X151704080Y-104238224D01*
X151594955Y-104300401D01*
X151488098Y-104344645D01*
X151382534Y-104371242D01*
X151277294Y-104380480D01*
X151171405Y-104372646D01*
X151124111Y-104363274D01*
X151048730Y-104340534D01*
X150976059Y-104309975D01*
X150911441Y-104273962D01*
X150860218Y-104234863D01*
X150851151Y-104226137D01*
X150823201Y-104196671D01*
X150794640Y-104163574D01*
X150768900Y-104131104D01*
X150749410Y-104103523D01*
X150739602Y-104085088D01*
X150733485Y-104072507D01*
X150721858Y-104069063D01*
X150698576Y-104073145D01*
X150694969Y-104073863D01*
X150669114Y-104076778D01*
X150630201Y-104079170D01*
X150582863Y-104080810D01*
X150531729Y-104081466D01*
X150502985Y-104081436D01*
X150453661Y-104080589D01*
X150414629Y-104078117D01*
X150380161Y-104073339D01*
X150344531Y-104065575D01*
X150302013Y-104054144D01*
X150301168Y-104053905D01*
X150208048Y-104024972D01*
X150115878Y-103990601D01*
X150019467Y-103948694D01*
X149913621Y-103897150D01*
X149809054Y-103842655D01*
X149709654Y-103787491D01*
X149617159Y-103731969D01*
X149529218Y-103674322D01*
X149443480Y-103612784D01*
X149357593Y-103545588D01*
X149269207Y-103470969D01*
X149175970Y-103387160D01*
X149075531Y-103292394D01*
X148965539Y-103184906D01*
X148910132Y-103129589D01*
X148850199Y-103068797D01*
X148793271Y-103010109D01*
X148741436Y-102955718D01*
X148696783Y-102907817D01*
X148661399Y-102868600D01*
X148637374Y-102840260D01*
X148636346Y-102838969D01*
X148606663Y-102801740D01*
X148579998Y-102768393D01*
X148559234Y-102742529D01*
X148547255Y-102727746D01*
X148540056Y-102719752D01*
X148535001Y-102718376D01*
X148532278Y-102727505D01*
X148531142Y-102749887D01*
X148530846Y-102788271D01*
X148530846Y-102788946D01*
X148532840Y-102832247D01*
X148538397Y-102889505D01*
X148546853Y-102956493D01*
X148557546Y-103028982D01*
X148569812Y-103102746D01*
X148582989Y-103173556D01*
X148596414Y-103237185D01*
X148609424Y-103289405D01*
X148612584Y-103300775D01*
X148632942Y-103375628D01*
X148653875Y-103454968D01*
X148673429Y-103531302D01*
X148689651Y-103597137D01*
X148697225Y-103625842D01*
X148712865Y-103677447D01*
X148731531Y-103733025D01*
X148750647Y-103784660D01*
X148763776Y-103819011D01*
X148783469Y-103873480D01*
X148801365Y-103926117D01*
X148814772Y-103969176D01*
X148817909Y-103979919D01*
X148830852Y-104021695D01*
X148843614Y-104059543D01*
X148853831Y-104086378D01*
X148859213Y-104099133D01*
X148872000Y-104130027D01*
X148889161Y-104171886D01*
X148909126Y-104220875D01*
X148930325Y-104273164D01*
X148941893Y-104301261D01*
X148966949Y-104359419D01*
X148992598Y-104415935D01*
X149016408Y-104465519D01*
X149035946Y-104502880D01*
X149042878Y-104515243D01*
X149070599Y-104565250D01*
X149100189Y-104619308D01*
X149126319Y-104667700D01*
X149136754Y-104686512D01*
X149165154Y-104734186D01*
X149201395Y-104791870D01*
X149243219Y-104856202D01*
X149288368Y-104923821D01*
X149334584Y-104991366D01*
X149379608Y-105055476D01*
X149421183Y-105112790D01*
X149457050Y-105159948D01*
X149485318Y-105194917D01*
X149552545Y-105272851D01*
X149629529Y-105356438D01*
X149713601Y-105443129D01*
X149802091Y-105530375D01*
X149892330Y-105615629D01*
X149981648Y-105696342D01*
X150067375Y-105769966D01*
X150146842Y-105833952D01*
X150217380Y-105885752D01*
X150248837Y-105907765D01*
X150293012Y-105939328D01*
X150340787Y-105973977D01*
X150386151Y-106007378D01*
X150431694Y-106041120D01*
X150548731Y-106126576D01*
X150654098Y-106201362D01*
X150749661Y-106266627D01*
X150837284Y-106323524D01*
X150918834Y-106373202D01*
X150996174Y-106416812D01*
X151071171Y-106455505D01*
X151145689Y-106490430D01*
X151221594Y-106522740D01*
X151227676Y-106525220D01*
X151264135Y-106540252D01*
X151312951Y-106560564D01*
X151370120Y-106584482D01*
X151431638Y-106610331D01*
X151493502Y-106636438D01*
X151677546Y-106710044D01*
X151942123Y-106800856D01*
X152210778Y-106875372D01*
X152211177Y-106875470D01*
X152313541Y-106899149D01*
X152424420Y-106922249D01*
X152538515Y-106943819D01*
X152650529Y-106962904D01*
X152755164Y-106978553D01*
X152847121Y-106989813D01*
X152869336Y-106991935D01*
X152952544Y-106997400D01*
X153049872Y-107000722D01*
X153157879Y-107001971D01*
X153273127Y-107001215D01*
X153392173Y-106998525D01*
X153511578Y-106993970D01*
X153627901Y-106987619D01*
X153737702Y-106979542D01*
X153837541Y-106969809D01*
X153899196Y-106962754D01*
X154010678Y-106949253D01*
X154105134Y-106936712D01*
X154182001Y-106925209D01*
X154240715Y-106914821D01*
X154248258Y-106913268D01*
X154278046Y-106906742D01*
X154320132Y-106897212D01*
X154370693Y-106885574D01*
X154425908Y-106872723D01*
X154481952Y-106859557D01*
X154535004Y-106846971D01*
X154581241Y-106835863D01*
X154616840Y-106827128D01*
X154637978Y-106821664D01*
X154648102Y-106817939D01*
X154659229Y-106809350D01*
X154669558Y-106793411D01*
X154681223Y-106766605D01*
X154696354Y-106725418D01*
X154696551Y-106724863D01*
X154739423Y-106619373D01*
X154791586Y-106516361D01*
X154851558Y-106417369D01*
X154917858Y-106323943D01*
X154989006Y-106237627D01*
X155063520Y-106159966D01*
X155139918Y-106092503D01*
X155216719Y-106036784D01*
X155292443Y-105994353D01*
X155365608Y-105966753D01*
X155434733Y-105955531D01*
X155448366Y-105955239D01*
X155471682Y-105956009D01*
X155482890Y-105958318D01*
X155479592Y-105964500D01*
X155464706Y-105978858D01*
X155441465Y-105997737D01*
X155422892Y-106012896D01*
X155390088Y-106043315D01*
X155363431Y-106072171D01*
X155358443Y-106078354D01*
X155334084Y-106110974D01*
X155319109Y-106135254D01*
X155313714Y-106149736D01*
X155318097Y-106152965D01*
X155332454Y-106143482D01*
X155356983Y-106119832D01*
X155379517Y-106098268D01*
X155443356Y-106051547D01*
X155523374Y-106008601D01*
X155617924Y-105970140D01*
X155725361Y-105936875D01*
X155844038Y-105909518D01*
X155872173Y-105904523D01*
X155984830Y-105893564D01*
X156108295Y-105895196D01*
X156244112Y-105909418D01*
X156280493Y-105915016D01*
X156402545Y-105940124D01*
X156510791Y-105973454D01*
X156608064Y-106016003D01*
X156697195Y-106068766D01*
X156710794Y-106078632D01*
X156738261Y-106100955D01*
X156768397Y-106127558D01*
X156797785Y-106155188D01*
X156823007Y-106180589D01*
X156840647Y-106200508D01*
X156847286Y-106211690D01*
X156840187Y-106217020D01*
X156821440Y-106219453D01*
X156795588Y-106221794D01*
X156765631Y-106228046D01*
X156733533Y-106231513D01*
X156691537Y-106223358D01*
X156675487Y-106219323D01*
X156634749Y-106212964D01*
X156594984Y-106210764D01*
X156542561Y-106211451D01*
X156626947Y-106233710D01*
X156723271Y-106261364D01*
X156809422Y-106291826D01*
X156886757Y-106326659D01*
X156959152Y-106368086D01*
X157030484Y-106418331D01*
X157104630Y-106479620D01*
X157185466Y-106554175D01*
X157194234Y-106562613D01*
X157266793Y-106635789D01*
X157328777Y-106705759D01*
X157383240Y-106776796D01*
X157433237Y-106853172D01*
X157481821Y-106939160D01*
X157532045Y-107039030D01*
X157544508Y-107065239D01*
X157594336Y-107178061D01*
X157632093Y-107279018D01*
X157658316Y-107369677D01*
X157673542Y-107451607D01*
X157676638Y-107486957D01*
X157678078Y-107530574D01*
X157677778Y-107576245D01*
X157675918Y-107619813D01*
X157672683Y-107657120D01*
X157668253Y-107684009D01*
X157662812Y-107696321D01*
X157659817Y-107696206D01*
X157648429Y-107686074D01*
X157634188Y-107665783D01*
X157605829Y-107622800D01*
X157542520Y-107545722D01*
X157463979Y-107468358D01*
X157372307Y-107392388D01*
X157269602Y-107319495D01*
X157157966Y-107251359D01*
X157039497Y-107189662D01*
X156929480Y-107140631D01*
X156812907Y-107097819D01*
X156694355Y-107064638D01*
X156566340Y-107038700D01*
X156549381Y-107036376D01*
X156514305Y-107032869D01*
X156468317Y-107029148D01*
X156414379Y-107025367D01*
X156355452Y-107021682D01*
X156294497Y-107018249D01*
X156234478Y-107015224D01*
X156178354Y-107012762D01*
X156129088Y-107011019D01*
X156089642Y-107010151D01*
X156062976Y-107010313D01*
X156052054Y-107011661D01*
X156054676Y-107014657D01*
X156069797Y-107023884D01*
X156094246Y-107036530D01*
X156101798Y-107040631D01*
X156126247Y-107057086D01*
X156155172Y-107079626D01*
X156185349Y-107105332D01*
X156213556Y-107131283D01*
X156236571Y-107154560D01*
X156251169Y-107172240D01*
X156254129Y-107181405D01*
X156253090Y-107181976D01*
X156239617Y-107180622D01*
X156217753Y-107173309D01*
X156160810Y-107154985D01*
X156073431Y-107141626D01*
X155973163Y-107140838D01*
X155964785Y-107141299D01*
X155915191Y-107145414D01*
X155867874Y-107152332D01*
X155818950Y-107163012D01*
X155764535Y-107178413D01*
X155700746Y-107199496D01*
X155623698Y-107227222D01*
X155614933Y-107230456D01*
X155567160Y-107248063D01*
X155523386Y-107264157D01*
X155488143Y-107277076D01*
X155465958Y-107285155D01*
X155453009Y-107290138D01*
X155418829Y-107304842D01*
X155384748Y-107321079D01*
X155373850Y-107326403D01*
X155305343Y-107352696D01*
X155230727Y-107371111D01*
X155155349Y-107380898D01*
X155084556Y-107381311D01*
X155023695Y-107371599D01*
X155011815Y-107368028D01*
X154961050Y-107348666D01*
X154903235Y-107321637D01*
X154844465Y-107289951D01*
X154790831Y-107256616D01*
X154782090Y-107250806D01*
X154750994Y-107231716D01*
X154725477Y-107218356D01*
X154710368Y-107213325D01*
X154695061Y-107215528D01*
X154667146Y-107221976D01*
X154633749Y-107231183D01*
X154623428Y-107234144D01*
X154583269Y-107244751D01*
X154529348Y-107258122D01*
X154465060Y-107273488D01*
X154393798Y-107290081D01*
X154318956Y-107307133D01*
X154243929Y-107323876D01*
X154172109Y-107339541D01*
X154106891Y-107353361D01*
X154051670Y-107364568D01*
X154009837Y-107372392D01*
X153829827Y-107399307D01*
X153557063Y-107424783D01*
X153278964Y-107432906D01*
X152996561Y-107423688D01*
X152710880Y-107397141D01*
X152422953Y-107353278D01*
X152412416Y-107351351D01*
X152322640Y-107334137D01*
X152235267Y-107316049D01*
X152154334Y-107297986D01*
X152083881Y-107280844D01*
X152027943Y-107265520D01*
X152024886Y-107264612D01*
X151993175Y-107255393D01*
X151952453Y-107243788D01*
X151910741Y-107232085D01*
X151767422Y-107189726D01*
X151514733Y-107102671D01*
X151261816Y-106999608D01*
X151007782Y-106880106D01*
X150751741Y-106743734D01*
X150492805Y-106590063D01*
X150230084Y-106418662D01*
X150165694Y-106373571D01*
X150023004Y-106265655D01*
X149876297Y-106144616D01*
X149728280Y-106013075D01*
X149581661Y-105873651D01*
X149439149Y-105728967D01*
X149303451Y-105581643D01*
X149177276Y-105434299D01*
X149063332Y-105289556D01*
X149023091Y-105235124D01*
X148859594Y-104995911D01*
X148713411Y-104750889D01*
X148584875Y-104500646D01*
X148474318Y-104245773D01*
X148463317Y-104217525D01*
X148404588Y-104053517D01*
X148348182Y-103873834D01*
X148294729Y-103681023D01*
X148244861Y-103477628D01*
X148199208Y-103266194D01*
X148158402Y-103049265D01*
X148123074Y-102829386D01*
X148121780Y-102820462D01*
X148105127Y-102681205D01*
X148092653Y-102527501D01*
X148084362Y-102362940D01*
X148080253Y-102191111D01*
X148080329Y-102015602D01*
X148084590Y-101840001D01*
X148093038Y-101667899D01*
X148105675Y-101502882D01*
X148122502Y-101348541D01*
X148131380Y-101282873D01*
X148152789Y-101144299D01*
X148178241Y-101000354D01*
X148206884Y-100855054D01*
X148237867Y-100712413D01*
X148270337Y-100576448D01*
X148303443Y-100451173D01*
X148336333Y-100340605D01*
X148367737Y-100242155D01*
X148388009Y-100284348D01*
X148397815Y-100304478D01*
X148407292Y-100322571D01*
X148418012Y-100340757D01*
X148432356Y-100362849D01*
X148452707Y-100392663D01*
X148481445Y-100434013D01*
X148498140Y-100457673D01*
X148564244Y-100544737D01*
X148630725Y-100620279D01*
X148701960Y-100688587D01*
X148782327Y-100753949D01*
X148876204Y-100820652D01*
X148904925Y-100838782D01*
X148945363Y-100862420D01*
X148993832Y-100889509D01*
X149047619Y-100918648D01*
X149104013Y-100948439D01*
X149160302Y-100977485D01*
X149213774Y-101004385D01*
X149261718Y-101027743D01*
X149301422Y-101046158D01*
X149330174Y-101058233D01*
X149345262Y-101062569D01*
X149351082Y-101063768D01*
X149371075Y-101071170D01*
X149397476Y-101083089D01*
X149412791Y-101090001D01*
X149434373Y-101097546D01*
X149445183Y-101098141D01*
X149444795Y-101095976D01*
X149435251Y-101082735D01*
X149415477Y-101059908D01*
X149387657Y-101029954D01*
X149353971Y-100995332D01*
X149292784Y-100932106D01*
X149173661Y-100797994D01*
X149063427Y-100657441D01*
X148958970Y-100506346D01*
X148857177Y-100340605D01*
X148813746Y-100262188D01*
X148738861Y-100106014D01*
X148676335Y-99945888D01*
X148628557Y-99787590D01*
X148618663Y-99747286D01*
X148609846Y-99702273D01*
X148607073Y-99664624D01*
X148611004Y-99629614D01*
X148622296Y-99592518D01*
X148641610Y-99548611D01*
X148669603Y-99493168D01*
X148679245Y-99474798D01*
X148701263Y-99434585D01*
X148720166Y-99402408D01*
X148734198Y-99381181D01*
X148741601Y-99373815D01*
X148743808Y-99375436D01*
X148752499Y-99390290D01*
X148764112Y-99417202D01*
X148776759Y-99451973D01*
X148807354Y-99535752D01*
X148881012Y-99698249D01*
X148970533Y-99853538D01*
X149074299Y-99998961D01*
X149190693Y-100131862D01*
X149237962Y-100178957D01*
X149303502Y-100238312D01*
X149370633Y-100291291D01*
X149442672Y-100340094D01*
X149522937Y-100386916D01*
X149614743Y-100433955D01*
X149721409Y-100483408D01*
X149766880Y-100503269D01*
X149826007Y-100527014D01*
X149875165Y-100543289D01*
X149918235Y-100553120D01*
X149959094Y-100557534D01*
X150001623Y-100557557D01*
X150033368Y-100556256D01*
X149964118Y-100501614D01*
X149928415Y-100471809D01*
X149870114Y-100418189D01*
X149805096Y-100353643D01*
X149735783Y-100280737D01*
X149664596Y-100202038D01*
X149593957Y-100120112D01*
X149526287Y-100037527D01*
X149500954Y-100005794D01*
X149474663Y-99972995D01*
X149453966Y-99947325D01*
X149441901Y-99932560D01*
X149395644Y-99874036D01*
X149344305Y-99803183D01*
X149291968Y-99725871D01*
X149241269Y-99646246D01*
X149194843Y-99568449D01*
X149155326Y-99496623D01*
X149125353Y-99434913D01*
X149113626Y-99408255D01*
X149099159Y-99375338D01*
X149088660Y-99351421D01*
X149074776Y-99318628D01*
X149054564Y-99268257D01*
X149033462Y-99213396D01*
X149013516Y-99159489D01*
X148996769Y-99111976D01*
X148985267Y-99076299D01*
X148981938Y-99064680D01*
X148974663Y-99033790D01*
X148973820Y-99014236D01*
X148979014Y-99001289D01*
X148983440Y-98994982D01*
X148999840Y-98967283D01*
X149000288Y-98966001D01*
X149149484Y-98966001D01*
X149151728Y-98974654D01*
X149161681Y-98998025D01*
X149177698Y-99030805D01*
X149197703Y-99069051D01*
X149219618Y-99108825D01*
X149241362Y-99146184D01*
X149260859Y-99177188D01*
X149266155Y-99185115D01*
X149332738Y-99282081D01*
X149395216Y-99367407D01*
X149457301Y-99445996D01*
X149522709Y-99522749D01*
X149562730Y-99566999D01*
X149619545Y-99624964D01*
X149677047Y-99676865D01*
X149739355Y-99726106D01*
X149810589Y-99776091D01*
X149894868Y-99830223D01*
X149955968Y-99865512D01*
X150085886Y-99925011D01*
X150224729Y-99969473D01*
X150369877Y-99997972D01*
X150383850Y-99999458D01*
X150407079Y-99999609D01*
X150418394Y-99996177D01*
X150418336Y-99992990D01*
X150408584Y-99980760D01*
X150388928Y-99965255D01*
X150368630Y-99949985D01*
X150331938Y-99917904D01*
X150290708Y-99878062D01*
X150249071Y-99834658D01*
X150211157Y-99791892D01*
X150181098Y-99753962D01*
X150158203Y-99723440D01*
X150132121Y-99690548D01*
X150110794Y-99665522D01*
X150109988Y-99664634D01*
X150089093Y-99639656D01*
X150063402Y-99606383D01*
X150038286Y-99571760D01*
X150031361Y-99561841D01*
X149986339Y-99496985D01*
X149951940Y-99446691D01*
X149927810Y-99410426D01*
X149913593Y-99387658D01*
X149908933Y-99377852D01*
X149906594Y-99371582D01*
X149896140Y-99356847D01*
X149884096Y-99339254D01*
X149865768Y-99306617D01*
X149843791Y-99263584D01*
X149819920Y-99213819D01*
X149795906Y-99160984D01*
X149773503Y-99108743D01*
X149754464Y-99060760D01*
X149753494Y-99058181D01*
X149740330Y-99023516D01*
X149728988Y-98994212D01*
X149721830Y-98976374D01*
X149714730Y-98959184D01*
X149693124Y-98902540D01*
X149668842Y-98833578D01*
X149643397Y-98756531D01*
X149636099Y-98733849D01*
X149624570Y-98699366D01*
X149616698Y-98679546D01*
X149611203Y-98672203D01*
X149606807Y-98675153D01*
X149602229Y-98686210D01*
X149589463Y-98711157D01*
X149560775Y-98748619D01*
X149521538Y-98789243D01*
X149475223Y-98830020D01*
X149425304Y-98867944D01*
X149375255Y-98900006D01*
X149328547Y-98923199D01*
X149300892Y-98932479D01*
X149256580Y-98943141D01*
X149213690Y-98949658D01*
X149181590Y-98953906D01*
X149158174Y-98959755D01*
X149149484Y-98966001D01*
X149000288Y-98966001D01*
X149006997Y-98946790D01*
X149003535Y-98937107D01*
X149002948Y-98936892D01*
X148989209Y-98929989D01*
X148964745Y-98916411D01*
X148934435Y-98898858D01*
X148878676Y-98862910D01*
X148812410Y-98807695D01*
X148762253Y-98746706D01*
X148726679Y-98677446D01*
X148704159Y-98597415D01*
X148693167Y-98504115D01*
X148692396Y-98480724D01*
X148755466Y-98480724D01*
X148758515Y-98545001D01*
X148767227Y-98600853D01*
X148781499Y-98643521D01*
X148822298Y-98712341D01*
X148882160Y-98781088D01*
X148955034Y-98836469D01*
X149041424Y-98878940D01*
X149085492Y-98894036D01*
X149143339Y-98905397D01*
X149198444Y-98903929D01*
X149255951Y-98889307D01*
X149321002Y-98861203D01*
X149325843Y-98858786D01*
X149394910Y-98819831D01*
X149452325Y-98778779D01*
X149495824Y-98737461D01*
X149523145Y-98697708D01*
X149532019Y-98673613D01*
X149542580Y-98635592D01*
X149553258Y-98589422D01*
X149556088Y-98574764D01*
X149616611Y-98574764D01*
X149680730Y-98612451D01*
X149690382Y-98618100D01*
X149732487Y-98642428D01*
X149780062Y-98669552D01*
X149824547Y-98694583D01*
X149833622Y-98699652D01*
X149883122Y-98727505D01*
X149936592Y-98757844D01*
X149983942Y-98784949D01*
X149997244Y-98792470D01*
X150052283Y-98821670D01*
X150120156Y-98855436D01*
X150197267Y-98892082D01*
X150280019Y-98929923D01*
X150364816Y-98967274D01*
X150448061Y-99002448D01*
X150473140Y-99012789D01*
X150624178Y-99074834D01*
X150759883Y-99130058D01*
X150881881Y-99178997D01*
X150991799Y-99222189D01*
X151091262Y-99260170D01*
X151181895Y-99293478D01*
X151265325Y-99322648D01*
X151343178Y-99348219D01*
X151417079Y-99370727D01*
X151488654Y-99390708D01*
X151559529Y-99408700D01*
X151631331Y-99425239D01*
X151705684Y-99440863D01*
X151784214Y-99456109D01*
X151868549Y-99471512D01*
X151924842Y-99481347D01*
X151989271Y-99492157D01*
X152049947Y-99501905D01*
X152101974Y-99509809D01*
X152140457Y-99515083D01*
X152154972Y-99516890D01*
X152203963Y-99523252D01*
X152251379Y-99529742D01*
X152288696Y-99535204D01*
X152324081Y-99539929D01*
X152386070Y-99546290D01*
X152464633Y-99552759D01*
X152558535Y-99559243D01*
X152666539Y-99565652D01*
X152787412Y-99571896D01*
X152825695Y-99573628D01*
X152882188Y-99575574D01*
X152935967Y-99576446D01*
X152990601Y-99576175D01*
X153049657Y-99574694D01*
X153116703Y-99571934D01*
X153195306Y-99567827D01*
X153289036Y-99562305D01*
X153331260Y-99559678D01*
X153406850Y-99554726D01*
X153477421Y-99549795D01*
X153540233Y-99545094D01*
X153592545Y-99540832D01*
X153631616Y-99537216D01*
X153654706Y-99534457D01*
X153678865Y-99530712D01*
X153717593Y-99525057D01*
X153748467Y-99520940D01*
X153778774Y-99517165D01*
X153893747Y-99501130D01*
X154008034Y-99482669D01*
X154117123Y-99462598D01*
X154216503Y-99441732D01*
X154301660Y-99420888D01*
X154331316Y-99412953D01*
X154385454Y-99398587D01*
X154437643Y-99384867D01*
X154479807Y-99373922D01*
X154481971Y-99373363D01*
X154526625Y-99360969D01*
X154572049Y-99347027D01*
X154608730Y-99334451D01*
X154633518Y-99324050D01*
X154654279Y-99312729D01*
X154662017Y-99304702D01*
X154661842Y-99303607D01*
X154657446Y-99288561D01*
X154648077Y-99260210D01*
X154634946Y-99222146D01*
X154619267Y-99177962D01*
X154610983Y-99154856D01*
X154581844Y-99072164D01*
X154557676Y-99000545D01*
X154536920Y-98934919D01*
X154518013Y-98870209D01*
X154499396Y-98801335D01*
X154479506Y-98723218D01*
X154468112Y-98677658D01*
X154453141Y-98618203D01*
X154439143Y-98563037D01*
X154427298Y-98516799D01*
X154418782Y-98484126D01*
X154415344Y-98470706D01*
X154402193Y-98412465D01*
X154387718Y-98339081D01*
X154372361Y-98253292D01*
X154356563Y-98157834D01*
X154340765Y-98055442D01*
X154325410Y-97948854D01*
X154310938Y-97840806D01*
X154297791Y-97734034D01*
X154296934Y-97726648D01*
X154287361Y-97631916D01*
X154279045Y-97527211D01*
X154272076Y-97415713D01*
X154266545Y-97300601D01*
X154262543Y-97185052D01*
X154260160Y-97072247D01*
X154259487Y-96965363D01*
X154260616Y-96867581D01*
X154263635Y-96782078D01*
X154268637Y-96712033D01*
X154272412Y-96672331D01*
X154277236Y-96619529D01*
X154282375Y-96561689D01*
X154287203Y-96505758D01*
X154287923Y-96497452D01*
X154295754Y-96420086D01*
X154306756Y-96328057D01*
X154320489Y-96224686D01*
X154336515Y-96113294D01*
X154354395Y-95997204D01*
X154355753Y-95988457D01*
X154360234Y-95955407D01*
X154362447Y-95931455D01*
X154361927Y-95921292D01*
X154352424Y-95920191D01*
X154329886Y-95921178D01*
X154300766Y-95923820D01*
X154271325Y-95927437D01*
X154247822Y-95931350D01*
X154236521Y-95934882D01*
X154234900Y-95938020D01*
X154232224Y-95948778D01*
X154228853Y-95968667D01*
X154224525Y-95999590D01*
X154218978Y-96043451D01*
X154211952Y-96102150D01*
X154203186Y-96177593D01*
X154195765Y-96245932D01*
X154180900Y-96421019D01*
X154171695Y-96601032D01*
X154167967Y-96790340D01*
X154169537Y-96993318D01*
X154170375Y-97033194D01*
X154172349Y-97112791D01*
X154174619Y-97189243D01*
X154177070Y-97259429D01*
X154179590Y-97320228D01*
X154182065Y-97368519D01*
X154184382Y-97401181D01*
X154185218Y-97410390D01*
X154189316Y-97458635D01*
X154193981Y-97517428D01*
X154198700Y-97580172D01*
X154202962Y-97640273D01*
X154204149Y-97657393D01*
X154224261Y-97890004D01*
X154250871Y-98107092D01*
X154284314Y-98310707D01*
X154324923Y-98502897D01*
X154373031Y-98685714D01*
X154374276Y-98689983D01*
X154388375Y-98737132D01*
X154406440Y-98795981D01*
X154427126Y-98862295D01*
X154449090Y-98931838D01*
X154470986Y-99000376D01*
X154491471Y-99063675D01*
X154509201Y-99117499D01*
X154522831Y-99157612D01*
X154527794Y-99172077D01*
X154539214Y-99207680D01*
X154547153Y-99235880D01*
X154550129Y-99251574D01*
X154547580Y-99258270D01*
X154534014Y-99268441D01*
X154506717Y-99280376D01*
X154463399Y-99295224D01*
X154417315Y-99309858D01*
X154374340Y-99322988D01*
X154335645Y-99333930D01*
X154296692Y-99343832D01*
X154252940Y-99353841D01*
X154199852Y-99365105D01*
X154132890Y-99378770D01*
X154102606Y-99384834D01*
X153918908Y-99418768D01*
X153749763Y-99444778D01*
X153593190Y-99463138D01*
X153447209Y-99474126D01*
X153326541Y-99480437D01*
X153251531Y-99401756D01*
X153212330Y-99360148D01*
X153140388Y-99280280D01*
X153079159Y-99206484D01*
X153025851Y-99135122D01*
X152977672Y-99062557D01*
X152931832Y-98985150D01*
X152895237Y-98920117D01*
X152892182Y-98957622D01*
X152891170Y-98986468D01*
X152894107Y-99046489D01*
X152902189Y-99116814D01*
X152914624Y-99192851D01*
X152930618Y-99270005D01*
X152949379Y-99343681D01*
X152970115Y-99409286D01*
X153001376Y-99496751D01*
X152923299Y-99496751D01*
X152845222Y-99496751D01*
X152807718Y-99381893D01*
X152781268Y-99292358D01*
X152763011Y-99207026D01*
X152752975Y-99122190D01*
X152749907Y-99030239D01*
X152749743Y-98993639D01*
X152748302Y-98966605D01*
X152744135Y-98953649D01*
X152735795Y-98955133D01*
X152721832Y-98971418D01*
X152700797Y-99002863D01*
X152671242Y-99049830D01*
X152666920Y-99056834D01*
X152625173Y-99133520D01*
X152586155Y-99220385D01*
X152553071Y-99309669D01*
X152529131Y-99393613D01*
X152527613Y-99400046D01*
X152518900Y-99433802D01*
X152511061Y-99459487D01*
X152505633Y-99471973D01*
X152499059Y-99473400D01*
X152475877Y-99473053D01*
X152438777Y-99470306D01*
X152390430Y-99465499D01*
X152333507Y-99458972D01*
X152270679Y-99451064D01*
X152204617Y-99442116D01*
X152137992Y-99432468D01*
X152073475Y-99422460D01*
X152013737Y-99412431D01*
X151961450Y-99402721D01*
X151952646Y-99400963D01*
X151894583Y-99388703D01*
X151835688Y-99375299D01*
X151782389Y-99362256D01*
X151741111Y-99351081D01*
X151732437Y-99348542D01*
X151682595Y-99334254D01*
X151630903Y-99319838D01*
X151587264Y-99308061D01*
X151574153Y-99304472D01*
X151531662Y-99291838D01*
X151476851Y-99274602D01*
X151413479Y-99254019D01*
X151345303Y-99231348D01*
X151276080Y-99207845D01*
X151209568Y-99184767D01*
X151149523Y-99163373D01*
X151099704Y-99144919D01*
X151098748Y-99144555D01*
X151064012Y-99131399D01*
X151016170Y-99113390D01*
X150959539Y-99092147D01*
X150898434Y-99069289D01*
X150837172Y-99046434D01*
X150799834Y-99032395D01*
X150674557Y-98983407D01*
X150553994Y-98933448D01*
X150442623Y-98884411D01*
X150344924Y-98838193D01*
X150340779Y-98836148D01*
X150309354Y-98820758D01*
X150265465Y-98799392D01*
X150212857Y-98773866D01*
X150155272Y-98745997D01*
X150096456Y-98717603D01*
X150091248Y-98715088D01*
X150029836Y-98684922D01*
X149967976Y-98653701D01*
X149910023Y-98623677D01*
X149860336Y-98597106D01*
X149823270Y-98576242D01*
X149769746Y-98545162D01*
X149712800Y-98513550D01*
X149671104Y-98492441D01*
X149644728Y-98481871D01*
X149633745Y-98481876D01*
X149632214Y-98485788D01*
X149627752Y-98504653D01*
X149623042Y-98531789D01*
X149616611Y-98574764D01*
X149556088Y-98574764D01*
X149562725Y-98540383D01*
X149573538Y-98483249D01*
X149601773Y-98370327D01*
X149611203Y-98343231D01*
X149639318Y-98262446D01*
X149672872Y-98187172D01*
X150293355Y-98187172D01*
X150298661Y-98217518D01*
X150316714Y-98243758D01*
X150343796Y-98257385D01*
X150375968Y-98256615D01*
X150409292Y-98239666D01*
X150415939Y-98232034D01*
X150529318Y-98232034D01*
X150529349Y-98265013D01*
X150544167Y-98295000D01*
X150557612Y-98306840D01*
X150588216Y-98317528D01*
X150620853Y-98313523D01*
X150649283Y-98294835D01*
X150652297Y-98291394D01*
X150666698Y-98260797D01*
X150664328Y-98227908D01*
X150645387Y-98197727D01*
X150617136Y-98178936D01*
X150585426Y-98177234D01*
X150552464Y-98194146D01*
X150543518Y-98202810D01*
X150529318Y-98232034D01*
X150415939Y-98232034D01*
X150428079Y-98218096D01*
X150433997Y-98188097D01*
X150433575Y-98178932D01*
X150422538Y-98146287D01*
X150397657Y-98125652D01*
X150360441Y-98118456D01*
X150351648Y-98118762D01*
X150319118Y-98128174D01*
X150299759Y-98150903D01*
X150293355Y-98187172D01*
X149672872Y-98187172D01*
X149688875Y-98151273D01*
X149724002Y-98083835D01*
X149798551Y-97964929D01*
X149881270Y-97861888D01*
X149884402Y-97858449D01*
X149906327Y-97833688D01*
X149921815Y-97814996D01*
X149927685Y-97806189D01*
X149923726Y-97801764D01*
X149907549Y-97789849D01*
X149883148Y-97774213D01*
X149859630Y-97760656D01*
X149768598Y-97719279D01*
X149670284Y-97689626D01*
X149570367Y-97673128D01*
X149474523Y-97671217D01*
X149448128Y-97673249D01*
X149362936Y-97685760D01*
X149285091Y-97708026D01*
X149210584Y-97741761D01*
X149135405Y-97788681D01*
X149055544Y-97850502D01*
X149051839Y-97853609D01*
X148979336Y-97919169D01*
X148920565Y-97983644D01*
X148873106Y-98050987D01*
X148834538Y-98125152D01*
X148802443Y-98210091D01*
X148774399Y-98309759D01*
X148766758Y-98345916D01*
X148758180Y-98412776D01*
X148755466Y-98480724D01*
X148692396Y-98480724D01*
X148691579Y-98455912D01*
X148693097Y-98389884D01*
X148698808Y-98334108D01*
X148700538Y-98323964D01*
X148710943Y-98274588D01*
X148724839Y-98220597D01*
X148740539Y-98167763D01*
X148756355Y-98121856D01*
X148770600Y-98088645D01*
X148774529Y-98081228D01*
X148778168Y-98072459D01*
X148777510Y-98064638D01*
X148770518Y-98056129D01*
X148755154Y-98045295D01*
X148729382Y-98030498D01*
X148691164Y-98010102D01*
X148638464Y-97982470D01*
X148632146Y-97979144D01*
X148569104Y-97944821D01*
X148505670Y-97908433D01*
X148445270Y-97872088D01*
X148391326Y-97837893D01*
X148347263Y-97807953D01*
X148316506Y-97784378D01*
X148282278Y-97755024D01*
X148354011Y-97684674D01*
X148368020Y-97671221D01*
X148383257Y-97657409D01*
X149224826Y-97657409D01*
X149225351Y-97664631D01*
X149242626Y-97664232D01*
X149276788Y-97656232D01*
X149327974Y-97640652D01*
X149360564Y-97630996D01*
X149439904Y-97615666D01*
X149474523Y-97614335D01*
X149520334Y-97612573D01*
X149604902Y-97621966D01*
X149696658Y-97644094D01*
X149798649Y-97679208D01*
X149823263Y-97689352D01*
X149869594Y-97711638D01*
X149912920Y-97736170D01*
X149949638Y-97760653D01*
X149976142Y-97782791D01*
X149988828Y-97800290D01*
X149987585Y-97820143D01*
X149969848Y-97848292D01*
X149960521Y-97859510D01*
X149953725Y-97870290D01*
X149954318Y-97878859D01*
X149964421Y-97886712D01*
X149986156Y-97895342D01*
X150021647Y-97906243D01*
X150073015Y-97920910D01*
X150156125Y-97944583D01*
X150294105Y-97984215D01*
X150360441Y-98003503D01*
X150419360Y-98020634D01*
X150530811Y-98053518D01*
X150585426Y-98069936D01*
X150627378Y-98082548D01*
X150707980Y-98107405D01*
X150771539Y-98127768D01*
X150793231Y-98134870D01*
X150842006Y-98150526D01*
X150885068Y-98163937D01*
X150918395Y-98173863D01*
X150937965Y-98179065D01*
X150940895Y-98179678D01*
X150960351Y-98182861D01*
X150968162Y-98182490D01*
X150967592Y-98180876D01*
X150961324Y-98166078D01*
X150949242Y-98138495D01*
X150932725Y-98101262D01*
X150913152Y-98057511D01*
X150860407Y-97932200D01*
X150831787Y-97852424D01*
X151655097Y-97852424D01*
X151669461Y-97939067D01*
X151702076Y-98023971D01*
X151752936Y-98106256D01*
X151822037Y-98185047D01*
X151867200Y-98225153D01*
X151926011Y-98269952D01*
X151989530Y-98312467D01*
X152051972Y-98348843D01*
X152107551Y-98375228D01*
X152121199Y-98380661D01*
X152147911Y-98390437D01*
X152170020Y-98395758D01*
X152193330Y-98397183D01*
X152223650Y-98395273D01*
X152266784Y-98390588D01*
X152345784Y-98379826D01*
X152500987Y-98348129D01*
X152647930Y-98303844D01*
X152785189Y-98247686D01*
X152911336Y-98180368D01*
X153024946Y-98102606D01*
X153124593Y-98015113D01*
X153208851Y-97918605D01*
X153211221Y-97915447D01*
X153229848Y-97889078D01*
X153241859Y-97869262D01*
X153244748Y-97860080D01*
X153244131Y-97859731D01*
X153230787Y-97859303D01*
X153204688Y-97861655D01*
X153170769Y-97866367D01*
X153152666Y-97868538D01*
X153112483Y-97871509D01*
X153059115Y-97874103D01*
X152995877Y-97876194D01*
X152926082Y-97877659D01*
X152853045Y-97878371D01*
X152757156Y-97878191D01*
X152672309Y-97876455D01*
X152599074Y-97872701D01*
X152533831Y-97866485D01*
X152472957Y-97857361D01*
X152412830Y-97844886D01*
X152349829Y-97828616D01*
X152280331Y-97808106D01*
X152269119Y-97804610D01*
X152214965Y-97786647D01*
X152161106Y-97767225D01*
X152110462Y-97747559D01*
X152065955Y-97728865D01*
X152030506Y-97712359D01*
X152007036Y-97699257D01*
X151998466Y-97690775D01*
X151998594Y-97690175D01*
X152009208Y-97683127D01*
X152034853Y-97672640D01*
X152072677Y-97659536D01*
X152119831Y-97644637D01*
X152173466Y-97628767D01*
X152230730Y-97612747D01*
X152288774Y-97597401D01*
X152344749Y-97583549D01*
X152395803Y-97572016D01*
X152439087Y-97563622D01*
X152469046Y-97558689D01*
X152512181Y-97552491D01*
X152553914Y-97547994D01*
X152598273Y-97544948D01*
X152649289Y-97543103D01*
X152710992Y-97542210D01*
X152787412Y-97542018D01*
X152847031Y-97542289D01*
X152922415Y-97543753D01*
X152986065Y-97547014D01*
X153042158Y-97552665D01*
X153094875Y-97561297D01*
X153148395Y-97573501D01*
X153206897Y-97589871D01*
X153274560Y-97610996D01*
X153299813Y-97618942D01*
X153333249Y-97628806D01*
X153356823Y-97634915D01*
X153366571Y-97636184D01*
X153370036Y-97630217D01*
X153377359Y-97607263D01*
X153385433Y-97572061D01*
X153393455Y-97528713D01*
X153400624Y-97481324D01*
X153406135Y-97433997D01*
X153410489Y-97380160D01*
X153413956Y-97303502D01*
X153414228Y-97230654D01*
X153411491Y-97164088D01*
X153405931Y-97106274D01*
X153397735Y-97059683D01*
X153387089Y-97026787D01*
X153374179Y-97010057D01*
X153372159Y-97009211D01*
X153352472Y-97006142D01*
X153317650Y-97004238D01*
X153270622Y-97003417D01*
X153214313Y-97003598D01*
X153151651Y-97004697D01*
X153085562Y-97006633D01*
X153018974Y-97009324D01*
X152954813Y-97012688D01*
X152896006Y-97016641D01*
X152845481Y-97021104D01*
X152806164Y-97025992D01*
X152670209Y-97049916D01*
X152534930Y-97080832D01*
X152408391Y-97118055D01*
X152285568Y-97162906D01*
X152175165Y-97210606D01*
X152069587Y-97265153D01*
X151976885Y-97324092D01*
X151893995Y-97389390D01*
X151817851Y-97463013D01*
X151780250Y-97505987D01*
X151721560Y-97590821D01*
X151681142Y-97677423D01*
X151658989Y-97764916D01*
X151655097Y-97852424D01*
X150831787Y-97852424D01*
X150800579Y-97765437D01*
X150752487Y-97599656D01*
X150717127Y-97438398D01*
X150695498Y-97285205D01*
X150692373Y-97240338D01*
X150690415Y-97176702D01*
X150690329Y-97107059D01*
X150692206Y-97038207D01*
X150698634Y-96890886D01*
X150671797Y-96898963D01*
X150652363Y-96905435D01*
X150613604Y-96919568D01*
X150560148Y-96939884D01*
X150493453Y-96965821D01*
X150414975Y-96996819D01*
X150326171Y-97032313D01*
X150237601Y-97069816D01*
X150113235Y-97128106D01*
X149977548Y-97197651D01*
X149829235Y-97279098D01*
X149790781Y-97300684D01*
X149740466Y-97328601D01*
X149693246Y-97354480D01*
X149655715Y-97374690D01*
X149639658Y-97383543D01*
X149597663Y-97408370D01*
X149543880Y-97441736D01*
X149480656Y-97482132D01*
X149410335Y-97528051D01*
X149335262Y-97577987D01*
X149257784Y-97630431D01*
X149240914Y-97642547D01*
X149224826Y-97657409D01*
X148383257Y-97657409D01*
X148412554Y-97630851D01*
X148460611Y-97589942D01*
X148503975Y-97555567D01*
X148525355Y-97539350D01*
X148560719Y-97511874D01*
X148590658Y-97487840D01*
X148610335Y-97471090D01*
X148628114Y-97456239D01*
X148660285Y-97431445D01*
X148702328Y-97400254D01*
X148751215Y-97364819D01*
X148803920Y-97327295D01*
X148857414Y-97289833D01*
X148908671Y-97254587D01*
X148954664Y-97223710D01*
X148992366Y-97199356D01*
X149005869Y-97190887D01*
X149055102Y-97159837D01*
X149106797Y-97127029D01*
X149151761Y-97098291D01*
X149187019Y-97075890D01*
X149235573Y-97045487D01*
X149287745Y-97013171D01*
X149336987Y-96983018D01*
X149381573Y-96955830D01*
X149433050Y-96924276D01*
X149481263Y-96894571D01*
X149519822Y-96870642D01*
X149563559Y-96844125D01*
X149627513Y-96807946D01*
X149698069Y-96770976D01*
X149776826Y-96732484D01*
X149865384Y-96691738D01*
X149965342Y-96648009D01*
X150078300Y-96600565D01*
X150179770Y-96559288D01*
X153395992Y-96559288D01*
X153398555Y-96569774D01*
X153401463Y-96569238D01*
X153416500Y-96560258D01*
X153440346Y-96542642D01*
X153469363Y-96518997D01*
X153524522Y-96475195D01*
X153618165Y-96410676D01*
X153722683Y-96348737D01*
X153725102Y-96347397D01*
X153753479Y-96330158D01*
X153773567Y-96315209D01*
X153781152Y-96305654D01*
X153779509Y-96298423D01*
X153769792Y-96275751D01*
X153753446Y-96244096D01*
X153732894Y-96207686D01*
X153710558Y-96170746D01*
X153688863Y-96137503D01*
X153670231Y-96112184D01*
X153651567Y-96090064D01*
X153619803Y-96055014D01*
X153588168Y-96022727D01*
X153559660Y-95996091D01*
X153537276Y-95977992D01*
X153524011Y-95971317D01*
X153516364Y-95974737D01*
X153503723Y-95993425D01*
X153489806Y-96028820D01*
X153474459Y-96081408D01*
X153457526Y-96151677D01*
X153438853Y-96240114D01*
X153432174Y-96274705D01*
X153421812Y-96333746D01*
X153412701Y-96392084D01*
X153405202Y-96446762D01*
X153399677Y-96494827D01*
X153396486Y-96533321D01*
X153395992Y-96559288D01*
X150179770Y-96559288D01*
X150205857Y-96548676D01*
X150349612Y-96491613D01*
X150388495Y-96476284D01*
X150448963Y-96452292D01*
X150509826Y-96427983D01*
X150568537Y-96404389D01*
X150622548Y-96382541D01*
X150669312Y-96363472D01*
X150698634Y-96351370D01*
X150706283Y-96348213D01*
X150730913Y-96337794D01*
X150740654Y-96333248D01*
X150740816Y-96332819D01*
X150742446Y-96320365D01*
X150745089Y-96293392D01*
X150748419Y-96255438D01*
X150752105Y-96210040D01*
X150755712Y-96167899D01*
X150762390Y-96099795D01*
X150769976Y-96030644D01*
X150777426Y-95970325D01*
X150793228Y-95852131D01*
X150738658Y-95703105D01*
X150721626Y-95656297D01*
X150685951Y-95555439D01*
X150655943Y-95465368D01*
X150630336Y-95381574D01*
X150607863Y-95299544D01*
X150587258Y-95214765D01*
X150567253Y-95122726D01*
X150546582Y-95018914D01*
X150544200Y-95006539D01*
X150526831Y-94915174D01*
X150512620Y-94837758D01*
X150500937Y-94770370D01*
X150491153Y-94709090D01*
X150482638Y-94649999D01*
X150474763Y-94589176D01*
X150466899Y-94522701D01*
X150460209Y-94465416D01*
X150452427Y-94400932D01*
X150444762Y-94339254D01*
X150438183Y-94288298D01*
X150428626Y-94213381D01*
X150419855Y-94138448D01*
X150979716Y-94138448D01*
X150980888Y-94150726D01*
X150987605Y-94180314D01*
X150999732Y-94225767D01*
X151016982Y-94286080D01*
X151039067Y-94360250D01*
X151065698Y-94447272D01*
X151096588Y-94546142D01*
X151119569Y-94618869D01*
X151138968Y-94679657D01*
X151154779Y-94728202D01*
X151168001Y-94767390D01*
X151179634Y-94800113D01*
X151190678Y-94829258D01*
X151202131Y-94857714D01*
X151214994Y-94888371D01*
X151215175Y-94888798D01*
X151231118Y-94927583D01*
X151250903Y-94977519D01*
X151272030Y-95032214D01*
X151291997Y-95085271D01*
X151296969Y-95098628D01*
X151313535Y-95142151D01*
X151327904Y-95178457D01*
X151338679Y-95204075D01*
X151344462Y-95215533D01*
X151345575Y-95216137D01*
X151357037Y-95211002D01*
X151376397Y-95195020D01*
X151400151Y-95170993D01*
X151412000Y-95158381D01*
X151457686Y-95113692D01*
X151513513Y-95063484D01*
X151575274Y-95011341D01*
X151638764Y-94960849D01*
X151699778Y-94915592D01*
X151726368Y-94896792D01*
X151764054Y-94870710D01*
X151797319Y-94848812D01*
X151831388Y-94827815D01*
X151871485Y-94804436D01*
X151922835Y-94775389D01*
X151949720Y-94760853D01*
X151999364Y-94735647D01*
X152053479Y-94709633D01*
X152104348Y-94686585D01*
X152208135Y-94641430D01*
X152171952Y-94618768D01*
X152166645Y-94615496D01*
X152137944Y-94598572D01*
X152101047Y-94577594D01*
X152062582Y-94556345D01*
X152046709Y-94547808D01*
X152012479Y-94531207D01*
X151989190Y-94525335D01*
X151973092Y-94530952D01*
X151960434Y-94548819D01*
X151947466Y-94579697D01*
X151942001Y-94592999D01*
X151931688Y-94613198D01*
X151924406Y-94621151D01*
X151924007Y-94621122D01*
X151911204Y-94616941D01*
X151886717Y-94607063D01*
X151855470Y-94593465D01*
X151853943Y-94592784D01*
X151819981Y-94578868D01*
X151774243Y-94561687D01*
X151722528Y-94543358D01*
X151670638Y-94526000D01*
X151547514Y-94486221D01*
X151553129Y-94443183D01*
X151574582Y-94443183D01*
X151577109Y-94459048D01*
X151577409Y-94459365D01*
X151589512Y-94465393D01*
X151615561Y-94475548D01*
X151651954Y-94488493D01*
X151695090Y-94502889D01*
X151739383Y-94517636D01*
X151787278Y-94534390D01*
X151828725Y-94549695D01*
X151857995Y-94561490D01*
X151880406Y-94571014D01*
X151903917Y-94580125D01*
X151916066Y-94583646D01*
X151916304Y-94583587D01*
X151923251Y-94574269D01*
X151936823Y-94550857D01*
X151955623Y-94515937D01*
X151978258Y-94472092D01*
X152003333Y-94421908D01*
X152003407Y-94421758D01*
X152031544Y-94364830D01*
X152056397Y-94315268D01*
X152079772Y-94269697D01*
X152103472Y-94224741D01*
X152129299Y-94177025D01*
X152159059Y-94123175D01*
X152194554Y-94059816D01*
X152237588Y-93983573D01*
X152251438Y-93958906D01*
X152274305Y-93917301D01*
X152292622Y-93882826D01*
X152304789Y-93858522D01*
X152309206Y-93847431D01*
X152301645Y-93838297D01*
X152280935Y-93822522D01*
X152250532Y-93802350D01*
X152213898Y-93779975D01*
X152174490Y-93757593D01*
X152135769Y-93737399D01*
X152092540Y-93718009D01*
X152038760Y-93697443D01*
X151986036Y-93680349D01*
X151942092Y-93669438D01*
X151907811Y-93663026D01*
X151858597Y-93735958D01*
X151851928Y-93746025D01*
X151816931Y-93803600D01*
X151778563Y-93873360D01*
X151739163Y-93950746D01*
X151701070Y-94031196D01*
X151666624Y-94110151D01*
X151648827Y-94155919D01*
X151629883Y-94210783D01*
X151612480Y-94267087D01*
X151597433Y-94321655D01*
X151585558Y-94371310D01*
X151577670Y-94412878D01*
X151574582Y-94443183D01*
X151553129Y-94443183D01*
X151554309Y-94434140D01*
X151557945Y-94405698D01*
X151561691Y-94369731D01*
X151561767Y-94346488D01*
X151557523Y-94332282D01*
X151548307Y-94323429D01*
X151533467Y-94316243D01*
X151503111Y-94303365D01*
X151489749Y-94352088D01*
X151484902Y-94369980D01*
X151476599Y-94401580D01*
X151470963Y-94424252D01*
X151465013Y-94446134D01*
X151456415Y-94460425D01*
X151442009Y-94464915D01*
X151417885Y-94460657D01*
X151380135Y-94448702D01*
X151339871Y-94435513D01*
X151288474Y-94419366D01*
X151242690Y-94405627D01*
X151236282Y-94403765D01*
X151204835Y-94394398D01*
X151182429Y-94387343D01*
X151173564Y-94384006D01*
X151172896Y-94378312D01*
X151171270Y-94357259D01*
X151169056Y-94324454D01*
X151166532Y-94283871D01*
X151163961Y-94240966D01*
X151194657Y-94240966D01*
X151194859Y-94301425D01*
X151198154Y-94361434D01*
X151296603Y-94388801D01*
X151317259Y-94394557D01*
X151364593Y-94407723D01*
X151397519Y-94416399D01*
X151418791Y-94420786D01*
X151431167Y-94421086D01*
X151437402Y-94417500D01*
X151440252Y-94410230D01*
X151442474Y-94399478D01*
X151443120Y-94396688D01*
X151452384Y-94361312D01*
X151465939Y-94314439D01*
X151482037Y-94261681D01*
X151498933Y-94208650D01*
X151514880Y-94160957D01*
X151528133Y-94124215D01*
X151543569Y-94084407D01*
X151585002Y-93980264D01*
X151624318Y-93885368D01*
X151660761Y-93801431D01*
X151693575Y-93730162D01*
X151722004Y-93673273D01*
X151745294Y-93632475D01*
X151758072Y-93611797D01*
X151770130Y-93590694D01*
X151774787Y-93580197D01*
X151773283Y-93575053D01*
X151758552Y-93558689D01*
X151730502Y-93537747D01*
X151692098Y-93513713D01*
X151646300Y-93488069D01*
X151596071Y-93462299D01*
X151544373Y-93437888D01*
X151494168Y-93416318D01*
X151448417Y-93399074D01*
X151410082Y-93387640D01*
X151382126Y-93383499D01*
X151379681Y-93383697D01*
X151370455Y-93389182D01*
X151361024Y-93404314D01*
X151349945Y-93431942D01*
X151335773Y-93474916D01*
X151322924Y-93516138D01*
X151312366Y-93551201D01*
X151303349Y-93583315D01*
X151295010Y-93616038D01*
X151286489Y-93652928D01*
X151276924Y-93697543D01*
X151265453Y-93753441D01*
X151251216Y-93824178D01*
X151241446Y-93874531D01*
X151223259Y-93979334D01*
X151209182Y-94077173D01*
X151199540Y-94165299D01*
X151194657Y-94240966D01*
X151163961Y-94240966D01*
X151160649Y-94185683D01*
X151071576Y-94156393D01*
X151045854Y-94148180D01*
X151009263Y-94138049D01*
X150987698Y-94134898D01*
X150979716Y-94138448D01*
X150419855Y-94138448D01*
X150417289Y-94116524D01*
X150406746Y-94017968D01*
X150397307Y-93921090D01*
X150389281Y-93829268D01*
X150382977Y-93745877D01*
X150378705Y-93674297D01*
X150376774Y-93617903D01*
X150375288Y-93510077D01*
X150406987Y-93506746D01*
X150407658Y-93506677D01*
X150447775Y-93506034D01*
X150502940Y-93510096D01*
X150570259Y-93518339D01*
X150646838Y-93530239D01*
X150729781Y-93545273D01*
X150816193Y-93562916D01*
X150903181Y-93582645D01*
X150987698Y-93603898D01*
X150987849Y-93603936D01*
X151067302Y-93626264D01*
X151245863Y-93679616D01*
X151276232Y-93562030D01*
X151276256Y-93561937D01*
X151289684Y-93512974D01*
X151303799Y-93466549D01*
X151316926Y-93427896D01*
X151327387Y-93402251D01*
X151337137Y-93384868D01*
X151353479Y-93366918D01*
X151374717Y-93358138D01*
X151382126Y-93358153D01*
G37*
D13*
%TO.C,J2*%
X129063000Y-115984500D02*
X159797000Y-115984500D01*
X129063000Y-122232900D02*
X129063000Y-115984500D01*
X159797000Y-115984500D02*
X159797000Y-122232900D01*
X159797000Y-122232900D02*
X129063000Y-122232900D01*
D14*
X128809000Y-120378700D02*
G75*
G02*
X128047000Y-120378700I-381000J0D01*
G01*
X128047000Y-120378700D02*
G75*
G02*
X128809000Y-120378700I381000J0D01*
G01*
D15*
%TO.C,U4*%
X116464999Y-102075002D02*
X116464999Y-101875000D01*
X116464999Y-104525002D02*
X116464999Y-104325000D01*
X118615000Y-102250000D02*
X118615000Y-101750001D01*
X118615003Y-104525002D02*
X118615003Y-104325000D01*
%TO.C,U5*%
X136464999Y-102475002D02*
X136464999Y-102275000D01*
X136464999Y-104925002D02*
X136464999Y-104725000D01*
X138615000Y-102650000D02*
X138615000Y-102150001D01*
X138615003Y-104925002D02*
X138615003Y-104725000D01*
%TO.C,U1*%
X136364997Y-96474997D02*
X136364997Y-96674999D01*
X136365000Y-98749999D02*
X136365000Y-99249998D01*
X138515001Y-96474997D02*
X138515001Y-96674999D01*
X138515001Y-98924997D02*
X138515001Y-99124999D01*
D13*
%TO.C,J1*%
X129063000Y-77884500D02*
X159797000Y-77884500D01*
X129063000Y-84132900D02*
X129063000Y-77884500D01*
X159797000Y-77884500D02*
X159797000Y-84132900D01*
X159797000Y-84132900D02*
X129063000Y-84132900D01*
D14*
X128809000Y-82278700D02*
G75*
G02*
X128047000Y-82278700I-381000J0D01*
G01*
X128047000Y-82278700D02*
G75*
G02*
X128809000Y-82278700I381000J0D01*
G01*
D15*
%TO.C,U2*%
X116564997Y-96374999D02*
X116564997Y-96575001D01*
X116565000Y-98650001D02*
X116565000Y-99150000D01*
X118715001Y-96374999D02*
X118715001Y-96575001D01*
X118715001Y-98824999D02*
X118715001Y-99025001D01*
%TD*%
%LPC*%
D16*
%TO.C,J3*%
X146800000Y-108240000D03*
X144260000Y-108240000D03*
X141720000Y-108240000D03*
X139180000Y-108240000D03*
X136640000Y-108240000D03*
X134100000Y-108240000D03*
X131560000Y-108240000D03*
X129020000Y-108240000D03*
X126480000Y-108240000D03*
X123940000Y-108240000D03*
X121400000Y-108240000D03*
X118860000Y-108240000D03*
X116320000Y-108240000D03*
X113780000Y-108240000D03*
X111240000Y-108240000D03*
X108700000Y-108240000D03*
X108700000Y-93000000D03*
X111240000Y-93000000D03*
X113780000Y-93000000D03*
X116320000Y-93000000D03*
X118860000Y-93000000D03*
X121400000Y-93000000D03*
X123940000Y-93000000D03*
X126480000Y-93000000D03*
X129020000Y-93000000D03*
X131560000Y-93000000D03*
X134100000Y-93000000D03*
X136640000Y-93000000D03*
X139180000Y-93000000D03*
X141720000Y-93000000D03*
X144260000Y-93000000D03*
D17*
X146800000Y-93000000D03*
%TD*%
D18*
%TO.C,J5*%
X98800000Y-98010000D03*
D19*
X98800000Y-95470000D03*
%TD*%
D20*
%TO.C,R4*%
X95370000Y-107880000D03*
X95370000Y-115500000D03*
%TD*%
D18*
%TO.C,J11*%
X102940000Y-121040000D03*
D19*
X102940000Y-118500000D03*
X105480000Y-121040000D03*
X105480000Y-118500000D03*
X108020000Y-121040000D03*
X108020000Y-118500000D03*
X110560000Y-121040000D03*
X110560000Y-118500000D03*
X113100000Y-121040000D03*
X113100000Y-118500000D03*
X115640000Y-121040000D03*
X115640000Y-118500000D03*
X118180000Y-121040000D03*
X118180000Y-118500000D03*
X120720000Y-121040000D03*
X120720000Y-118500000D03*
X123260000Y-121040000D03*
X123260000Y-118500000D03*
X125800000Y-121040000D03*
X125800000Y-118500000D03*
%TD*%
D18*
%TO.C,J6*%
X146620000Y-86500000D03*
D19*
X144080000Y-86500000D03*
X141540000Y-86500000D03*
X139000000Y-86500000D03*
X136460000Y-86500000D03*
X133920000Y-86500000D03*
X131380000Y-86500000D03*
X128840000Y-86500000D03*
X126300000Y-86500000D03*
X123760000Y-86500000D03*
X121220000Y-86500000D03*
X118680000Y-86500000D03*
X116140000Y-86500000D03*
X113600000Y-86500000D03*
X111060000Y-86500000D03*
X108520000Y-86500000D03*
%TD*%
D18*
%TO.C,J7*%
X98800000Y-105235000D03*
D19*
X98800000Y-102695000D03*
%TD*%
D18*
%TO.C,J10*%
X102940000Y-82540000D03*
D19*
X102940000Y-80000000D03*
X105480000Y-82540000D03*
X105480000Y-80000000D03*
X108020000Y-82540000D03*
X108020000Y-80000000D03*
X110560000Y-82540000D03*
X110560000Y-80000000D03*
X113100000Y-82540000D03*
X113100000Y-80000000D03*
X115640000Y-82540000D03*
X115640000Y-80000000D03*
X118180000Y-82540000D03*
X118180000Y-80000000D03*
X120720000Y-82540000D03*
X120720000Y-80000000D03*
X123260000Y-82540000D03*
X123260000Y-80000000D03*
X125800000Y-82540000D03*
X125800000Y-80000000D03*
%TD*%
D20*
%TO.C,R3*%
X93120000Y-107820000D03*
X93120000Y-115440000D03*
%TD*%
D18*
%TO.C,J8*%
X98800000Y-112775000D03*
D19*
X98800000Y-110235000D03*
%TD*%
D20*
%TO.C,R2*%
X92500000Y-93310000D03*
X92500000Y-85690000D03*
%TD*%
%TO.C,R1*%
X94870000Y-93310000D03*
X94870000Y-85690000D03*
%TD*%
D18*
%TO.C,J9*%
X108560000Y-114500000D03*
D19*
X111100000Y-114500000D03*
X113640000Y-114500000D03*
X116180000Y-114500000D03*
X118720000Y-114500000D03*
X121260000Y-114500000D03*
X123800000Y-114500000D03*
X126340000Y-114500000D03*
X128880000Y-114500000D03*
X131420000Y-114500000D03*
X133960000Y-114500000D03*
X136500000Y-114500000D03*
X139040000Y-114500000D03*
X141580000Y-114500000D03*
X144120000Y-114500000D03*
X146660000Y-114500000D03*
%TD*%
D18*
%TO.C,J4*%
X98800000Y-90510000D03*
D19*
X98800000Y-87970000D03*
%TD*%
D21*
%TO.C,J2*%
X133000000Y-120378700D03*
X133000000Y-117838700D03*
X135540000Y-120378700D03*
X135540000Y-117838700D03*
X138080000Y-120378700D03*
X138080000Y-117838700D03*
X140620000Y-120378700D03*
X140620000Y-117838700D03*
X143160000Y-120378700D03*
X143160000Y-117838700D03*
X145700000Y-120378700D03*
X145700000Y-117838700D03*
X148240000Y-120378700D03*
X148240000Y-117838700D03*
X150780000Y-120378700D03*
X150780000Y-117838700D03*
X153320000Y-120378700D03*
X153320000Y-117838700D03*
X155860000Y-120378700D03*
X155860000Y-117838700D03*
%TD*%
D22*
%TO.C,U4*%
X118290002Y-102600000D03*
D23*
X118340002Y-102999999D03*
X118340002Y-103400001D03*
X118340002Y-103800000D03*
D24*
X118140000Y-104400001D03*
X117740001Y-104400001D03*
X117340001Y-104400001D03*
X116940000Y-104400001D03*
D23*
X116740000Y-103800000D03*
X116740000Y-103400001D03*
X116740000Y-102999999D03*
X116740000Y-102600000D03*
D24*
X116940000Y-102000001D03*
X117340001Y-102000001D03*
X117740001Y-102000001D03*
X118140000Y-102000001D03*
%TD*%
D22*
%TO.C,U5*%
X138290002Y-103000000D03*
D23*
X138340002Y-103399999D03*
X138340002Y-103800001D03*
X138340002Y-104200000D03*
D24*
X138140000Y-104800001D03*
X137740001Y-104800001D03*
X137340001Y-104800001D03*
X136940000Y-104800001D03*
D23*
X136740000Y-104200000D03*
X136740000Y-103800001D03*
X136740000Y-103399999D03*
X136740000Y-103000000D03*
D24*
X136940000Y-102400001D03*
X137340001Y-102400001D03*
X137740001Y-102400001D03*
X138140000Y-102400001D03*
%TD*%
D22*
%TO.C,U1*%
X136689998Y-98399999D03*
D23*
X136639998Y-98000000D03*
X136639998Y-97599998D03*
X136639998Y-97199999D03*
D24*
X136840000Y-96599998D03*
X137239999Y-96599998D03*
X137639999Y-96599998D03*
X138040000Y-96599998D03*
D23*
X138240000Y-97199999D03*
X138240000Y-97599998D03*
X138240000Y-98000000D03*
X138240000Y-98399999D03*
D24*
X138040000Y-98999998D03*
X137639999Y-98999998D03*
X137239999Y-98999998D03*
X136840000Y-98999998D03*
%TD*%
D21*
%TO.C,J1*%
X133000000Y-82278700D03*
X133000000Y-79738700D03*
X135540000Y-82278700D03*
X135540000Y-79738700D03*
X138080000Y-82278700D03*
X138080000Y-79738700D03*
X140620000Y-82278700D03*
X140620000Y-79738700D03*
X143160000Y-82278700D03*
X143160000Y-79738700D03*
X145700000Y-82278700D03*
X145700000Y-79738700D03*
X148240000Y-82278700D03*
X148240000Y-79738700D03*
X150780000Y-82278700D03*
X150780000Y-79738700D03*
X153320000Y-82278700D03*
X153320000Y-79738700D03*
X155860000Y-82278700D03*
X155860000Y-79738700D03*
%TD*%
D22*
%TO.C,U2*%
X116889998Y-98300001D03*
D23*
X116839998Y-97900002D03*
X116839998Y-97500000D03*
X116839998Y-97100001D03*
D24*
X117040000Y-96500000D03*
X117439999Y-96500000D03*
X117839999Y-96500000D03*
X118240000Y-96500000D03*
D23*
X118440000Y-97100001D03*
X118440000Y-97500000D03*
X118440000Y-97900002D03*
X118440000Y-98300001D03*
D24*
X118240000Y-98900000D03*
X117839999Y-98900000D03*
X117439999Y-98900000D03*
X117040000Y-98900000D03*
%TD*%
%LPD*%
M02*
