%TF.GenerationSoftware,KiCad,Pcbnew,9.0.4*%
%TF.CreationDate,2025-10-21T11:21:35+02:00*%
%TF.ProjectId,GlasgowICAdapter,476c6173-676f-4774-9943-416461707465,rev?*%
%TF.SameCoordinates,Original*%
%TF.FileFunction,Soldermask,Bot*%
%TF.FilePolarity,Negative*%
%FSLAX46Y46*%
G04 Gerber Fmt 4.6, Leading zero omitted, Abs format (unit mm)*
G04 Created by KiCad (PCBNEW 9.0.4) date 2025-10-21 11:21:35*
%MOMM*%
%LPD*%
G01*
G04 APERTURE LIST*
%ADD10O,1.440000X2.000000*%
%ADD11R,1.440000X2.000000*%
%ADD12R,1.700000X1.700000*%
%ADD13C,1.700000*%
%ADD14C,1.400000*%
%ADD15C,1.371600*%
%ADD16R,0.700001X0.200000*%
%ADD17R,0.599999X0.200000*%
%ADD18R,0.200000X0.599999*%
G04 APERTURE END LIST*
D10*
%TO.C,J3*%
X146800000Y-108240000D03*
X144260000Y-108240000D03*
X141720000Y-108240000D03*
X139180000Y-108240000D03*
X136640000Y-108240000D03*
X134100000Y-108240000D03*
X131560000Y-108240000D03*
X129020000Y-108240000D03*
X126480000Y-108240000D03*
X123940000Y-108240000D03*
X121400000Y-108240000D03*
X118860000Y-108240000D03*
X116320000Y-108240000D03*
X113780000Y-108240000D03*
X111240000Y-108240000D03*
X108700000Y-108240000D03*
X108700000Y-93000000D03*
X111240000Y-93000000D03*
X113780000Y-93000000D03*
X116320000Y-93000000D03*
X118860000Y-93000000D03*
X121400000Y-93000000D03*
X123940000Y-93000000D03*
X126480000Y-93000000D03*
X129020000Y-93000000D03*
X131560000Y-93000000D03*
X134100000Y-93000000D03*
X136640000Y-93000000D03*
X139180000Y-93000000D03*
X141720000Y-93000000D03*
X144260000Y-93000000D03*
D11*
X146800000Y-93000000D03*
%TD*%
D12*
%TO.C,J5*%
X98800000Y-98010000D03*
D13*
X98800000Y-95470000D03*
%TD*%
D14*
%TO.C,R4*%
X95370000Y-107880000D03*
X95370000Y-115500000D03*
%TD*%
D12*
%TO.C,J11*%
X102940000Y-121040000D03*
D13*
X102940000Y-118500000D03*
X105480000Y-121040000D03*
X105480000Y-118500000D03*
X108020000Y-121040000D03*
X108020000Y-118500000D03*
X110560000Y-121040000D03*
X110560000Y-118500000D03*
X113100000Y-121040000D03*
X113100000Y-118500000D03*
X115640000Y-121040000D03*
X115640000Y-118500000D03*
X118180000Y-121040000D03*
X118180000Y-118500000D03*
X120720000Y-121040000D03*
X120720000Y-118500000D03*
X123260000Y-121040000D03*
X123260000Y-118500000D03*
X125800000Y-121040000D03*
X125800000Y-118500000D03*
%TD*%
D12*
%TO.C,J6*%
X146620000Y-86500000D03*
D13*
X144080000Y-86500000D03*
X141540000Y-86500000D03*
X139000000Y-86500000D03*
X136460000Y-86500000D03*
X133920000Y-86500000D03*
X131380000Y-86500000D03*
X128840000Y-86500000D03*
X126300000Y-86500000D03*
X123760000Y-86500000D03*
X121220000Y-86500000D03*
X118680000Y-86500000D03*
X116140000Y-86500000D03*
X113600000Y-86500000D03*
X111060000Y-86500000D03*
X108520000Y-86500000D03*
%TD*%
D12*
%TO.C,J7*%
X98800000Y-105235000D03*
D13*
X98800000Y-102695000D03*
%TD*%
D12*
%TO.C,J10*%
X102940000Y-82540000D03*
D13*
X102940000Y-80000000D03*
X105480000Y-82540000D03*
X105480000Y-80000000D03*
X108020000Y-82540000D03*
X108020000Y-80000000D03*
X110560000Y-82540000D03*
X110560000Y-80000000D03*
X113100000Y-82540000D03*
X113100000Y-80000000D03*
X115640000Y-82540000D03*
X115640000Y-80000000D03*
X118180000Y-82540000D03*
X118180000Y-80000000D03*
X120720000Y-82540000D03*
X120720000Y-80000000D03*
X123260000Y-82540000D03*
X123260000Y-80000000D03*
X125800000Y-82540000D03*
X125800000Y-80000000D03*
%TD*%
D14*
%TO.C,R3*%
X93120000Y-107820000D03*
X93120000Y-115440000D03*
%TD*%
D12*
%TO.C,J8*%
X98800000Y-112775000D03*
D13*
X98800000Y-110235000D03*
%TD*%
D14*
%TO.C,R2*%
X92500000Y-93310000D03*
X92500000Y-85690000D03*
%TD*%
%TO.C,R1*%
X94870000Y-93310000D03*
X94870000Y-85690000D03*
%TD*%
D12*
%TO.C,J9*%
X108560000Y-114500000D03*
D13*
X111100000Y-114500000D03*
X113640000Y-114500000D03*
X116180000Y-114500000D03*
X118720000Y-114500000D03*
X121260000Y-114500000D03*
X123800000Y-114500000D03*
X126340000Y-114500000D03*
X128880000Y-114500000D03*
X131420000Y-114500000D03*
X133960000Y-114500000D03*
X136500000Y-114500000D03*
X139040000Y-114500000D03*
X141580000Y-114500000D03*
X144120000Y-114500000D03*
X146660000Y-114500000D03*
%TD*%
D12*
%TO.C,J4*%
X98800000Y-90510000D03*
D13*
X98800000Y-87970000D03*
%TD*%
D15*
%TO.C,J2*%
X133000000Y-120378700D03*
X133000000Y-117838700D03*
X135540000Y-120378700D03*
X135540000Y-117838700D03*
X138080000Y-120378700D03*
X138080000Y-117838700D03*
X140620000Y-120378700D03*
X140620000Y-117838700D03*
X143160000Y-120378700D03*
X143160000Y-117838700D03*
X145700000Y-120378700D03*
X145700000Y-117838700D03*
X148240000Y-120378700D03*
X148240000Y-117838700D03*
X150780000Y-120378700D03*
X150780000Y-117838700D03*
X153320000Y-120378700D03*
X153320000Y-117838700D03*
X155860000Y-120378700D03*
X155860000Y-117838700D03*
%TD*%
D16*
%TO.C,U4*%
X118290002Y-102600000D03*
D17*
X118340002Y-102999999D03*
X118340002Y-103400001D03*
X118340002Y-103800000D03*
D18*
X118140000Y-104400001D03*
X117740001Y-104400001D03*
X117340001Y-104400001D03*
X116940000Y-104400001D03*
D17*
X116740000Y-103800000D03*
X116740000Y-103400001D03*
X116740000Y-102999999D03*
X116740000Y-102600000D03*
D18*
X116940000Y-102000001D03*
X117340001Y-102000001D03*
X117740001Y-102000001D03*
X118140000Y-102000001D03*
%TD*%
D16*
%TO.C,U5*%
X138290002Y-103000000D03*
D17*
X138340002Y-103399999D03*
X138340002Y-103800001D03*
X138340002Y-104200000D03*
D18*
X138140000Y-104800001D03*
X137740001Y-104800001D03*
X137340001Y-104800001D03*
X136940000Y-104800001D03*
D17*
X136740000Y-104200000D03*
X136740000Y-103800001D03*
X136740000Y-103399999D03*
X136740000Y-103000000D03*
D18*
X136940000Y-102400001D03*
X137340001Y-102400001D03*
X137740001Y-102400001D03*
X138140000Y-102400001D03*
%TD*%
D16*
%TO.C,U1*%
X136689998Y-98399999D03*
D17*
X136639998Y-98000000D03*
X136639998Y-97599998D03*
X136639998Y-97199999D03*
D18*
X136840000Y-96599998D03*
X137239999Y-96599998D03*
X137639999Y-96599998D03*
X138040000Y-96599998D03*
D17*
X138240000Y-97199999D03*
X138240000Y-97599998D03*
X138240000Y-98000000D03*
X138240000Y-98399999D03*
D18*
X138040000Y-98999998D03*
X137639999Y-98999998D03*
X137239999Y-98999998D03*
X136840000Y-98999998D03*
%TD*%
D15*
%TO.C,J1*%
X133000000Y-82278700D03*
X133000000Y-79738700D03*
X135540000Y-82278700D03*
X135540000Y-79738700D03*
X138080000Y-82278700D03*
X138080000Y-79738700D03*
X140620000Y-82278700D03*
X140620000Y-79738700D03*
X143160000Y-82278700D03*
X143160000Y-79738700D03*
X145700000Y-82278700D03*
X145700000Y-79738700D03*
X148240000Y-82278700D03*
X148240000Y-79738700D03*
X150780000Y-82278700D03*
X150780000Y-79738700D03*
X153320000Y-82278700D03*
X153320000Y-79738700D03*
X155860000Y-82278700D03*
X155860000Y-79738700D03*
%TD*%
D16*
%TO.C,U2*%
X116889998Y-98300001D03*
D17*
X116839998Y-97900002D03*
X116839998Y-97500000D03*
X116839998Y-97100001D03*
D18*
X117040000Y-96500000D03*
X117439999Y-96500000D03*
X117839999Y-96500000D03*
X118240000Y-96500000D03*
D17*
X118440000Y-97100001D03*
X118440000Y-97500000D03*
X118440000Y-97900002D03*
X118440000Y-98300001D03*
D18*
X118240000Y-98900000D03*
X117839999Y-98900000D03*
X117439999Y-98900000D03*
X117040000Y-98900000D03*
%TD*%
M02*
